<?xml version="1.0" encoding="UTF-8"?>
<svg id="Layer_2" data-name="Layer 2" xmlns="http://www.w3.org/2000/svg" xmlns:xlink="http://www.w3.org/1999/xlink" viewBox="0 0 99.4 592.05">
  <defs>
    <style>
      .cls-1 {
        letter-spacing: -.04em;
      }

      .cls-2 {
        letter-spacing: 0em;
      }

      .cls-3 {
        clip-path: url(#clippath-20);
      }

      .cls-4 {
        clip-path: url(#clippath-11);
      }

      .cls-5 {
        clip-path: url(#clippath-16);
      }

      .cls-6 {
        stroke-dasharray: 0 0 1.15 .67;
      }

      .cls-6, .cls-7, .cls-8, .cls-9, .cls-10 {
        fill: none;
      }

      .cls-6, .cls-7, .cls-9 {
        stroke-width: .38px;
      }

      .cls-6, .cls-7, .cls-9, .cls-10 {
        stroke: #000;
        stroke-linecap: square;
      }

      .cls-7 {
        stroke-dasharray: 0 0 1.15 1.15;
      }

      .cls-11 {
        letter-spacing: -.01em;
      }

      .cls-12 {
        letter-spacing: 0em;
      }

      .cls-13 {
        letter-spacing: 0em;
      }

      .cls-14 {
        letter-spacing: 0em;
      }

      .cls-15 {
        letter-spacing: 0em;
      }

      .cls-16 {
        letter-spacing: 0em;
      }

      .cls-17 {
        letter-spacing: 0em;
      }

      .cls-18 {
        letter-spacing: .02em;
      }

      .cls-19 {
        letter-spacing: 0em;
      }

      .cls-20 {
        letter-spacing: 0em;
      }

      .cls-21 {
        clip-path: url(#clippath-2);
      }

      .cls-22 {
        clip-path: url(#clippath-13);
      }

      .cls-23 {
        letter-spacing: 0em;
      }

      .cls-24 {
        clip-path: url(#clippath-25);
      }

      .cls-25, .cls-26, .cls-8, .cls-27, .cls-28, .cls-29 {
        stroke-width: 0px;
      }

      .cls-30 {
        clip-path: url(#clippath-15);
      }

      .cls-31 {
        clip-path: url(#clippath-6);
      }

      .cls-26 {
        fill: #a2d17d;
      }

      .cls-32 {
        clip-path: url(#clippath-26);
      }

      .cls-33 {
        clip-path: url(#clippath-7);
      }

      .cls-34 {
        clip-path: url(#clippath-21);
      }

      .cls-35 {
        letter-spacing: 0em;
      }

      .cls-36 {
        letter-spacing: .01em;
      }

      .cls-37 {
        clip-path: url(#clippath-1);
      }

      .cls-38 {
        clip-path: url(#clippath-4);
      }

      .cls-39 {
        clip-path: url(#clippath-27);
      }

      .cls-40 {
        letter-spacing: -.03em;
      }

      .cls-41 {
        letter-spacing: 0em;
      }

      .cls-42 {
        letter-spacing: 0em;
      }

      .cls-43 {
        clip-path: url(#clippath-12);
      }

      .cls-27 {
        fill: #fff;
      }

      .cls-44 {
        letter-spacing: 0em;
      }

      .cls-45 {
        clip-path: url(#clippath-24);
      }

      .cls-46 {
        letter-spacing: 0em;
      }

      .cls-47 {
        letter-spacing: .02em;
      }

      .cls-48 {
        clip-path: url(#clippath-22);
      }

      .cls-49 {
        fill: #231f20;
        font-family: MyriadPro-Regular, 'Myriad Pro';
        font-size: 4.61px;
      }

      .cls-50 {
        clip-path: url(#clippath-9);
      }

      .cls-51 {
        clip-path: url(#clippath);
      }

      .cls-52 {
        opacity: .2;
      }

      .cls-53 {
        letter-spacing: 0em;
      }

      .cls-54 {
        letter-spacing: .02em;
      }

      .cls-55 {
        letter-spacing: -.04em;
      }

      .cls-56 {
        clip-path: url(#clippath-19);
      }

      .cls-57 {
        clip-path: url(#clippath-3);
      }

      .cls-10 {
        stroke-width: 1.92px;
      }

      .cls-58 {
        clip-path: url(#clippath-8);
      }

      .cls-28 {
        fill: #5c69a1;
      }

      .cls-59 {
        letter-spacing: 0em;
      }

      .cls-60 {
        letter-spacing: 0em;
      }

      .cls-61 {
        clip-path: url(#clippath-29);
      }

      .cls-62 {
        clip-path: url(#clippath-18);
      }

      .cls-63 {
        clip-path: url(#clippath-14);
      }

      .cls-64 {
        clip-path: url(#clippath-17);
      }

      .cls-29 {
        fill: #68cce2;
      }

      .cls-65 {
        clip-path: url(#clippath-5);
      }

      .cls-66 {
        letter-spacing: -.01em;
      }

      .cls-67 {
        clip-path: url(#clippath-10);
      }

      .cls-68 {
        clip-path: url(#clippath-23);
      }

      .cls-69 {
        clip-path: url(#clippath-28);
      }

      .cls-70 {
        letter-spacing: .01em;
      }

      .cls-71 {
        letter-spacing: 0em;
      }
    </style>
    <clipPath id="clippath">
      <rect class="cls-8" x="6.62" y="214.47" width="29.57" height="29.57"/>
    </clipPath>
    <clipPath id="clippath-1">
      <rect class="cls-8" x="6.62" y="214.47" width="29.57" height="29.57"/>
    </clipPath>
    <clipPath id="clippath-2">
      <rect class="cls-8" x="32.09" y="230.42" width="29.57" height="29.57"/>
    </clipPath>
    <clipPath id="clippath-3">
      <rect class="cls-8" x="32.09" y="230.42" width="29.57" height="29.57"/>
    </clipPath>
    <clipPath id="clippath-4">
      <rect class="cls-8" x="61.42" y="182.15" width="29.57" height="29.57"/>
    </clipPath>
    <clipPath id="clippath-5">
      <rect class="cls-8" x="61.42" y="182.15" width="29.57" height="29.57"/>
    </clipPath>
    <clipPath id="clippath-6">
      <rect class="cls-8" x="64.19" y="211.99" width="29.57" height="29.57"/>
    </clipPath>
    <clipPath id="clippath-7">
      <rect class="cls-8" x="64.19" y="211.99" width="29.57" height="29.57"/>
    </clipPath>
    <clipPath id="clippath-8">
      <rect class="cls-8" x="5.64" y="180.79" width="29.57" height="29.57"/>
    </clipPath>
    <clipPath id="clippath-9">
      <rect class="cls-8" x="5.64" y="180.79" width="29.57" height="29.57"/>
    </clipPath>
    <clipPath id="clippath-10">
      <rect class="cls-8" x="29.82" y="163.22" width="29.57" height="29.57"/>
    </clipPath>
    <clipPath id="clippath-11">
      <rect class="cls-8" x="29.82" y="163.22" width="29.57" height="29.57"/>
    </clipPath>
    <clipPath id="clippath-12">
      <rect class="cls-8" x="56.84" y="381.21" width="28.79" height="28.79"/>
    </clipPath>
    <clipPath id="clippath-13">
      <rect class="cls-8" x="56.84" y="381.21" width="28.79" height="28.79"/>
    </clipPath>
    <clipPath id="clippath-14">
      <rect class="cls-8" x="57.14" y="346.23" width="34.5" height="34.5"/>
    </clipPath>
    <clipPath id="clippath-15">
      <rect class="cls-8" x="57.14" y="346.23" width="34.5" height="34.5"/>
    </clipPath>
    <clipPath id="clippath-16">
      <rect class="cls-8" x="30.15" y="333.25" width="23.85" height="23.85"/>
    </clipPath>
    <clipPath id="clippath-17">
      <rect class="cls-8" x="30.15" y="333.25" width="23.85" height="23.85"/>
    </clipPath>
    <clipPath id="clippath-18">
      <rect class="cls-8" x="7.74" y="353.4" width="23.54" height="23.54"/>
    </clipPath>
    <clipPath id="clippath-19">
      <rect class="cls-8" x="7.74" y="353.4" width="23.54" height="23.54"/>
    </clipPath>
    <clipPath id="clippath-20">
      <rect class="cls-8" x="15.62" y="392.76" width="30.39" height="30.39"/>
    </clipPath>
    <clipPath id="clippath-21">
      <rect class="cls-8" x="15.62" y="392.76" width="30.39" height="30.39"/>
    </clipPath>
    <clipPath id="clippath-22">
      <rect class="cls-8" x="13.77" y="371.24" width="23.08" height="27.56"/>
    </clipPath>
    <clipPath id="clippath-23">
      <rect class="cls-8" x="13.77" y="371.24" width="23.08" height="27.57"/>
    </clipPath>
    <clipPath id="clippath-24">
      <rect class="cls-8" x="0" y="50.14" width="38.27" height="38.27"/>
    </clipPath>
    <clipPath id="clippath-25">
      <rect class="cls-8" y="50.14" width="38.27" height="38.27"/>
    </clipPath>
    <clipPath id="clippath-26">
      <rect class="cls-8" x="26.61" width="38.27" height="38.27"/>
    </clipPath>
    <clipPath id="clippath-27">
      <rect class="cls-8" x="26.61" y="0" width="38.27" height="38.27"/>
    </clipPath>
    <clipPath id="clippath-28">
      <rect class="cls-8" x="61.14" y="49.1" width="38.27" height="38.27"/>
    </clipPath>
    <clipPath id="clippath-29">
      <rect class="cls-8" x="61.14" y="49.1" width="38.27" height="38.27"/>
    </clipPath>
  </defs>
  <g id="Layer_1-2" data-name="Layer 1">
    <g>
      <line class="cls-10" x1="49.7" y1="107.82" x2="49.7" y2="130.25"/>
      <polygon class="cls-25" points="49.7 143.81 41.89 124.7 49.7 129.23 57.51 124.7 49.7 143.81"/>
      <line class="cls-10" x1="49.7" y1="107.82" x2="49.7" y2="130.25"/>
      <polygon class="cls-25" points="49.7 143.81 41.89 124.7 49.7 129.23 57.51 124.7 49.7 143.81"/>
    </g>
    <g>
      <line class="cls-10" x1="49.7" y1="275.26" x2="49.7" y2="297.69"/>
      <polygon class="cls-25" points="49.7 311.25 41.89 292.14 49.7 296.67 57.51 292.14 49.7 311.25"/>
      <line class="cls-10" x1="49.7" y1="275.26" x2="49.7" y2="297.69"/>
      <polygon class="cls-25" points="49.7 311.25 41.89 292.14 49.7 296.67 57.51 292.14 49.7 311.25"/>
    </g>
    <g>
      <line class="cls-10" x1="49.7" y1="448.24" x2="49.7" y2="470.67"/>
      <polygon class="cls-25" points="49.7 484.23 41.89 465.12 49.7 469.66 57.51 465.12 49.7 484.23"/>
      <line class="cls-10" x1="49.7" y1="448.24" x2="49.7" y2="470.67"/>
      <polygon class="cls-25" points="49.7 484.23 41.89 465.12 49.7 469.66 57.51 465.12 49.7 484.23"/>
    </g>
    <g>
      <path class="cls-27" d="m36.19,229.25c0-8.17-6.62-14.79-14.79-14.79s-14.79,6.62-14.79,14.79,6.62,14.79,14.79,14.79,14.79-6.62,14.79-14.79"/>
      <path class="cls-27" d="m61.66,245.21c0-8.17-6.62-14.79-14.78-14.79s-14.79,6.62-14.79,14.79,6.62,14.79,14.79,14.79,14.78-6.62,14.78-14.79"/>
      <path class="cls-27" d="m90.99,196.94c0-8.17-6.62-14.79-14.79-14.79s-14.79,6.62-14.79,14.79,6.62,14.79,14.79,14.79,14.79-6.62,14.79-14.79"/>
      <path class="cls-27" d="m93.76,226.77c0-8.17-6.62-14.79-14.79-14.79s-14.79,6.62-14.79,14.79,6.62,14.79,14.79,14.79,14.79-6.62,14.79-14.79"/>
      <path class="cls-27" d="m63.02,211.73c0-8.17-6.62-14.79-14.79-14.79s-14.79,6.62-14.79,14.79,6.62,14.79,14.79,14.79,14.79-6.62,14.79-14.79"/>
      <path class="cls-6" d="m63.02,211.73c0-8.17-6.62-14.79-14.79-14.79s-14.79,6.62-14.79,14.79,6.62,14.79,14.79,14.79,14.79-6.62,14.79-14.79Z"/>
      <path class="cls-27" d="m35.21,195.58c0-8.17-6.62-14.79-14.79-14.79s-14.79,6.62-14.79,14.79,6.62,14.79,14.79,14.79,14.79-6.62,14.79-14.79"/>
      <path class="cls-27" d="m59.4,178c0-8.17-6.62-14.79-14.79-14.79s-14.79,6.62-14.79,14.79,6.62,14.79,14.79,14.79,14.79-6.62,14.79-14.79"/>
      <g class="cls-52">
        <g class="cls-51">
          <g class="cls-37">
            <path class="cls-29" d="m36.19,229.25c0-8.17-6.62-14.79-14.79-14.79s-14.79,6.62-14.79,14.79,6.62,14.79,14.79,14.79,14.79-6.62,14.79-14.79"/>
          </g>
        </g>
      </g>
      <g class="cls-52">
        <g class="cls-21">
          <g class="cls-57">
            <path class="cls-29" d="m61.66,245.21c0-8.17-6.62-14.79-14.78-14.79s-14.79,6.62-14.79,14.79,6.62,14.79,14.79,14.79,14.78-6.62,14.78-14.79"/>
          </g>
        </g>
      </g>
      <g class="cls-52">
        <g class="cls-38">
          <g class="cls-65">
            <path class="cls-28" d="m90.99,196.94c0-8.17-6.62-14.79-14.79-14.79s-14.79,6.62-14.79,14.79,6.62,14.79,14.79,14.79,14.79-6.62,14.79-14.79"/>
          </g>
        </g>
      </g>
      <g class="cls-52">
        <g class="cls-31">
          <g class="cls-33">
            <path class="cls-28" d="m93.76,226.77c0-8.17-6.62-14.79-14.79-14.79s-14.79,6.62-14.79,14.79,6.62,14.79,14.79,14.79,14.79-6.62,14.79-14.79"/>
          </g>
        </g>
      </g>
      <path class="cls-7" d="m63.02,211.73c0-8.17-6.62-14.79-14.79-14.79s-14.79,6.62-14.79,14.79,6.62,14.79,14.79,14.79,14.79-6.62,14.79-14.79Z"/>
      <g class="cls-52">
        <g class="cls-58">
          <g class="cls-50">
            <path class="cls-26" d="m35.21,195.58c0-8.17-6.62-14.79-14.79-14.79s-14.79,6.62-14.79,14.79,6.62,14.79,14.79,14.79,14.79-6.62,14.79-14.79"/>
          </g>
        </g>
      </g>
      <g class="cls-52">
        <g class="cls-67">
          <g class="cls-4">
            <path class="cls-26" d="m59.4,178c0-8.17-6.62-14.79-14.79-14.79s-14.79,6.62-14.79,14.79,6.62,14.79,14.79,14.79,14.79-6.62,14.79-14.79"/>
          </g>
        </g>
      </g>
      <text class="cls-49" transform="translate(38.34 177.94)"><tspan class="cls-12" x="0" y="0">S</tspan><tspan class="cls-13" x="2.26" y="0">tudio</tspan></text>
      <text class="cls-49" transform="translate(15.13 196.94)"><tspan class="cls-12" x="0" y="0">S</tspan><tspan class="cls-13" x="2.26" y="0">tudio</tspan></text>
      <text class="cls-49" transform="translate(10.68 230.42)"><tspan class="cls-1" x="0" y="0">F</tspan><tspan x="2.04" y="0">ab</tspan><tspan class="cls-59" x="6.89" y="0">r</tspan><tspan x="8.41" y="0">ic</tspan><tspan class="cls-12" x="11.55" y="0">a</tspan><tspan x="13.76" y="0">tion</tspan></text>
      <text class="cls-49" transform="translate(40.18 247.07)"><tspan x="0" y="0">Lib</tspan><tspan class="cls-42" x="5.88" y="0">r</tspan><tspan x="7.36" y="0">a</tspan><tspan class="cls-54" x="9.58" y="0">r</tspan><tspan x="11.2" y="0">y</tspan></text>
      <text class="cls-49" transform="translate(64.83 198.28)"><tspan class="cls-11" x="0" y="0">L</tspan><tspan x="2.12" y="0">e</tspan><tspan class="cls-70" x="4.43" y="0">c</tspan><tspan x="6.55" y="0">tu</tspan><tspan class="cls-44" x="10.61" y="0">r</tspan><tspan class="cls-13" x="12.08" y="0">e Hall</tspan></text>
      <text class="cls-49" transform="translate(72.21 227.98)"><tspan class="cls-71" x="0" y="0">G</tspan><tspan x="3.01" y="0">alle</tspan><tspan class="cls-18" x="9.72" y="0">r</tspan><tspan class="cls-23" x="11.34" y="0">y</tspan></text>
    </g>
    <g>
      <path class="cls-27" d="m85.63,395.61c0-7.95-6.45-14.4-14.4-14.4s-14.4,6.44-14.4,14.4,6.45,14.4,14.4,14.4,14.4-6.45,14.4-14.4"/>
      <path class="cls-27" d="m91.64,363.48c0-9.53-7.72-17.25-17.25-17.25s-17.25,7.72-17.25,17.25,7.72,17.25,17.25,17.25,17.25-7.72,17.25-17.25"/>
      <path class="cls-27" d="m54,345.18c0-6.59-5.34-11.92-11.93-11.92s-11.92,5.34-11.92,11.92,5.34,11.93,11.92,11.93,11.93-5.34,11.93-11.93"/>
      <path class="cls-27" d="m31.28,365.17c0-6.5-5.27-11.77-11.77-11.77s-11.77,5.27-11.77,11.77,5.27,11.77,11.77,11.77,11.77-5.27,11.77-11.77"/>
      <path class="cls-27" d="m18.68,398.8c-1.92,2.54-3.06,5.71-3.06,9.15,0,8.39,6.8,15.19,15.19,15.19s15.19-6.8,15.19-15.19-6.8-15.19-15.19-15.19c-4.96,0-9.36,2.37-12.13,6.05"/>
      <path class="cls-7" d="m59.2,377.67c0-7.37-5.98-13.35-13.35-13.35s-13.35,5.98-13.35,13.35,5.98,13.35,13.35,13.35,13.35-5.98,13.35-13.35Z"/>
      <path class="cls-27" d="m13.5,403.07c-6.66,8.83-3.7,21.53,6.17,26.52s21.85-.19,25-10.79c2.52-8.49,12.82-11.76,19.78-6.27,6.71,5.3,16.32,4.72,22.34-1.35,6.02-6.06,6.54-15.68,1.2-22.35-2.56-3.2-1.82-7.92,1.61-10.17,8.71-5.72,11.62-17.14,6.71-26.34-4.91-9.19-16.03-13.12-25.63-9.05-6.67,2.83-14.34-.57-16.73-7.41-5.07-14.54-26.5-11.31-27.06,4.08-.22,6-5.39,10.61-11.38,10.15-14.68-1.13-20.62,18.5-7.77,25.69,9.79,5.47,12.49,18.33,5.74,27.28"/>
      <path class="cls-27" d="m36.85,394c-1.85-.8-3.89-1.24-6.03-1.24-4.96,0-9.36,2.37-12.13,6.05h0c5.78-7.67,3.47-18.67-4.92-23.36l.03-.06c1.69.94,3.64,1.47,5.71,1.47,4.24,0,7.96-2.25,10.03-5.61l.04.02c-4.97,8.22-1.55,18.93,7.26,22.74"/>
      <g class="cls-52">
        <g class="cls-43">
          <g class="cls-22">
            <path class="cls-28" d="m85.63,395.61c0-7.95-6.45-14.4-14.4-14.4s-14.4,6.44-14.4,14.4,6.45,14.4,14.4,14.4,14.4-6.45,14.4-14.4"/>
          </g>
        </g>
      </g>
      <g class="cls-52">
        <g class="cls-63">
          <g class="cls-30">
            <path class="cls-28" d="m91.64,363.48c0-9.53-7.72-17.25-17.25-17.25s-17.25,7.72-17.25,17.25,7.72,17.25,17.25,17.25,17.25-7.72,17.25-17.25"/>
          </g>
        </g>
      </g>
      <g class="cls-52">
        <g class="cls-5">
          <g class="cls-64">
            <path class="cls-26" d="m54,345.18c0-6.59-5.34-11.92-11.93-11.92s-11.92,5.34-11.92,11.92,5.34,11.93,11.92,11.93,11.93-5.34,11.93-11.93"/>
          </g>
        </g>
      </g>
      <g class="cls-52">
        <g class="cls-62">
          <g class="cls-56">
            <path class="cls-26" d="m31.28,365.17c0-6.5-5.27-11.77-11.77-11.77s-11.77,5.27-11.77,11.77,5.27,11.77,11.77,11.77,11.77-5.27,11.77-11.77"/>
          </g>
        </g>
      </g>
      <g class="cls-52">
        <g class="cls-3">
          <g class="cls-34">
            <path class="cls-29" d="m18.68,398.8c-1.92,2.54-3.06,5.71-3.06,9.15,0,8.39,6.8,15.19,15.19,15.19s15.19-6.8,15.19-15.19-6.8-15.19-15.19-15.19c-4.96,0-9.36,2.37-12.13,6.05"/>
          </g>
        </g>
      </g>
      <path class="cls-7" d="m59.2,377.67c0-7.37-5.98-13.35-13.35-13.35s-13.35,5.98-13.35,13.35,5.98,13.35,13.35,13.35,13.35-5.98,13.35-13.35Z"/>
      <path class="cls-7" d="m13.5,403.07c-6.66,8.83-3.7,21.53,6.17,26.52s21.85-.19,25-10.79c2.52-8.49,12.82-11.76,19.78-6.27,6.71,5.3,16.32,4.72,22.34-1.35,6.02-6.06,6.54-15.68,1.2-22.35-2.56-3.2-1.82-7.92,1.61-10.17,8.71-5.72,11.62-17.14,6.71-26.34-4.91-9.19-16.03-13.12-25.63-9.05-6.67,2.83-14.34-.57-16.73-7.41-5.07-14.54-26.5-11.31-27.06,4.08-.22,6-5.39,10.61-11.38,10.15-14.68-1.13-20.62,18.5-7.77,25.69,9.79,5.47,12.49,18.33,5.74,27.28Z"/>
      <g class="cls-52">
        <g class="cls-48">
          <g class="cls-68">
            <path class="cls-29" d="m36.85,394c-1.85-.8-3.89-1.24-6.03-1.24-4.96,0-9.36,2.37-12.13,6.05h0c5.78-7.67,3.47-18.67-4.92-23.36l.03-.06c1.69.94,3.64,1.47,5.71,1.47,4.24,0,7.96-2.25,10.03-5.61l.04.02c-4.97,8.22-1.55,18.93,7.26,22.74"/>
          </g>
        </g>
      </g>
      <path class="cls-9" d="m31.27,365.68c.22-5.14,4.68-9.06,9.8-8.62"/>
      <path class="cls-9" d="m53.33,341.25c2.04,5.86,8.61,8.77,14.32,6.35"/>
      <path class="cls-9" d="m40.48,396.23c5.86,4.83,14.73,2.22,17.05-5.01"/>
      <path class="cls-9" d="m44.5,356.85c6.07-1.26,11.95,2.88,12.81,9.02"/>
      <path class="cls-9" d="m62.3,375.78c2.51,2.46,2.35,6.55-.34,8.81"/>
      <path class="cls-9" d="m83.86,377.9c-2.94,1.93-3.58,5.97-1.38,8.71"/>
      <path class="cls-9" d="m45.38,412.27c2.16-7.27,10.98-10.07,16.94-5.37"/>
      <path class="cls-9" d="m20.42,353.44c5.13.39,9.55-3.56,9.74-8.69"/>
      <text class="cls-49" transform="translate(35.81 346)"><tspan class="cls-53" x="0" y="0">S</tspan><tspan x="2.26" y="0">tudio</tspan></text>
      <text class="cls-49" transform="translate(14.15 365.88)"><tspan class="cls-53" x="0" y="0">S</tspan><tspan x="2.26" y="0">tudio</tspan></text>
      <text class="cls-49" transform="translate(12.74 385.83)"><tspan class="cls-1" x="0" y="0">F</tspan><tspan x="2.04" y="0">ab</tspan><tspan class="cls-59" x="6.89" y="0">r</tspan><tspan x="8.41" y="0">ic</tspan><tspan class="cls-12" x="11.55" y="0">a</tspan><tspan x="13.76" y="0">tion</tspan></text>
      <text class="cls-49" transform="translate(25.2 408.44)"><tspan x="0" y="0">Lib</tspan><tspan class="cls-46" x="5.88" y="0">r</tspan><tspan class="cls-23" x="7.37" y="0">a</tspan><tspan class="cls-18" x="9.59" y="0">r</tspan><tspan class="cls-23" x="11.21" y="0">y</tspan></text>
      <text class="cls-49" transform="translate(63.01 365.09)"><tspan class="cls-11" x="0" y="0">L</tspan><tspan x="2.12" y="0">e</tspan><tspan class="cls-70" x="4.43" y="0">c</tspan><tspan x="6.55" y="0">tu</tspan><tspan class="cls-44" x="10.61" y="0">r</tspan><tspan class="cls-13" x="12.08" y="0">e Hall</tspan></text>
      <text class="cls-49" transform="translate(64.09 395.61)"><tspan class="cls-41" x="0" y="0">G</tspan><tspan x="3.01" y="0">alle</tspan><tspan class="cls-54" x="9.72" y="0">r</tspan><tspan x="11.33" y="0">y</tspan></text>
    </g>
    <g>
      <path class="cls-9" d="m46.4,525c-5.6.52-9.6,2.48-13.44,6.58"/>
      <path class="cls-27" d="m47.52,524.81c7.62-1.96,10.88-10.15,8.05-16.56"/>
      <path class="cls-9" d="m47.52,524.81c7.62-1.96,10.88-10.15,8.05-16.56"/>
      <path class="cls-9" d="m65.88,549.86c4.2,1.62,7.82,1.67,12.06.18"/>
      <path class="cls-27" d="m69.88,516.31c-6.79.91-12.82,5.79-14.64,13.07"/>
      <path class="cls-9" d="m69.88,516.31c-6.79.91-12.82,5.79-14.64,13.07"/>
      <path class="cls-27" d="m55.88,562.27c-.09,6.24,3.71,11.47,8.98,13.66"/>
      <path class="cls-9" d="m55.88,562.27c-.09,6.24,3.71,11.47,8.98,13.66"/>
      <path class="cls-27" d="m47.12,582.92c1.35-2.96,1.77-6.36,1-9.75-1.73-7.65-8.96-12.76-16.75-11.85-3.79.44-7.12,2.24-9.53,4.87"/>
      <path class="cls-9" d="m47.12,582.92c1.35-2.96,1.77-6.36,1-9.75-1.73-7.65-8.96-12.76-16.75-11.85-3.79.44-7.12,2.24-9.53,4.87"/>
      <path class="cls-9" d="m66.31,545.97c0-9.92-8.05-17.97-17.97-17.97s-17.97,8.05-17.97,17.97,8.05,17.97,17.97,17.97,17.97-8.05,17.97-17.97Z"/>
      <path class="cls-27" d="m32.49,512.61c.36-9.91,11.88-15.17,19.6-8.94,1.59,1.29,2.75,2.83,3.48,4.5h-.02c2.26,5.12,9.05,8.76,14.33,8.06h0c4.65-.63,6.14-.31,10.19,1.75,9.99,5.09,12.64,18.15,5.43,26.74-2.78,3.32-3.45,7.93-1.73,11.9v.09c3.69,8.5-1.41,18.24-10.5,20.05-2.97.59-5.86.24-8.42-.82h0c-6.83-2.83-14.68.26-17.74,6.99-1.7,3.73-4.87,6.75-9,8.17-.99-3.65-6.35-3.03-6.47.75-7.81-.76-13.78-7.29-13.85-15.14-.04-4.03,1.49-7.74,4.04-10.52,6.41-6.98,3.97-18.2-4.75-21.9-12.4-5.26-7.87-23.84,5.56-22.8,5.18.4,9.65-3.59,9.84-8.78"/>
      <path class="cls-9" d="m32.49,512.61c.36-9.91,11.88-15.17,19.6-8.94,1.59,1.29,2.75,2.83,3.48,4.5h-.02c2.26,5.12,9.05,8.76,14.33,8.06h0c4.65-.63,6.14-.31,10.19,1.75,9.99,5.09,12.64,18.15,5.43,26.74-2.78,3.32-3.45,7.93-1.73,11.9v.09c3.69,8.5-1.41,18.24-10.5,20.05-2.97.59-5.86.24-8.42-.82h0c-6.83-2.83-14.68.26-17.74,6.99-1.7,3.73-4.87,6.75-9,8.17-.99-3.65-6.35-3.03-6.47.75-7.81-.76-13.78-7.29-13.85-15.14-.04-4.03,1.49-7.74,4.04-10.52,6.41-6.98,3.97-18.2-4.75-21.9-12.4-5.26-7.87-23.84,5.56-22.8,5.18.4,9.65-3.59,9.84-8.78"/>
      <path class="cls-9" d="m46.4,525c-5.6.52-9.6,2.48-13.44,6.58"/>
      <path class="cls-9" d="m47.52,524.81c9.6-2.46,12.29-14.83,4.56-21.06-7.72-6.22-19.24-.97-19.6,8.94"/>
      <path class="cls-9" d="m65.88,549.86c4.2,1.62,7.82,1.67,12.06.18"/>
      <path class="cls-9" d="m85.5,544.8c7.21-8.59,4.56-21.65-5.43-26.74-9.99-5.09-22.12.43-24.83,11.31"/>
      <path class="cls-9" d="m55.88,562.27c-.14,9.27,8.31,16.3,17.4,14.48,9.09-1.81,14.18-11.55,10.5-20.05"/>
      <path class="cls-9" d="m38.12,591.09c7.42-2.54,11.73-10.27,10-17.92-1.73-7.65-8.96-12.76-16.75-11.85-7.79.91-13.65,7.54-13.57,15.39.07,7.85,6.05,14.37,13.85,15.14"/>
      <path class="cls-9" d="m22.64,521.48c-13.43-1.04-17.96,17.54-5.56,22.8"/>
      <path class="cls-9" d="m66.31,545.97c0-9.92-8.05-17.97-17.97-17.97s-17.97,8.05-17.97,17.97,8.05,17.97,17.97,17.97,17.97-8.05,17.97-17.97Z"/>
      <path class="cls-7" d="m46.46,512.75c0-2.95-2.4-5.35-5.35-5.35s-5.35,2.4-5.35,5.35,2.39,5.35,5.35,5.35,5.35-2.4,5.35-5.35Z"/>
      <path class="cls-7" d="m40.52,571.83c0-3.91-3.17-7.09-7.09-7.09s-7.09,3.17-7.09,7.09,3.17,7.09,7.09,7.09,7.09-3.17,7.09-7.09Z"/>
      <path class="cls-7" d="m61.83,545.97c0-7.45-6.04-13.49-13.49-13.49s-13.49,6.04-13.49,13.49,6.04,13.49,13.49,13.49,13.49-6.04,13.49-13.49Z"/>
      <path class="cls-7" d="m29.28,531.68c0-2.53-2.05-4.58-4.58-4.58s-4.59,2.05-4.59,4.58,2.05,4.58,4.59,4.58,4.58-2.05,4.58-4.58Z"/>
      <text class="cls-49" transform="translate(13.84 540.71)"><tspan class="cls-17" x="0" y="0">S</tspan><tspan x="2.26" y="0">tudio</tspan></text>
      <text class="cls-49" transform="translate(34.25 523.43)"><tspan class="cls-17" x="0" y="0">S</tspan><tspan x="2.26" y="0">tudio</tspan></text>
      <text class="cls-49" transform="translate(11.91 554.22)"><tspan class="cls-55" x="0" y="0">F</tspan><tspan x="2.04" y="0">ab</tspan><tspan class="cls-2" x="6.89" y="0">r</tspan><tspan x="8.41" y="0">ic</tspan><tspan class="cls-12" x="11.55" y="0">a</tspan><tspan x="13.76" y="0">tion</tspan></text>
      <text class="cls-49" transform="translate(26.74 584.52)"><tspan x="0" y="0">Lib</tspan><tspan class="cls-35" x="5.88" y="0">r</tspan><tspan x="7.37" y="0">a</tspan><tspan class="cls-47" x="9.59" y="0">r</tspan><tspan x="11.21" y="0">y</tspan></text>
      <text class="cls-49" transform="translate(62.18 532.86)"><tspan class="cls-66" x="0" y="0">L</tspan><tspan class="cls-14" x="2.12" y="0">e</tspan><tspan class="cls-36" x="4.42" y="0">c</tspan><tspan x="6.55" y="0">tu</tspan><tspan class="cls-60" x="10.61" y="0">r</tspan><tspan x="12.08" y="0">e Hall</tspan></text>
      <text class="cls-49" transform="translate(65.65 565.77)"><tspan class="cls-19" x="0" y="0">G</tspan><tspan x="3.01" y="0">alle</tspan><tspan class="cls-47" x="9.72" y="0">r</tspan><tspan x="11.33" y="0">y</tspan></text>
    </g>
    <g>
      <path class="cls-27" d="m38.27,69.28c0-10.57-8.57-19.13-19.13-19.13S0,58.71,0,69.28s8.57,19.13,19.13,19.13,19.13-8.57,19.13-19.13"/>
      <path class="cls-27" d="m64.88,19.13C64.88,8.57,56.31,0,45.74,0s-19.13,8.57-19.13,19.13,8.57,19.13,19.13,19.13,19.13-8.57,19.13-19.13"/>
      <path class="cls-27" d="m99.4,68.24c0-10.57-8.57-19.13-19.13-19.13s-19.13,8.57-19.13,19.13,8.57,19.13,19.13,19.13,19.13-8.57,19.13-19.13"/>
      <g class="cls-52">
        <g class="cls-45">
          <g class="cls-24">
            <path class="cls-29" d="m38.27,69.28c0-10.57-8.57-19.13-19.13-19.13S0,58.71,0,69.28s8.57,19.13,19.13,19.13,19.13-8.57,19.13-19.13"/>
          </g>
        </g>
      </g>
      <g class="cls-52">
        <g class="cls-32">
          <g class="cls-39">
            <path class="cls-26" d="m64.88,19.13C64.88,8.57,56.31,0,45.74,0s-19.13,8.57-19.13,19.13,8.57,19.13,19.13,19.13,19.13-8.57,19.13-19.13"/>
          </g>
        </g>
      </g>
      <g class="cls-52">
        <g class="cls-69">
          <g class="cls-61">
            <path class="cls-28" d="m99.4,68.24c0-10.57-8.57-19.13-19.13-19.13s-19.13,8.57-19.13,19.13,8.57,19.13,19.13,19.13,19.13-8.57,19.13-19.13"/>
          </g>
        </g>
      </g>
      <text class="cls-49" transform="translate(40.76 17.12)"><tspan class="cls-40" x="0" y="0">W</tspan><tspan x="3.75" y="0">o</tspan><tspan class="cls-20" x="6.28" y="0">r</tspan><tspan x="7.81" y="0">k</tspan></text>
      <text class="cls-49" transform="translate(40.01 22.65)"><tspan x="0" y="0">Spa</tspan><tspan class="cls-16" x="7.12" y="0">c</tspan><tspan x="9.15" y="0">e</tspan></text>
      <text class="cls-49" transform="translate(10.38 68.24)"><tspan class="cls-20" x="0" y="0">R</tspan><tspan class="cls-13" x="2.5" y="0">esou</tspan><tspan class="cls-15" x="11.7" y="0">r</tspan><tspan class="cls-16" x="13.17" y="0">c</tspan><tspan x="15.2" y="0">e</tspan></text>
      <text class="cls-49" transform="translate(13.4 73.78)"><tspan x="0" y="0">Spa</tspan><tspan class="cls-16" x="7.12" y="0">c</tspan><tspan x="9.15" y="0">e</tspan></text>
      <text class="cls-49" transform="translate(70.55 68.24)"><tspan x="0" y="0">Exhibition</tspan></text>
      <text class="cls-49" transform="translate(74.53 73.78)"><tspan x="0" y="0">Spa</tspan><tspan class="cls-42" x="7.12" y="0">c</tspan><tspan class="cls-13" x="9.16" y="0">e</tspan></text>
    </g>
  </g>
</svg>