<?xml version="1.0" encoding="utf-8"?>
<!-- Generator: Adobe Illustrator 27.0.1, SVG Export Plug-In . SVG Version: 6.00 Build 0)  -->
<svg version="1.1" id="Layer_1" xmlns="http://www.w3.org/2000/svg" xmlns:xlink="http://www.w3.org/1999/xlink" x="0px" y="0px"
	 viewBox="0 0 929.07 1111.49" style="enable-background:new 0 0 929.07 1111.49;" xml:space="preserve">
<style type="text/css">
	.st0{fill:#E5E5E4;stroke:#000000;stroke-linecap:square;}
	.st1{fill:#E5E5E4;stroke:#231F20;stroke-linecap:square;stroke-miterlimit:10;}
	.st2{fill:none;stroke:#000000;stroke-linecap:square;stroke-dasharray:3,3;}
	.st3{fill:none;stroke:#000000;stroke-linecap:square;}
	.st4{fill:none;stroke:#000000;stroke-width:0.5;stroke-linecap:square;}
	.st5{fill:none;stroke:#000000;stroke-width:0.25;stroke-linecap:square;stroke-miterlimit:3.9999;}
	.st6{fill:none;stroke:#000000;stroke-width:0.25;stroke-linecap:square;stroke-miterlimit:3.9998;}
	.st7{fill:none;stroke:#000000;stroke-width:0.25;stroke-linecap:square;}
	.st8{fill:none;stroke:#000000;stroke-width:0.25;stroke-linecap:square;stroke-miterlimit:4;}
	.st9{fill:none;stroke:#000000;stroke-width:0.25;stroke-linecap:square;stroke-miterlimit:4.0002;}
	.st10{fill:none;stroke:#000000;stroke-width:0.18;stroke-linecap:square;}
	.st11{fill:none;stroke:#000000;stroke-linecap:square;stroke-dasharray:2.9639,2.9639;}
	.st12{fill:none;stroke:#000000;stroke-linecap:square;stroke-dasharray:2.9995,2.9995;}
	.st13{fill:none;stroke:#000000;stroke-linecap:square;stroke-dasharray:3.0142,3.0142;}
	.st14{fill:none;stroke:#000000;stroke-linecap:square;stroke-dasharray:3.0125,3.0125;}
	.st15{fill:none;stroke:#000000;stroke-linecap:square;stroke-dasharray:3.0275,3.0275;}
	.st16{fill:none;stroke:#000000;stroke-linecap:square;stroke-dasharray:3.0009,3.0009;}
	.st17{stroke:#000000;stroke-width:0.5;stroke-linecap:square;}
	.st18{stroke:#000000;stroke-width:0.5076;stroke-linecap:square;}
	.st19{fill:none;stroke:#000000;stroke-width:0.25;stroke-linecap:square;stroke-miterlimit:10;}
	.st20{opacity:0.3;fill:#CAE4BE;enable-background:new    ;}
	.st21{fill:none;stroke:#000000;stroke-width:1.0505;stroke-linecap:square;}
	.st22{enable-background:new    ;}
	.st23{fill:#231F20;}
</style>
<path class="st0" d="M635.28,267.87c86.37-35.55,185.18,5.82,220.46,92.29c16.95,41.52,16.66,88.09-0.78,129.4
	c-6.36,15.06-14.47,28.52-24.82,41.18c-2.55,3.11-5.2,6.12-7.96,9.05c-5.34,5.65-9.87,11.7-13.66,18.5
	c-8.06,14.49-11.97,30.92-11.28,47.48c0.59,14.39,3.91,24.71,9.91,37.59c4.43,9.51,7.76,19.23,10.14,29.45
	c4.73,20.31,5.22,41.45,1.33,61.95c-8.62,45.45-37.14,80.95-76.89,102.86c-42.05,23.18-83.02,25.91-128.22,11.02
	c-20.68-6.81-40.47-15.79-62.36-19.4c-22.75-3.76-44.78-1.28-64.23,12.92c-0.48,0.34-0.96,0.68-1.44,1.03
	c-3.86,2.82-7.49,5.96-10.81,9.4c-2.75,2.84-5.29,5.88-7.57,9.1c-1.57,2.21-3.01,4.51-4.35,6.86c-1.88,3.3-3.54,6.71-5.08,10.18
	c-0.02,0.05-0.05,0.1-0.07,0.16c-0.01,0.05-0.03,0.11-0.04,0.17c-7.07,32.35-24.74,61.41-50.2,82.59c-0.01,0.01-0.02,0.02-0.03,0.02
	c-0.01,0.01-0.02,0.02-0.03,0.03c-13.86,12.64-30,22.56-47.75,28.62c-3.52-14.41-16.43-24.55-31.27-24.56s-27.75,10.13-31.29,24.54
	c-12.13-1.24-24.11-3.99-35.55-8.24c-11.57-4.29-22.6-10.1-32.58-17.35c-10.01-7.26-18.97-15.95-26.74-25.58
	c-8.65-10.72-15.83-22.6-21.45-35.17c-2.68-5.99-5-12.13-6.91-18.4c-1.83-6-3.29-12.12-4.33-18.31c-1.22-7.24-1.86-14.59-1.72-21.93
	c0.11-5.94,0.74-11.88,1.86-17.72c1.13-5.9,2.77-11.71,4.79-17.37c2.09-5.86,4.58-11.56,7.33-17.14c2.85-5.79,5.96-11.44,9.25-16.98
	c1.93-3.26,3.93-6.49,5.97-9.69c1.86-2.92,3.77-5.81,5.69-8.7c3.45-5.18,6.94-10.33,10.36-15.52c0.46-0.7,0.92-1.39,1.37-2.09
	c2.42-3.71,4.8-7.44,7.1-11.22c2.42-3.98,4.74-8.01,6.91-12.13c2.27-4.31,4.36-8.72,6.19-13.23c1.26-3.11,2.39-6.26,3.39-9.47
	c0.83-2.67,1.55-5.38,2.17-8.1c0.52-2.31,0.96-4.63,1.32-6.97c0.96-6.21,1.37-12.5,1.29-18.78c-0.07-5.67-0.53-11.34-1.33-16.96
	c-0.85-5.96-2.07-11.86-3.63-17.67c-1.66-6.19-3.71-12.27-6.11-18.2c-2.5-6.15-5.38-12.14-8.62-17.93
	c-6.47-11.57-14.36-22.33-23.34-32.08c-6.26-6.8-13.06-13.1-20.29-18.87c-4.72-3.77-9.63-7.32-14.63-10.72
	c-7.27-4.94-14.76-9.55-22.13-14.34c-3.21-2.08-6.4-4.19-9.54-6.37c-4.1-2.85-8.12-5.82-11.95-9.01c-1.84-1.54-3.64-3.12-5.38-4.78
	c-1.39-1.32-2.75-2.69-4.06-4.1c-3.39-3.66-6.44-7.64-9.11-11.85c-4.46-7.03-7.88-14.7-10.31-22.66c-2.4-7.86-3.84-16.01-4.32-24.21
	c-0.21-3.66-0.24-7.33-0.06-11c0.17-3.66,0.54-7.3,1.1-10.92c1.33-8.63,3.75-17.09,7.08-25.17c3.07-7.42,6.91-14.52,11.45-21.14
	c4.51-6.58,9.72-12.7,15.49-18.21c11.05-10.53,24.2-18.85,38.43-24.36c6.88-2.66,14.01-4.67,21.27-5.94
	c8.09-1.42,16.34-1.92,24.54-1.54c45.96,2.15,87.35-27.64,99.89-71.91c1.87-6.61,3.03-13.23,3.51-20.09
	c3.3-47.33,35.69-87.62,81.21-101.03c45.52-13.4,94.57,2.91,122.99,40.91c6.88,10.44,11.7,21.28,14.84,33.38
	c1.45-0.38,2.9-0.75,4.36-1.13c0.18,0.29,0.36,0.58,0.54,0.87c4.88,7.83,10.05,15.49,15.62,22.84c4.87,6.41,10.05,12.58,15.67,18.34
	c4.98,5.1,10.3,9.87,16.02,14.12c5.25,3.9,10.84,7.36,16.7,10.25c5.61,2.77,11.49,5.02,17.51,6.74c0.62,0.18,1.24,0.35,1.87,0.52
	c5.79,0.68,11.58,1.37,17.37,2.05"/>
<path class="st1" d="M504.65,672.47c68.94-25.09,104.83-101.01,80.47-170.21S485.22,396.37,415.77,420s-106.94,98.78-84.03,168.47
	c22.9,69.7,97.65,107.97,167.58,85.8c64.48-20.44,103.58-85.78,91.1-152.26c-12.47-66.48-72.6-113.2-140.1-108.88
	c-67.5,4.33-121.17,58.35-125.05,125.88s43.24,127.34,109.8,139.38"/>
<path class="st2" d="M223.76,422.86c10.45,2.99,21.35-3.05,24.34-13.5c2.99-10.45-3.05-21.35-13.5-24.34s-21.35,3.05-24.34,13.5
	C207.27,408.96,213.31,419.86,223.76,422.86z"/>
<path class="st1" d="M381.84,800.05c0-37.89-30.72-68.61-68.61-68.61s-68.61,30.72-68.61,68.61s30.72,68.62,68.61,68.62
	S381.84,837.94,381.84,800.05z"/>
<path class="st1" d="M386.84,174.07c-27.36,5.43-45.13,32.02-39.69,59.37c5.43,27.36,32.01,45.13,59.37,39.69
	c27.36-5.43,45.13-32.02,39.69-59.37S414.19,168.64,386.84,174.07z"/>
<path class="st3" d="M640.5,547.84c59.83,28.49,131.47,10.16,170.27-43.56"/>
<path class="st3" d="M636,550.64c18.74,9.39,39.33,14.51,60.29,14.98c38.67,0.88,76.01-14.09,103.38-41.41
	c6.17-6.16,11.66-12.75,16.6-19.94"/>
<line class="st3" x1="676.26" y1="798.13" x2="676.26" y2="857.71"/>
<line class="st3" x1="640.5" y1="508.77" x2="813.05" y2="508.77"/>
<line class="st3" x1="636.27" y1="504.27" x2="816.28" y2="504.27"/>
<line class="st3" x1="608.53" y1="344.75" x2="817.09" y2="344.75"/>
<path class="st3" d="M307.13,240.26c-12.54,44.27-53.93,74.07-99.89,71.91c-8.21-0.39-16.46,0.12-24.54,1.54
	c-7.26,1.27-14.39,3.28-21.27,5.94c-14.24,5.51-27.38,13.82-38.43,24.36c-5.78,5.51-10.98,11.62-15.49,18.21
	c-4.54,6.62-8.38,13.72-11.45,21.14c-3.33,8.08-5.75,16.53-7.08,25.17c-0.56,3.62-0.92,7.26-1.1,10.92c-0.17,3.66-0.15,7.34,0.06,11
	c0.48,8.2,1.91,16.35,4.32,24.21c2.43,7.96,5.85,15.63,10.31,22.66c2.67,4.21,5.72,8.19,9.11,11.85c1.31,1.41,2.66,2.77,4.06,4.1
	c1.74,1.65,3.54,3.24,5.38,4.78c3.83,3.2,7.85,6.17,11.95,9.01c3.14,2.18,6.33,4.29,9.54,6.37c7.38,4.78,14.86,9.4,22.13,14.34
	c5,3.4,9.91,6.94,14.63,10.72c7.22,5.77,14.02,12.07,20.29,18.87c8.98,9.75,16.86,20.51,23.34,32.08
	c3.24,5.79,6.13,11.78,8.62,17.93c2.41,5.94,4.45,12.02,6.11,18.2c1.56,5.81,2.79,11.71,3.63,17.67c0.8,5.62,1.26,11.28,1.33,16.96
	c0.08,6.28-0.33,12.57-1.29,18.78c-0.36,2.34-0.8,4.66-1.32,6.97c-0.62,2.73-1.34,5.43-2.17,8.1c-0.99,3.2-2.13,6.36-3.39,9.47
	c-1.83,4.52-3.92,8.92-6.19,13.23c-2.16,4.12-4.49,8.16-6.91,12.13c-2.3,3.78-4.68,7.51-7.1,11.22c-0.46,0.7-0.92,1.39-1.37,2.09
	c-3.42,5.19-6.92,10.34-10.36,15.52c-1.92,2.88-3.82,5.78-5.69,8.7c-2.04,3.2-4.04,6.42-5.97,9.69c-3.29,5.54-6.4,11.2-9.25,16.98
	c-2.74,5.58-5.24,11.29-7.33,17.14c-2.02,5.66-3.66,11.47-4.79,17.37c-1.12,5.84-1.75,11.78-1.86,17.72
	c-0.14,7.34,0.51,14.69,1.72,21.93c1.04,6.19,2.5,12.31,4.33,18.31c1.91,6.27,4.24,12.41,6.91,18.4
	c5.62,12.58,12.8,24.45,21.45,35.17c7.77,9.63,16.73,18.32,26.74,25.58c9.98,7.24,21.01,13.06,32.58,17.35
	c11.45,4.24,23.43,7,35.57,8.24"/>
<line class="st3" x1="492.96" y1="313.06" x2="504.37" y2="319.47"/>
<line class="st3" x1="531.83" y1="334.89" x2="542.37" y2="340.82"/>
<path class="st3" d="M529.68,193.43c-3.14-12.1-7.96-22.94-14.84-33.38"/>
<path class="st3" d="M559.85,399.6c-0.72,4.16-1.26,8.33-1.61,12.53"/>
<path class="st3" d="M585.08,340.25c-9.94,13.59-16.95,27.84-21.66,44"/>
<path class="st3" d="M608.71,471.46c-11.95-23.45-29.23-43.77-50.46-59.33"/>
<line class="st3" x1="383.95" y1="764.41" x2="376.24" y2="768.87"/>
<line class="st3" x1="362.99" y1="704.86" x2="366.44" y2="698.89"/>
<line class="st3" x1="348.38" y1="739.16" x2="351.14" y2="734.39"/>
<line class="st3" x1="344.41" y1="737.04" x2="347.24" y2="732.14"/>
<line class="st3" x1="609.23" y1="340.25" x2="813.93" y2="340.25"/>
<line class="st3" x1="416.98" y1="740.15" x2="408.98" y2="744.77"/>
<path class="st3" d="M174.98,535.04c20.4,3.63,41.39,1.73,60.81-5.5c-0.52-1.41-1.05-2.81-1.57-4.22c-2.26,0.84-4.54,1.61-6.84,2.3
	c-6.66,2-13.52,3.38-20.44,4.1s-13.91,0.8-20.84,0.23s-13.82-1.8-20.52-3.65"/>
<line class="st3" x1="629.42" y1="610.3" x2="621.01" y2="607.12"/>
<path class="st3" d="M621.01,607.12c3.57-9.75,6.21-19.63,7.98-29.86"/>
<path class="st3" d="M629.42,610.3c2.47-6.73,4.52-13.55,6.18-20.52"/>
<line class="st3" x1="611.01" y1="647.04" x2="603.47" y2="642.12"/>
<path class="st3" d="M611.06,457.1c-12.16-20.41-28.31-38.17-47.48-52.21"/>
<path class="st3" d="M617.14,468.18c-1.12-2.22-2.28-4.42-3.49-6.59"/>
<polyline class="st3" points="611.06,457.1 624.36,457.1 624.36,371.77 572.55,371.77 "/>
<polyline class="st3" points="613.65,461.6 628.86,461.6 628.86,367.27 574.49,367.27 "/>
<line class="st3" x1="587.38" y1="344.75" x2="593.49" y2="344.75"/>
<line class="st3" x1="585.08" y1="340.25" x2="593.49" y2="340.25"/>
<path class="st3" d="M587.38,344.75c-9.02,12.77-15.43,26.12-19.76,41.15"/>
<path class="st3" d="M534.03,192.3c0.18,0.29,0.36,0.58,0.54,0.87c4.88,7.83,10.05,15.49,15.62,22.84
	c4.87,6.41,10.05,12.58,15.67,18.34c4.98,5.1,10.3,9.87,16.02,14.12c5.25,3.9,10.84,7.36,16.7,10.25
	c5.61,2.77,11.49,5.02,17.51,6.74c0.62,0.18,1.24,0.35,1.87,0.52c-49.26,25.43-83.84,72.39-93.5,126.99
	c2.95,0.52,5.91,1.05,8.86,1.57c10.07-56.91,48.55-104.71,102-126.68"/>
<path class="st3" d="M564.23,400.73c-0.24,1.38-0.45,2.77-0.65,4.15"/>
<line class="st3" x1="632.27" y1="496.1" x2="636.27" y2="504.27"/>
<rect x="674.01" y="627.17" class="st3" width="4.5" height="170.96"/>
<path class="st3" d="M603.47,642.12c-19.3,29.58-47.21,52.53-79.96,65.75c-0.03,3.2,0.04,6.39,0.21,9.59
	c35.79-13.68,66.34-38.32,87.28-70.42"/>
<line class="st3" x1="606.51" y1="653.62" x2="606.51" y2="846.23"/>
<line class="st3" x1="611.01" y1="847.79" x2="611.01" y2="647.04"/>
<line class="st3" x1="347.24" y1="732.14" x2="351.14" y2="734.39"/>
<line class="st3" x1="628.54" y1="497.55" x2="636" y2="512.8"/>
<line class="st3" x1="640.5" y1="508.77" x2="640.5" y2="512.8"/>
<line class="st3" x1="640.5" y1="527.89" x2="640.5" y2="547.84"/>
<line class="st3" x1="636" y1="528.55" x2="636" y2="545.59"/>
<line class="st3" x1="636" y1="545.59" x2="636" y2="550.64"/>
<line class="st3" x1="636" y1="335.03" x2="636" y2="340.25"/>
<path class="st2" d="M179.27,371.09c-23.56,4.68-38.86,27.57-34.18,51.13s27.57,38.86,51.13,34.18
	c23.56-4.68,38.86-27.57,34.18-51.13C225.72,381.72,202.83,366.41,179.27,371.09z"/>
<path class="st3" d="M514.84,160.05c-28.42-37.99-77.47-54.31-122.99-40.91s-77.9,53.69-81.21,101.03
	c-0.48,6.85-1.63,13.48-3.51,20.09"/>
<line class="st3" x1="207.98" y1="749.67" x2="248.35" y2="772.98"/>
<line class="st3" x1="374.81" y1="693.4" x2="370.31" y2="701.19"/>
<line class="st3" x1="359.25" y1="401.3" x2="364.31" y2="408.74"/>
<path class="st3" d="M364.31,408.74c-2.46,1.67-4.87,3.4-7.23,5.2c-2.36,1.79-4.67,3.65-6.93,5.57c-2.27,1.92-4.48,3.9-6.65,5.94
	c-2.16,2.04-4.26,4.13-6.31,6.27s-4.04,4.34-5.97,6.6s-3.81,4.56-5.62,6.92c-1.81,2.35-3.56,4.74-5.23,7.18
	c-0.84,1.22-1.66,2.45-2.46,3.69c-0.83,1.28-1.63,2.57-2.44,3.86c-0.97,1.54-1.95,3.08-2.86,4.66c-0.59,1.03-1.16,2.07-1.71,3.12
	c-1.12,2.13-2.17,4.3-3.2,6.48c-1.37,2.9-2.69,5.82-3.99,8.76c-32.58,78.03-2.14,168.12,71.09,210.41"/>
<path class="st3" d="M359.25,401.3c-1.88,1.28-3.73,2.59-5.56,3.94s-3.63,2.74-5.41,4.16s-3.52,2.87-5.24,4.36s-3.41,3.01-5.07,4.56
	s-3.29,3.13-4.89,4.75c-1.6,1.61-3.17,3.26-4.71,4.93c-1.54,1.67-3.04,3.38-4.51,5.11c-1.47,1.73-2.91,3.49-4.31,5.28
	s-2.77,3.6-4.11,5.44s-2.64,3.7-3.89,5.6c-1.26,1.89-2.46,3.82-3.68,5.74c-1.21,1.93-2.43,3.86-3.57,5.88
	c-1.14,2.02-2.21,4.14-3.48,6.74c-1.27,2.6-2.73,5.68-5.36,11.63c-34.38,82.23-2.32,177.19,74.86,221.75"/>
<line class="st3" x1="212.98" y1="742.17" x2="252.35" y2="764.9"/>
<line class="st3" x1="362.99" y1="704.86" x2="366.89" y2="707.11"/>
<path class="st3" d="M635.6,589.78c33.78,13.01,70.73,15.4,105.9,6.85"/>
<path class="st3" d="M628.99,577.26c36.73,16.81,78.16,20.01,117.02,8.87"/>
<polyline class="st3" points="741.51,596.63 741.51,760.09 746.01,760.09 746.01,586.13 "/>
<line class="st3" x1="366.89" y1="707.11" x2="370.31" y2="701.19"/>
<line class="st3" x1="418.82" y1="744.28" x2="411.23" y2="748.66"/>
<line class="st3" x1="381.7" y1="760.52" x2="374.11" y2="764.9"/>
<path class="st3" d="M635.34,268.02c-0.23-0.57-0.47-1.14-0.7-1.71c-1.01-2.22-2.03-4.44-3.04-6.66
	c-26.86-4.26-46.14-16.75-63.88-36.5c-16.15-17.98-30.23-41.5-41.5-62.55c-28.93-43.86-82.6-64.4-133.42-51.06
	s-87.48,57.59-91.14,110c-3.4,48.79-45.14,85.92-93.99,83.64c-9.22-0.44-18.5,0.18-27.58,1.85c-8.11,1.49-16.05,3.83-23.7,6.93
	c-16.59,6.72-31.73,16.99-44.04,29.97c-12.33,13.01-21.81,28.75-27.52,45.75c-2.63,7.84-4.46,15.95-5.37,24.16
	c-0.92,8.23-0.92,16.58-0.02,24.82c1.04,9.56,3.29,18.99,6.76,27.96c3.41,8.82,8,17.19,13.81,24.65c2.46,3.17,5.15,6.17,8,9
	c3.84,3.8,7.98,7.29,12.27,10.57c4.38,3.35,8.91,6.49,13.5,9.53c9.34,6.18,18.94,11.96,28.15,18.34c4.58,3.17,9.06,6.49,13.38,10.01
	c7.47,6.1,14.44,12.8,20.78,20.07c9.02,10.35,16.77,21.81,22.83,34.13c5.54,11.27,9.68,23.24,12.18,35.55
	c2.2,10.79,3.14,21.83,2.37,32.82c-0.28,4.03-0.8,8.05-1.58,12.01c-1.02,5.24-2.5,10.38-4.34,15.38
	c-3.28,8.89-7.71,17.35-12.57,25.5c-2.13,3.58-4.34,7.1-6.6,10.6c-6.88,10.63-14.19,21.02-20.91,31.77
	c-3.71,5.93-7.25,11.97-10.54,18.15c-3.23,6.07-6.21,12.27-8.78,18.64c-2.52,6.25-4.65,12.67-6.22,19.23
	c-1.57,6.52-2.59,13.18-2.99,19.87c-0.4,6.78-0.17,13.6,0.56,20.36c1.5,13.82,5.1,27.36,10.25,40.28
	c5.66,14.23,13.19,27.69,22.45,39.89c8.29,10.92,17.95,20.82,28.85,29.1c10.9,8.28,23.03,14.95,35.82,19.85
	c12.6,4.82,25.85,7.93,39.27,9.31"/>
<line class="st3" x1="534.03" y1="330.97" x2="544.53" y2="336.87"/>
<line class="st3" x1="496.72" y1="310.01" x2="506.57" y2="315.55"/>
<line class="st3" x1="466.61" y1="679.7" x2="468.06" y2="679.65"/>
<line class="st3" x1="520.3" y1="323.26" x2="520.31" y2="323.26"/>
<line class="st3" x1="640.5" y1="335.03" x2="640.5" y2="340.25"/>
<path class="st3" d="M817.09,344.75c-39.81-59.14-117.35-79.5-181.09-47.57c0,7.36,0,14.73,0,22.09"/>
<path class="st3" d="M808.31,340.25c-39.45-51.3-109.38-68.08-167.81-40.26c0,6.65,0,13.29,0,19.94"/>
<line class="st4" x1="635.34" y1="267.84" x2="636" y2="297.19"/>
<line class="st4" x1="518.01" y1="665.95" x2="501.9" y2="633.76"/>
<line class="st4" x1="525.17" y1="662.09" x2="507.11" y2="630.95"/>
<line class="st4" x1="532.07" y1="657.8" x2="512.13" y2="627.83"/>
<line class="st4" x1="538.7" y1="653.09" x2="516.96" y2="624.4"/>
<line class="st4" x1="545.03" y1="647.97" x2="521.56" y2="620.68"/>
<line class="st4" x1="551.03" y1="642.48" x2="525.93" y2="616.68"/>
<line class="st4" x1="556.69" y1="636.64" x2="530.04" y2="612.43"/>
<line class="st4" x1="561.96" y1="630.45" x2="533.88" y2="607.93"/>
<line class="st4" x1="566.86" y1="623.95" x2="537.44" y2="603.2"/>
<line class="st4" x1="571.34" y1="617.16" x2="540.7" y2="598.26"/>
<line class="st4" x1="575.39" y1="610.11" x2="543.65" y2="593.13"/>
<line class="st4" x1="579.01" y1="602.83" x2="546.28" y2="587.83"/>
<line class="st4" x1="582.17" y1="595.33" x2="548.58" y2="582.38"/>
<line class="st4" x1="588.75" y1="523.35" x2="553.37" y2="530"/>
<line class="st4" x1="590" y1="531.39" x2="554.28" y2="535.85"/>
<line class="st4" x1="590.76" y1="539.48" x2="554.84" y2="541.74"/>
<line class="st4" x1="591.02" y1="547.61" x2="555.02" y2="547.66"/>
<line class="st4" x1="590.78" y1="555.74" x2="554.85" y2="553.57"/>
<line class="st4" x1="590.04" y1="563.84" x2="554.31" y2="559.47"/>
<line class="st4" x1="588.81" y1="571.88" x2="553.41" y2="565.32"/>
<line class="st4" x1="635.34" y1="579.99" x2="636" y2="550.64"/>
<line class="st4" x1="702.57" y1="255.19" x2="703.18" y2="282.21"/>
<line class="st4" x1="695.82" y1="255.21" x2="696.43" y2="282.2"/>
<line class="st4" x1="689.07" y1="255.49" x2="689.68" y2="282.51"/>
<line class="st4" x1="682.33" y1="256.04" x2="682.94" y2="283.14"/>
<line class="st4" x1="675.6" y1="256.87" x2="676.22" y2="284.09"/>
<line class="st4" x1="668.87" y1="257.97" x2="669.49" y2="285.38"/>
<line class="st4" x1="702.57" y1="592.64" x2="703.18" y2="565.62"/>
<line class="st4" x1="586.99" y1="515.41" x2="566.59" y2="520.56"/>
<path class="st4" d="M501.9,633.76c38.4-19.21,59.4-61.56,51.47-103.76"/>
<line class="st4" x1="695.82" y1="592.62" x2="696.43" y2="565.63"/>
<line class="st4" x1="655.44" y1="261.02" x2="656.07" y2="288.98"/>
<line class="st4" x1="648.73" y1="262.99" x2="649.37" y2="291.33"/>
<line class="st4" x1="678.51" y1="674.26" x2="741.51" y2="674.26"/>
<line class="st4" x1="689.07" y1="592.34" x2="689.68" y2="565.32"/>
<line class="st4" x1="682.33" y1="591.79" x2="682.94" y2="564.69"/>
<line class="st4" x1="675.6" y1="590.96" x2="676.22" y2="563.74"/>
<line class="st4" x1="678.51" y1="667.51" x2="741.51" y2="667.51"/>
<line class="st4" x1="678.51" y1="660.76" x2="741.51" y2="660.76"/>
<line class="st4" x1="642.03" y1="265.26" x2="642.68" y2="294.05"/>
<line class="st4" x1="678.51" y1="654.01" x2="741.51" y2="654.01"/>
<line class="st4" x1="668.87" y1="589.86" x2="669.49" y2="562.45"/>
<line class="st4" x1="662.15" y1="588.48" x2="662.78" y2="560.82"/>
<line class="st4" x1="655.44" y1="586.81" x2="656.07" y2="558.85"/>
<line class="st4" x1="648.73" y1="584.84" x2="649.37" y2="556.5"/>
<line class="st4" x1="642.03" y1="582.58" x2="642.68" y2="553.78"/>
<line class="st4" x1="678.51" y1="647.26" x2="741.51" y2="647.26"/>
<line class="st4" x1="746.01" y1="733.09" x2="818.94" y2="733.09"/>
<line class="st4" x1="746.01" y1="739.84" x2="817.57" y2="739.84"/>
<line class="st4" x1="746.01" y1="746.59" x2="815.87" y2="746.59"/>
<line class="st4" x1="746.01" y1="753.34" x2="813.81" y2="753.34"/>
<line class="st4" x1="746.01" y1="760.09" x2="811.38" y2="760.09"/>
<line class="st4" x1="662.15" y1="259.35" x2="662.78" y2="287.01"/>
<rect x="249.34" y="572.19" transform="matrix(0.9633 -0.2683 0.2683 0.9633 -148.963 90.3507)" class="st5" width="13.5" height="36"/>
<rect x="268.65" y="641.55" transform="matrix(0.9633 -0.2683 0.2683 0.9633 -166.8652 98.0758)" class="st5" width="13.5" height="36"/>
<rect x="258.95" y="606.88" transform="matrix(0.9634 -0.2682 0.2682 0.9634 -157.8679 94.1609)" class="st6" width="13.5" height="36"/>
<rect x="130.51" y="343.27" class="st7" width="13.5" height="36"/>
<rect x="175.04" y="325.56" class="st7" width="13.5" height="36"/>
<rect x="219.58" y="462.24" class="st7" width="13.5" height="36"/>
<rect x="175.04" y="479.96" class="st7" width="13.5" height="36"/>
<rect x="130.51" y="462.24" class="st7" width="13.5" height="36"/>
<rect x="99.29" y="420.76" class="st7" width="13.5" height="36"/>
<rect x="99.29" y="384.76" class="st7" width="13.5" height="36"/>
<path class="st7" d="M486.72,372.83c-30.29-4.82-61.3-1.69-90.02,9.07c-2.11-5.62-4.21-11.24-6.32-16.85
	c31.63-11.86,65.81-15.3,99.17-9.99C488.61,360.98,487.66,366.91,486.72,372.83z"/>
<path class="st7" d="M541.5,709.54c0.09,47.04,24.74,90.62,65,114.94"/>
<path class="st7" d="M523.72,717.45c2.91,54.24,34.44,102.85,82.78,127.63"/>
<rect x="683.25" y="448.72" class="st7" width="9" height="9"/>
<rect x="683.25" y="460.35" class="st7" width="9" height="9"/>
<rect x="683.25" y="471.99" class="st7" width="9" height="9"/>
<rect x="699" y="471.99" class="st7" width="9" height="9"/>
<rect x="699" y="460.35" class="st7" width="9" height="9"/>
<rect x="699" y="448.72" class="st7" width="9" height="9"/>
<rect x="699" y="437.08" class="st7" width="9" height="9"/>
<rect x="699" y="425.44" class="st7" width="9" height="9"/>
<rect x="699" y="413.81" class="st7" width="9" height="9"/>
<rect x="699" y="402.17" class="st7" width="9" height="9"/>
<rect x="699" y="390.54" class="st7" width="9" height="9"/>
<rect x="699" y="378.9" class="st7" width="9" height="9"/>
<rect x="699" y="367.27" class="st7" width="9" height="9"/>
<rect x="714.75" y="471.99" class="st7" width="9" height="9"/>
<rect x="714.75" y="460.35" class="st7" width="9" height="9"/>
<line class="st7" x1="405.31" y1="874.13" x2="423.87" y2="843.29"/>
<polygon class="st7" points="265.2,337.88 294.52,317 323.85,296.11 334.29,310.78 304.96,331.66 275.64,352.54 "/>
<rect x="683.25" y="437.08" class="st7" width="9" height="9"/>
<rect x="404.44" y="123.14" class="st7" width="13.5" height="36"/>
<rect x="404.44" y="277.54" class="st7" width="13.5" height="36"/>
<rect x="489.2" y="182.34" class="st7" width="13.5" height="36"/>
<rect x="489.2" y="218.34" class="st7" width="13.5" height="36"/>
<rect x="453.48" y="140.86" class="st7" width="13.5" height="36"/>
<rect x="453.48" y="259.83" class="st7" width="13.5" height="36"/>
<rect x="205.08" y="840.72" transform="matrix(0.8568 -0.5156 0.5156 0.8568 -412.4377 232.1724)" class="st5" width="13.5" height="36"/>
<rect x="396.57" y="851.92" transform="matrix(0.5156 -0.8568 0.8568 0.5156 -534.9127 771.1407)" class="st5" width="36" height="13.5"/>
<rect x="171.35" y="869.99" transform="matrix(0.866 -0.5 0.5 0.866 -414.2186 207.643)" class="st5" width="18" height="13.5"/>
<rect x="216.98" y="944.39" transform="matrix(0.5 -0.866 0.866 0.5 -710.7174 671.2617)" class="st5" width="18" height="13.5"/>
<rect x="187.93" y="909.51" transform="matrix(0.7073 -0.7069 0.7069 0.7073 -590.0724 407.3911)" class="st8" width="18" height="13.5"/>
<rect x="392.25" y="939.67" transform="matrix(0.866 -0.5 0.5 0.866 -420.8847 326.6068)" class="st5" width="13.5" height="18"/>
<rect x="421.04" y="905.59" transform="matrix(0.7069 -0.7073 0.7073 0.7069 -521.5091 570.6395)" class="st8" width="13.5" height="18"/>
<rect x="437.42" y="866.67" transform="matrix(0.5 -0.866 0.866 0.5 -536.2664 822.486)" class="st5" width="13.5" height="18"/>
<rect x="714.75" y="448.72" class="st7" width="9" height="9"/>
<rect x="235.55" y="832.93" transform="matrix(0.866 -0.5 0.5 0.866 -387.084 234.7768)" class="st5" width="18" height="13.5"/>
<rect x="264.55" y="861.98" transform="matrix(0.5 -0.866 0.866 0.5 -615.563 671.2586)" class="st5" width="18" height="13.5"/>
<rect x="346.14" y="859.67" transform="matrix(0.866 -0.5 0.5 0.866 -387.0637 292.835)" class="st5" width="13.5" height="18"/>
<rect x="375.14" y="830.71" transform="matrix(0.5 -0.866 0.866 0.5 -536.2633 750.5677)" class="st5" width="13.5" height="18"/>
<rect x="295.23" y="917" class="st7" width="36" height="13.5"/>
<rect x="358.17" y="901.56" transform="matrix(0.839 -0.5441 0.5441 0.839 -433.6601 350.901)" class="st5" width="36" height="13.5"/>
<rect x="245.08" y="887.46" transform="matrix(0.5611 -0.8278 0.8278 0.5611 -638.9734 605.8867)" class="st9" width="13.5" height="36"/>
<rect x="714.75" y="437.08" class="st7" width="9" height="9"/>
<rect x="714.75" y="425.44" class="st7" width="9" height="9"/>
<rect x="714.75" y="413.81" class="st7" width="9" height="9"/>
<rect x="714.75" y="402.17" class="st7" width="9" height="9"/>
<rect x="714.75" y="390.54" class="st7" width="9" height="9"/>
<rect x="714.75" y="378.9" class="st7" width="9" height="9"/>
<rect x="714.75" y="367.27" class="st7" width="9" height="9"/>
<rect x="683.25" y="425.44" class="st7" width="9" height="9"/>
<rect x="683.25" y="413.81" class="st7" width="9" height="9"/>
<rect x="730.5" y="471.99" class="st7" width="9" height="9"/>
<rect x="730.5" y="460.35" class="st7" width="9" height="9"/>
<rect x="730.5" y="448.72" class="st7" width="9" height="9"/>
<rect x="730.5" y="437.08" class="st7" width="9" height="9"/>
<rect x="730.5" y="425.44" class="st7" width="9" height="9"/>
<rect x="730.5" y="413.81" class="st7" width="9" height="9"/>
<rect x="730.5" y="402.17" class="st7" width="9" height="9"/>
<rect x="683.25" y="402.17" class="st7" width="9" height="9"/>
<rect x="730.5" y="390.54" class="st7" width="9" height="9"/>
<rect x="730.5" y="378.9" class="st7" width="9" height="9"/>
<rect x="683.25" y="390.54" class="st7" width="9" height="9"/>
<rect x="730.5" y="367.27" class="st7" width="9" height="9"/>
<rect x="746.25" y="471.99" class="st7" width="9" height="9"/>
<rect x="683.25" y="378.9" class="st7" width="9" height="9"/>
<rect x="683.25" y="367.27" class="st7" width="9" height="9"/>
<rect x="667.5" y="367.27" class="st7" width="9" height="9"/>
<rect x="667.5" y="378.9" class="st7" width="9" height="9"/>
<rect x="667.5" y="390.54" class="st7" width="9" height="9"/>
<rect x="667.5" y="402.17" class="st7" width="9" height="9"/>
<rect x="746.25" y="460.35" class="st7" width="9" height="9"/>
<rect x="746.25" y="448.72" class="st7" width="9" height="9"/>
<rect x="746.25" y="437.08" class="st7" width="9" height="9"/>
<rect x="746.25" y="425.44" class="st7" width="9" height="9"/>
<rect x="746.25" y="413.81" class="st7" width="9" height="9"/>
<rect x="746.25" y="402.17" class="st7" width="9" height="9"/>
<rect x="746.25" y="390.54" class="st7" width="9" height="9"/>
<path class="st7" d="M455.99,805.08c4-2.31,8-4.62,12-6.93c-7.72-24.4-21.04-46.66-38.91-64.99c-4.03,2.33-8.07,4.66-12.1,6.98"/>
<rect x="746.25" y="378.9" class="st7" width="9" height="9"/>
<rect x="651.75" y="367.27" class="st7" width="9" height="9"/>
<rect x="746.25" y="367.27" class="st7" width="9" height="9"/>
<line class="st7" x1="202.59" y1="843.29" x2="221.15" y2="874.13"/>
<line class="st7" x1="236.89" y1="895.37" x2="266.69" y2="915.57"/>
<line class="st7" x1="295.23" y1="923.75" x2="331.23" y2="923.75"/>
<line class="st7" x1="361.1" y1="918.08" x2="391.3" y2="898.49"/>
<polyline class="st4" points="858.46,367.27 801.81,367.27 801.81,480.56 858.46,480.56 "/>
<rect x="651.75" y="378.9" class="st7" width="9" height="9"/>
<rect x="651.75" y="390.54" class="st7" width="9" height="9"/>
<rect x="651.75" y="402.17" class="st7" width="9" height="9"/>
<rect x="651.75" y="413.81" class="st7" width="9" height="9"/>
<rect x="651.75" y="425.44" class="st7" width="9" height="9"/>
<rect x="651.75" y="437.08" class="st7" width="9" height="9"/>
<rect x="651.75" y="448.72" class="st7" width="9" height="9"/>
<rect x="651.75" y="460.35" class="st7" width="9" height="9"/>
<rect x="651.75" y="471.99" class="st7" width="9" height="9"/>
<rect x="667.5" y="471.99" class="st7" width="9" height="9"/>
<rect x="667.5" y="460.35" class="st7" width="9" height="9"/>
<rect x="667.5" y="448.72" class="st7" width="9" height="9"/>
<rect x="667.5" y="437.08" class="st7" width="9" height="9"/>
<rect x="667.5" y="425.44" class="st7" width="9" height="9"/>
<rect x="667.5" y="413.81" class="st7" width="9" height="9"/>
<path class="st10" d="M848.53,503.08c-7.26,13.67-15.98,25.79-26.64,37.01c-25.79,27.17-32.06,67.47-15.73,101.18
	c4.22,8.71,7.58,17.83,10.05,27.19c1.54,5.82,2.73,11.72,3.56,17.68c1.53,10.94,1.85,22.06,0.95,33.07
	c-0.77,9.46-2.45,18.84-5.02,27.96c-1.32,4.66-2.87,9.26-4.65,13.76c-1.79,4.51-3.82,8.93-6.05,13.24
	c-2.24,4.31-4.68,8.52-7.34,12.59c-5.53,8.47-11.95,16.36-19.1,23.5c-6.85,6.83-14.37,12.97-22.34,18.44
	c-4.61,3.16-9.37,6.09-14.26,8.8c-4.26,2.36-8.62,4.54-13.05,6.54c-6.09,2.75-12.33,5.15-18.7,7.15c-9.26,2.9-18.79,4.94-28.43,5.94
	c-9.66,1-19.43,0.96-29.1,0.04c-9.14-0.88-18.2-2.54-27.06-4.91c-4.79-1.28-9.53-2.76-14.23-4.35
	c-10.61-3.59-21.02-7.72-31.65-11.28c-9.38-3.14-18.93-5.83-28.68-7.43c-1.04-0.17-2.09-0.33-3.13-0.47"/>
<path class="st10" d="M381.84,800.05c0-37.89-30.72-68.61-68.61-68.61s-68.61,30.72-68.61,68.61s30.72,68.62,68.61,68.62
	S381.84,837.94,381.84,800.05z"/>
<path class="st10" d="M383.53,800.05c0-38.82-31.47-70.3-70.3-70.3s-70.31,31.47-70.31,70.3s31.47,70.3,70.3,70.3
	S383.53,838.87,383.53,800.05z"/>
<path class="st10" d="M217.67,444.12c22.2,6.36,45.34-6.48,51.7-28.67s-6.48-45.34-28.68-51.7c-22.19-6.36-45.34,6.48-51.7,28.68
	C182.64,414.62,195.48,437.76,217.67,444.12z"/>
<path class="st10" d="M217.2,445.74c31.96,9.15,61.95-19.47,54.3-51.82c-7.65-32.36-47.32-44.51-71.78-21.98
	C174.75,394.94,184.57,436.4,217.2,445.74z"/>
<path class="st10" d="M386.84,174.07c-27.36,5.43-45.13,32.02-39.69,59.37c5.43,27.36,32.01,45.13,59.37,39.69
	c27.36-5.43,45.13-32.02,39.69-59.37S414.19,168.64,386.84,174.07z"/>
<path class="st10" d="M486.93,842.15c-0.48,0.34-0.96,0.68-1.44,1.03c-3.86,2.82-7.49,5.96-10.81,9.4c-2.75,2.84-5.29,5.88-7.57,9.1
	c-1.57,2.21-3.01,4.51-4.35,6.86c-1.02,1.79-1.98,3.62-2.89,5.47c0.18-1.55,0.37-3.1,0.55-4.64c7.09-47.55-9.06-95.61-43.44-129.22"
	/>
<line class="st10" x1="534.03" y1="192.3" x2="529.68" y2="193.43"/>
<path class="st10" d="M434.23,335.15c33-3.65,62.79-21.45,81.63-48.78"/>
<path class="st10" d="M515.86,286.36c18.84-27.34,24.87-61.51,16.53-93.64"/>
<path class="st10" d="M386.51,172.42c-28.27,5.62-46.63,33.08-41.02,61.36c5.62,28.27,33.08,46.63,61.36,41.02
	c28.27-5.62,46.63-33.09,41.02-61.36C442.25,185.17,414.78,166.8,386.51,172.42z"/>
<path class="st10" d="M434.42,336.83c70.3-7.77,117.38-76.07,99.61-144.53"/>
<path class="st10" d="M856.76,489.65c17.58-42.06,17.58-89.4,0-131.46"/>
<path class="st10" d="M547.93,830.44c3.47,0.49,6.92,1.13,10.34,1.88c5.86,1.29,11.65,2.92,17.37,4.75
	c6.37,2.04,12.66,4.34,18.94,6.63c6.48,2.37,12.95,4.74,19.51,6.88c2.86,0.93,5.73,1.81,8.62,2.63c2.9,0.82,5.82,1.56,8.75,2.23
	c5.94,1.35,11.94,2.38,17.98,3.08c12.08,1.39,24.34,1.41,36.38-0.18c12.05-1.59,23.89-4.79,35.23-9.19
	c5.68-2.21,11.24-4.71,16.66-7.49c5.38-2.76,10.63-5.79,15.71-9.08c10.18-6.6,19.67-14.25,28.11-22.95
	c4.22-4.36,8.18-8.98,11.83-13.82c3.67-4.87,7.02-9.96,10.06-15.24c3.04-5.28,5.75-10.75,8.11-16.37
	c2.35-5.61,4.34-11.36,5.97-17.21c3.25-11.71,5.02-23.81,5.35-35.96c0.16-6.04-0.03-12.09-0.59-18.1
	c-0.56-6.06-1.5-12.08-2.78-18.03c-2.56-11.86-6.51-23.43-11.81-34.35c-16.02-33.08-9.87-72.62,15.44-99.28
	c10.98-11.56,19.92-24.06,27.33-38.18"/>
<path class="st10" d="M855.26,358.99c17.32,41.55,17.32,88.3,0,129.84"/>
<path class="st10" d="M850.44,344.75C809.56,266.8,716.03,232.8,634.63,266.3"/>
<path class="st10" d="M635.28,267.87c73.62-30.3,158.4-5.03,203.41,60.63c3.59,5.24,6.86,10.64,9.84,16.25"/>
<line class="st10" x1="516.43" y1="830.99" x2="516.44" y2="830.99"/>
<path class="st10" d="M466.51,681.39c0.62-0.04,1.24-0.08,1.87-0.12"/>
<path class="st10" d="M499.32,675.36c64.48-20.44,103.58-85.78,91.1-152.26c-12.48-66.48-72.6-113.2-140.1-108.88
	c-67.51,4.33-121.17,58.35-125.05,125.88s43.24,127.34,109.8,139.38"/>
<path class="st10" d="M498.99,673.69c63.6-20.26,102.11-84.78,89.75-150.38c-12.36-65.59-71.69-111.67-138.3-107.41
	c-66.62,4.26-119.59,57.54-123.48,124.18s42.54,125.72,108.22,137.7"/>
<path class="st10" d="M415.53,740.99c34.23,33.26,50.34,80.96,43.29,128.16c-0.38,3.19-0.76,6.38-1.14,9.56
	c-0.02,0.05-0.05,0.1-0.07,0.16c-0.01,0.05-0.03,0.11-0.04,0.17c-7.07,32.35-24.74,61.41-50.2,82.59c-0.01,0.01-0.02,0.02-0.03,0.02
	c-0.01,0.01-0.02,0.02-0.03,0.03c-13.86,12.64-30,22.56-47.75,28.62c-3.92-16.07-19.39-26.55-35.77-24.24
	c-16.38,2.3-28.35,16.65-27.68,33.18c0.57,0.06,1.15,0.12,1.69-0.07c-0.64-16.02,11.21-29.8,27.15-31.55
	c15.93-1.76,30.51,9.12,33.36,24.89c18.63-6.05,35.7-16.39,50.14-29.57c25.75-21.42,43.61-50.81,50.77-83.53
	c1.87-4.23,3.95-8.38,6.36-12.33c0.64-1.04,1.29-2.07,1.98-3.08c2.68-3.96,5.76-7.66,9.13-11.05c3.37-3.38,7.03-6.47,10.94-9.21"/>
<path class="st10" d="M516.4,829.27c-0.22,0.04-0.44,0.09-0.66,0.14"/>
<path class="st10" d="M434.42,336.83c-45.27,5.25-87.65,24.92-120.88,56.11c-0.39-0.41-0.77-0.82-1.16-1.23
	c33.49-31.44,76.21-51.26,121.84-56.55"/>
<g>
	<g>
		<path class="st3" d="M553.37,530c-0.09-0.49-0.19-0.98-0.29-1.47"/>
		<path class="st11" d="M552.44,525.64c-7.53-31.82-30.77-57.76-61.83-68.62c-31.52-11.02-66.44-4.88-92.27,16.06"/>
		<path class="st3" d="M397.2,474.02c-0.38,0.32-0.76,0.64-1.14,0.97c-0.33-0.38-0.65-0.76-0.98-1.14"/>
		<path class="st12" d="M393.11,471.59c-6.21-7.19-12.41-14.38-18.62-21.57"/>
		<path class="st3" d="M373.51,448.88c-0.33-0.38-0.65-0.76-0.98-1.14"/>
	</g>
</g>
<g>
	<g>
		<line class="st3" x1="402.33" y1="428.34" x2="401.43" y2="427.15"/>
		<line class="st13" x1="399.61" y1="424.74" x2="254.92" y2="233.73"/>
		<line class="st3" x1="254.01" y1="232.53" x2="253.1" y2="231.33"/>
	</g>
</g>
<g>
	<g>
		<line class="st3" x1="372.53" y1="447.75" x2="371.63" y2="446.55"/>
		<line class="st14" x1="369.81" y1="444.15" x2="228.84" y2="258.05"/>
		<line class="st3" x1="227.93" y1="256.85" x2="227.02" y2="255.66"/>
	</g>
</g>
<g>
	<g>
		<path class="st3" d="M393.44,1024.1c-0.46,0.18-0.93,0.36-1.4,0.54c0.08-0.5,0.16-0.99,0.22-1.48"/>
		<path class="st15" d="M392.61,1020.16c3.69-40.01-30.93-73.81-71.5-68.22c-41.08,5.66-65.38,48.54-49.86,86.41"/>
		<path class="st3" d="M271.85,1039.74c0.2,0.46,0.41,0.91,0.62,1.37c-0.49-0.1-0.98-0.2-1.47-0.3"/>
		<path class="st16" d="M268.06,1040.17c-8.58-1.92-17.03-4.42-25.28-7.47c-16.16-5.98-31.53-14.12-45.49-24.22
			c-7.01-5.07-13.66-10.64-19.9-16.62c-6.13-5.88-11.87-12.16-17.21-18.77c-5.72-7.09-10.98-14.55-15.74-22.32
			c-4.85-7.92-9.18-16.15-12.97-24.63c-3.57-7.97-6.67-16.15-9.23-24.5c-2.54-8.27-4.57-16.7-6.01-25.22
			c-1.03-6.11-1.76-12.28-2.16-18.47c-0.29-4.47-0.41-8.96-0.33-13.44c0.08-4.56,0.35-9.12,0.82-13.66
			c0.47-4.47,1.13-8.91,1.97-13.33c1.64-8.58,3.99-17.03,6.91-25.26c2.77-7.81,6.07-15.42,9.72-22.86
			c3.45-7.04,7.23-13.91,11.22-20.66c2.21-3.74,4.49-7.44,6.83-11.1c1.8-2.82,3.63-5.63,5.48-8.42c3.92-5.93,7.93-11.8,11.83-17.74
			c2.18-3.32,4.34-6.66,6.41-10.05c1.84-3.01,3.61-6.06,5.27-9.17c1.47-2.76,2.85-5.58,4.06-8.47c0.74-1.77,1.41-3.57,1.99-5.41
			c0.42-1.33,0.8-2.69,1.11-4.05c0.26-1.12,0.48-2.25,0.66-3.39c0.5-3.11,0.71-6.26,0.71-9.41c-0.01-3.32-0.26-6.63-0.69-9.92
			c-0.5-3.74-1.23-7.44-2.17-11.09c-2.13-8.25-5.32-16.22-9.39-23.7c-4.38-8.03-9.77-15.5-15.92-22.27
			c-4.45-4.89-9.29-9.42-14.44-13.57c-3.44-2.77-7.01-5.37-10.66-7.87c-1.94-1.33-3.9-2.62-5.87-3.91
			c-5.47-3.57-11.01-7.04-16.49-10.59c-3.69-2.4-7.36-4.83-10.97-7.35c-5.39-3.75-10.66-7.68-15.7-11.88
			c-5.1-4.25-9.96-8.8-14.46-13.68c-5.64-6.11-10.72-12.73-15.15-19.76c-3.52-5.57-6.64-11.4-9.35-17.41
			c-2.69-5.95-4.98-12.08-6.88-18.32c-3.64-11.96-5.83-24.37-6.53-36.85c-0.63-11.11-0.08-22.29,1.62-33.28
			c2-12.9,5.61-25.55,10.61-37.62c4.5-10.85,10.13-21.22,16.78-30.89c6.65-9.68,14.32-18.67,22.83-26.77
			c8.46-8.05,17.75-15.22,27.67-21.37c4.95-3.07,10.07-5.88,15.31-8.43c4.31-2.1,8.7-4.01,13.17-5.74
			c10.17-3.93,20.72-6.88,31.46-8.76c11.97-2.09,24.17-2.84,36.31-2.27c24.42,1.14,45.29-17.43,46.99-41.82
			c5-71.66,55.12-132.16,124.61-150.4c69.48-18.24,142.86,9.84,182.41,69.81c0.38,0.57,0.76,1.15,1.14,1.72
			c0.32,0.61,0.65,1.21,0.97,1.82c3.92,7.32,7.99,14.55,12.3,21.64c3.55,5.85,7.26,11.6,11.22,17.17
			c3.17,4.47,6.51,8.82,10.09,12.97c2.79,3.24,5.74,6.35,8.9,9.24c2.43,2.23,4.99,4.32,7.71,6.18c2.23,1.52,4.57,2.88,7.01,4.04
			c2.31,1.1,4.7,2.02,7.15,2.75c2.74,0.82,5.54,1.41,8.37,1.86c1.55,0.25,3.1,0.49,4.65,0.74c88.36-23.88,182.16,10.67,233.91,86.16
			c57.47,83.83,48.53,196.42-21.44,270.13c-12.41,13.07-15.43,32.46-7.58,48.68c5.53,11.41,9.94,23.37,13.18,35.64
			c2.01,7.6,3.56,15.31,4.66,23.09c2.01,14.32,2.42,28.85,1.26,43.26c-1.01,12.46-3.21,24.83-6.6,36.86
			c-1.75,6.19-3.81,12.29-6.18,18.27c-4.72,11.93-10.65,23.39-17.67,34.14c-7.29,11.17-15.74,21.58-25.17,31.01
			c-8.86,8.85-18.57,16.84-28.9,23.93c-5.85,4.01-11.89,7.73-18.09,11.17c-12.77,7.07-26.21,12.95-40.14,17.33
			c-12.24,3.85-24.84,6.56-37.59,7.91c-12.7,1.34-25.54,1.34-38.25,0.15c-11.91-1.11-23.71-3.26-35.26-6.35
			c-5.78-1.54-11.5-3.33-17.16-5.24c-5.94-2.01-11.83-4.17-17.72-6.32c-4.57-1.67-9.14-3.35-13.76-4.89
			c-3.76-1.26-7.56-2.43-11.4-3.44c-3.28-0.86-6.6-1.61-9.95-2.15c-2.83-0.46-5.69-0.79-8.56-0.89c-2.22-0.08-4.45-0.03-6.66,0.24
			c-0.92,0.11-1.84,0.26-2.75,0.46c-0.87,0.19-1.72,0.42-2.56,0.69c-1.5,0.48-2.95,1.08-4.36,1.77c-1.94,0.96-3.8,2.08-5.54,3.36
			c-1.7,1.24-3.29,2.62-4.75,4.13c-1.11,1.15-2.14,2.37-3.07,3.68c-1.22,1.73-2.25,3.59-3.2,5.48
			c-9.93,40.13-32.32,76.07-63.96,102.67c-11.07,9.99-23.52,18.81-43.18,26.69"/>
	</g>
</g>
<path class="st4" d="M468.06,679.65c1.28,6.63,2.56,13.26,3.83,19.88c8.54-1.65,14.13-9.9,12.48-18.45
	c1.65,8.54,9.91,14.13,18.45,12.48c-1.28-6.63-2.56-13.26-3.83-19.88"/>
<path class="st4" d="M435.17,677.78c-0.41,6.74-0.82,13.47-1.23,20.21c8.68,0.53,16.15-6.08,16.68-14.76
	c-0.53,8.68,6.08,16.15,14.76,16.68c0.41-6.74,0.82-13.47,1.23-20.21"/>
<path class="st4" d="M855.26,358.99c5.51-2.6,9.02-8.15,9.02-14.24c-5.25,0-10.5,0-15.75,0"/>
<path class="st4" d="M855.26,488.84c5.51,2.6,9.02,8.15,9.02,14.24c-5.25,0-10.5,0-15.75,0"/>
<path class="st4" d="M516.44,831.08c-0.14-6.75-0.27-13.5-0.41-20.25c8.7-0.18,15.89,6.73,16.07,15.43
	c-0.18-8.7,6.73-15.89,15.43-16.07c0.14,6.75,0.27,13.5,0.41,20.25"/>
<path class="st4" d="M608.71,471.46c7.7-2.99,15.41-5.98,23.11-8.98c3.15,8.11-0.87,17.23-8.98,20.38
	c8.11-3.15,17.23,0.87,20.38,8.98c-4.89,1.9-9.79,3.8-14.68,5.7"/>
<path class="st4" d="M381.7,760.52c3.38,5.85,6.75,11.69,10.12,17.54c7.53-4.35,10.11-13.98,5.76-21.52
	c4.35,7.53,13.98,10.11,21.51,5.77c-3.38-5.85-6.75-11.69-10.12-17.54"/>
<path class="st4" d="M347.24,732.14c-4.55-2.62-9.09-5.25-13.64-7.88c4.35-7.53,13.98-10.11,21.51-5.77
	c-7.53-4.35-10.11-13.98-5.76-21.51c4.55,2.62,9.09,5.25,13.64,7.88"/>
<path class="st4" d="M487.67,843.81c-2.75-6.17-5.49-12.33-8.24-18.5c7.95-3.54,17.26,0.03,20.8,7.98
	c-3.54-7.95,0.03-17.26,7.98-20.79c2.75,6.17,5.49,12.33,8.24,18.5"/>
<path class="st4" d="M636,319.28c8.7,0,15.75,7.05,15.75,15.75c-5.25,0-10.5,0-15.75,0"/>
<path class="st4" d="M636,528.55c8.7,0,15.75-7.05,15.75-15.75c-5.25,0-10.5,0-15.75,0"/>
<path class="st4" d="M563.44,384.27c8.61,2.01,13.88,10.72,11.66,19.28c-5.08-1.32-10.17-2.63-15.25-3.95"/>
<path class="st4" d="M609.24,340.11c0,8.7-7.05,15.75-15.75,15.75c0-5.25,0-10.5,0-15.75"/>
<path class="st4" d="M504.37,319.47c3.24-5.78,6.49-11.55,9.74-17.33c7.58,4.26,10.28,13.86,6.02,21.45
	c4.26-7.58,13.86-10.28,21.45-6.02c-3.25,5.78-6.49,11.55-9.73,17.33"/>
<path class="st17" d="M587.38,344.75c-3.52,4.99-6.68,10.16-9.51,15.57c-0.71,1.35-1.39,2.72-2.05,4.09
	c-0.33,0.69-0.66,1.38-0.97,2.07c-0.08,0.17-0.16,0.35-0.24,0.52c-0.04,0.09-0.3,0.26-0.11,0.26c0.1,0,0.21,0,0.31,0
	c0.41,0,0.82,0,1.24,0c3.29,0,6.59,0,9.89,0c13.18,0,26.36,0,39.54,0c0.8,0,1.6,0,2.4,0c0.22,0,0.99-0.21,0.99,0.21
	c0,0.4,0,0.8,0,1.2c0,1.6,0,3.21,0,4.81c0,3.21,0,6.41,0,9.62c0,6.41,0,12.83,0,19.24c0,12.83,0,25.65,0,38.48
	c0,6.72,0,13.45,0,20.17c0,0.11,0,0.21,0,0.32c0,0.1,0.16,0.29-0.03,0.29c-0.21,0-0.42,0-0.63,0c-0.42,0-0.84,0-1.26,0
	c-0.84,0-1.68,0-2.52,0c-1.68,0-3.36,0-5.04,0s-3.36,0-5.04,0c-0.21,0-0.42,0-0.63,0c-0.28,0,0.09,0.26,0.16,0.38
	c0.15,0.28,0.31,0.56,0.46,0.84c0.3,0.56,0.61,1.12,0.91,1.68c0.6,1.13,1.19,2.26,1.76,3.4c0.25,0.5-0.34,0.47-0.65,0.59
	c-0.39,0.15-0.78,0.3-1.18,0.46c-0.78,0.3-1.57,0.61-2.35,0.91c-0.78,0.3-1.57,0.61-2.35,0.91c-0.39,0.15-0.78,0.3-1.18,0.46
	c-0.19,0.08-0.39,0.15-0.59,0.23c-0.18,0.07-0.09-0.17-0.14-0.26s-0.09-0.18-0.14-0.26c-0.72-1.41-1.47-2.81-2.23-4.2
	c-3.08-5.6-6.46-10.98-10.15-16.2c-8.49-11.97-18.13-22.41-29.39-31.82c-1.38-1.15-2.78-2.28-4.19-3.39
	c-0.71-0.55-1.42-1.1-2.13-1.64c-0.36-0.27-0.71-0.54-1.07-0.81c-0.18-0.13-0.36-0.27-0.54-0.4c-0.09-0.07-0.18-0.13-0.27-0.2
	c-0.08-0.06-0.22-0.05-0.2-0.2c0.17-2.06,0.39-4.11,0.65-6.15c0.26-2.05,0.57-4.09,0.92-6.12c0.07-0.4,0.83-0.01,1.03,0.05
	c0.46,0.12,0.92,0.24,1.38,0.36s0.92,0.24,1.38,0.36c0.12,0.03,0.64-0.01,0.6,0.23c-0.04,0.22-0.07,0.43-0.11,0.65
	c-0.14,0.87-0.28,1.74-0.41,2.6c-0.06,0.39-0.22,0.75,0.2,1.06c0.29,0.21,0.58,0.43,0.86,0.64c10.14,7.56,19.22,15.97,27.54,25.5
	c4.14,4.74,8,9.66,11.61,14.81c1.79,2.56,3.52,5.16,5.17,7.81c0.41,0.66,0.82,1.32,1.23,1.99c0.2,0.33,0.4,0.67,0.6,1
	c0.2,0.33,1.08,0.23,1.33,0.23c2.06,0,4.13,0,6.19,0c1.6,0,3.21,0,4.81,0c0.2,0,0.4,0,0.6,0c0.18,0,0.51,0.25,0.51-0.09
	c0-0.4,0-0.8,0-1.2c0-0.8,0-1.6,0-2.41c0-3.21,0-6.41,0-9.62c0-6.41,0-12.83,0-19.24c0-12.83,0-25.65,0-38.48c0-3.24,0-6.49,0-9.73
	c0-0.81,0-1.62,0-2.43c0-0.41,0-0.81,0-1.22c0-0.35,0.32-0.92-0.3-0.92c-1.62,0-3.24,0-4.87,0c-6.49,0-12.97,0-19.46,0
	c-6.49,0-12.98,0-19.46,0c-1.62,0-3.24,0-4.87,0c-0.81,0-1.62,0-2.43,0c-0.19,0-0.39-0.09-0.49,0.16c-0.07,0.17-0.14,0.35-0.21,0.52
	c-0.14,0.35-0.28,0.7-0.42,1.04c-1.1,2.79-2.11,5.61-3.03,8.46c-0.35,1.09-0.68,2.18-1.01,3.27c-0.07,0.23,0.06,0.81-0.34,0.59
	c-0.27-0.15-0.54-0.29-0.81-0.42c-0.55-0.26-1.11-0.49-1.68-0.69c-0.29-0.1-0.57-0.19-0.86-0.27c-0.13-0.04-0.74-0.02-0.66-0.28
	c0.09-0.32,0.19-0.64,0.28-0.96c0.19-0.64,0.39-1.28,0.59-1.92c0.81-2.56,1.69-5.1,2.64-7.61c1.91-5.05,4.1-9.96,6.58-14.76
	c2.47-4.8,5.2-9.42,8.2-13.9c0.75-1.11,1.51-2.22,2.29-3.31c0.19-0.27,0.39-0.54,0.59-0.82c0.23-0.32,0.4-0.63,0.88-0.63
	c1.24,0,2.48,0,3.72,0s2.48,0,3.72,0c0.15,0,0.31,0,0.46,0c0.25,0,0.09,0.24,0.09,0.38c0,0.31,0,0.62,0,0.93c0,0.62,0,1.24,0,1.86
	c0,0.31,0,0.62,0,0.93c0,0.14,0.21,0.41-0.06,0.41c-0.16,0-0.31,0-0.46,0c-0.62,0-1.24,0-1.86,0
	C589.86,344.75,588.62,344.75,587.38,344.75z"/>
<path class="st18" d="M812.89,508.77c-33.13,0-66.25,0-99.37,0c-16.56,0-33.13,0-49.69,0c-4.14,0-8.28,0-12.42,0
	c-2.07,0-4.14,0-6.21,0c-1.04,0-2.07,0-3.11,0c-0.26,0-0.52,0-0.78,0c-0.13,0-0.26,0-0.39,0c-0.23,0-0.05,0.21-0.05,0.33
	c0,0.5,0,1,0,1.51c0,0.5,0,1,0,1.51c0,0.15,0.24,0.69-0.07,0.69c-0.26,0-0.52,0-0.78,0c-1.04,0-2.07,0-3.11,0c-0.13,0-0.26,0-0.39,0
	c-0.12,0-0.26,0.09-0.34-0.08c-0.11-0.22-0.23-0.45-0.34-0.68c-0.23-0.45-0.46-0.9-0.68-1.35c-0.45-0.9-0.91-1.8-1.36-2.71
	c-0.91-1.8-1.82-3.61-2.73-5.41c-0.46-0.9-0.91-1.8-1.37-2.71c-0.23-0.45-0.46-0.9-0.68-1.35c-0.11-0.22-0.23-0.45-0.34-0.68
	c-0.05-0.1-0.31-0.23-0.1-0.31c0.12-0.05,0.24-0.09,0.36-0.14c0.96-0.36,1.93-0.73,2.89-1.09c0.21-0.08,0.46-0.37,0.63-0.03
	c0.11,0.23,0.23,0.45,0.34,0.68c0.23,0.45,0.46,0.9,0.68,1.35c0.91,1.8,1.82,3.61,2.73,5.41c0.39,0.78,0.42,0.56,1.19,0.56
	c0.52,0,1.04,0,1.55,0c1.04,0,2.07,0,3.1,0c2.07,0,4.14,0,6.21,0c8.28,0,16.56,0,24.84,0c16.56,0,33.13,0,49.69,0s33.13,0,49.69,0
	c8.4,0,16.79,0,25.19,0c4.2,0,8.4,0,12.6,0c1.05,0,2.1,0,3.15,0c0.52,0,1.05,0,1.57,0c0.26,0,0.52,0,0.79,0
	c0.18,0,0.67-0.12,0.48,0.14C815.17,505.89,814.04,507.34,812.89,508.77z"/>
<path class="st17" d="M636,545.59c0-4.67,0-9.33,0-14c0-0.58,0-1.17,0-1.75c0-0.29,0-0.58,0-0.88c0-0.14-0.25-0.41,0.03-0.41
	c0.13,0,0.26,0,0.4,0c1.11-0.03,2.19-0.17,3.27-0.43c0.14-0.04,0.28-0.07,0.42-0.11c0.13-0.04,0.39-0.35,0.39-0.08
	c0,0.29,0,0.58,0,0.88c0,0.58,0,1.17,0,1.75c0,1.17,0,2.33,0,3.5c0,2.33,0,4.67,0,7c0,1.17,0,2.33,0,3.5c0,0.58,0,1.17,0,1.75
	c0,0.19-0.12,1.47,0.17,1.62c3.81,1.81,7.68,3.43,11.64,4.88c17.56,6.43,34.7,9.07,53.38,8.23c36.69-1.66,71.19-17.95,95.78-45.24
	c1.61-1.78,3.16-3.6,4.67-5.47c0.37-0.46,0.74-0.92,1.11-1.39c0.17-0.21,1.7-0.16,1.88-0.16c0.66,0,1.31,0,1.97,0
	c0.33,0,0.66,0,0.99,0c0.16,0,0.33,0,0.49,0c0.15,0,0.63-0.22,0.45,0.02c-2.65,3.55-5.45,6.95-8.42,10.23
	c-5.91,6.53-12.28,12.38-19.28,17.71c-14.86,11.3-30.45,19-48.45,23.92s-35.34,6.23-53.88,4.05c-8.95-1.05-17.61-2.9-26.2-5.62
	c-4.26-1.35-8.44-2.89-12.56-4.63c-2.04-0.87-4.07-1.78-6.07-2.74c-0.5-0.24-1-0.48-1.49-0.73c-0.08-0.04-0.68-0.26-0.68-0.42
	c0-0.33,0-0.66,0-0.99C636,548.24,636,546.92,636,545.59z"/>
<rect x="674.01" y="627.17" class="st17" width="4.5" height="170.96"/>
<path class="st17" d="M635.6,589.78c-0.94,3.96-2.01,7.88-3.22,11.77c-0.6,1.94-1.24,3.87-1.9,5.79c-0.33,0.96-0.67,1.92-1.02,2.87
	c-0.1,0.26-0.51-0.1-0.64-0.14c-0.23-0.09-0.46-0.18-0.7-0.26c-0.46-0.18-0.93-0.35-1.39-0.53c-1.85-0.7-3.71-1.4-5.57-2.11
	c-0.34-0.13-0.04-0.38,0.03-0.57c0.08-0.22,0.16-0.44,0.24-0.66c0.16-0.44,0.31-0.89,0.47-1.33c0.31-0.89,0.61-1.78,0.91-2.68
	c1.18-3.58,2.25-7.2,3.19-10.85c0.95-3.65,1.77-7.33,2.48-11.03c0.18-0.93,0.34-1.85,0.51-2.78c0.04-0.26,0.24,0.1,0.36,0.16
	c0.12,0.05,0.24,0.11,0.36,0.16c0.24,0.11,0.48,0.22,0.72,0.32c0.96,0.43,1.93,0.85,2.91,1.27c3.91,1.66,7.87,3.17,11.89,4.53
	c25.03,8.48,51.64,10.99,77.81,7.31c4.52-0.63,8.99-1.45,13.44-2.45c2.25-0.5,4.48-1.05,6.7-1.65c0.56-0.15,1.12-0.3,1.67-0.46
	c0.28-0.08,0.56-0.16,0.84-0.24c0.13-0.04,0.33-0.14,0.33,0.08c0,0.25,0,0.5,0,0.76c0,2.02,0,4.03,0,6.05c0,16.13,0,32.26,0,48.39
	c0,26.29,0,52.57,0,78.86c0,13.1,0,26.2,0,39.3c0,0.18,0.11,0.44-0.19,0.44c-0.22,0-0.44,0-0.65,0c-0.44,0-0.87,0-1.31,0
	s-0.87,0-1.31,0c-0.24,0-1.04,0.2-1.04-0.25c0-1.64,0-3.28,0-4.91c0-3.28,0-6.55,0-9.82c0-6.55,0-13.1,0-19.65
	c0-26.29,0-52.58,0-78.86c0-12.64,0-25.28,0-37.92c0-3.16,0-6.32,0-9.48c0-0.79,0-1.58,0-2.37c0-0.29-0.27-0.12-0.44-0.08
	c-0.21,0.05-0.42,0.1-0.64,0.15c-0.43,0.1-0.85,0.2-1.28,0.3c-1.71,0.39-3.42,0.76-5.14,1.1c-6.96,1.38-13.93,2.33-21,2.87
	C686.69,603.16,660.24,599.27,635.6,589.78z"/>
<path class="st17" d="M611.01,647.04c0,52.32,0,104.65,0,156.97c0,13.13,0,26.27,0,39.41c0,0.82,0,1.64,0,2.46c0,0.41,0,0.82,0,1.23
	c0,0.21,0,0.41,0,0.62c0,0.33-0.33-0.05-0.49-0.1c-0.73-0.25-1.45-0.5-2.18-0.75c-0.36-0.13-0.73-0.25-1.09-0.38
	c-0.18-0.06-0.36-0.13-0.54-0.19c-0.24-0.08-0.2-0.27-0.2-0.46c0-3.28,0-6.57,0-9.85c0-6.57,0-13.13,0-19.7c0-26.16,0-52.32,0-78.49
	s0-52.32,0-78.49c0-1.9,0-3.79,0-5.69c0-0.19-0.12,0.15-0.17,0.23c-0.06,0.08-0.12,0.16-0.17,0.24c-0.12,0.16-0.23,0.32-0.35,0.48
	c-0.24,0.32-0.47,0.65-0.71,0.97c-0.47,0.64-0.95,1.29-1.44,1.92c-1.94,2.56-3.95,5.07-6.03,7.53c-4.19,4.96-8.61,9.66-13.3,14.14
	c-9.49,9.06-19.66,16.88-30.86,23.71c-5.75,3.51-11.65,6.67-17.76,9.52c-3.02,1.41-6.07,2.73-9.16,3.97
	c-0.77,0.31-1.54,0.61-2.31,0.91c-0.17,0.07-0.5,0.48-0.52,0.12c-0.01-0.24-0.03-0.49-0.04-0.74c-0.02-0.49-0.05-0.98-0.06-1.47
	c-0.08-1.96-0.11-3.93-0.11-5.9c0-0.17-0.23-1.3,0.06-1.42c0.35-0.14,0.7-0.28,1.05-0.43c0.7-0.29,1.4-0.58,2.1-0.88
	c1.4-0.6,2.79-1.21,4.17-1.85c2.78-1.28,5.52-2.62,8.22-4.04c5.46-2.87,10.74-6.01,15.86-9.44c10.82-7.25,20.52-15.46,29.46-24.93
	c4.4-4.66,8.51-9.54,12.37-14.66c1.91-2.53,3.74-5.12,5.51-7.75c0.22-0.33,0.44-0.66,0.66-0.99c0.2-0.3,0.26-0.92,0.78-0.59
	c0.81,0.53,1.61,1.05,2.42,1.58C607.77,644.93,609.39,645.99,611.01,647.04z"/>
<path class="st17" d="M165.57,528.3c17.39,4.81,35.69,5.32,53.32,1.51c4.4-0.95,8.7-2.16,12.96-3.63c0.53-0.18,1.06-0.37,1.59-0.56
	c0.26-0.1,0.53-0.19,0.79-0.29c0.11-0.04,0.04,0.11,0.07,0.17c0.08,0.23,0.17,0.45,0.25,0.68c0.17,0.45,0.34,0.91,0.51,1.36
	s0.34,0.91,0.51,1.36c0.04,0.11,0.09,0.23,0.13,0.34c0.04,0.1,0.29,0.24,0.08,0.32c-0.24,0.09-0.47,0.18-0.71,0.26
	c-0.95,0.35-1.9,0.68-2.86,1c-7.8,2.62-15.66,4.36-23.84,5.28c-8.2,0.93-16.27,0.99-24.47,0.17c-2.02-0.2-4.02-0.45-6.03-0.75
	c-0.5-0.08-1-0.16-1.5-0.24c-0.25-0.04-0.5-0.08-0.75-0.12c-0.18-0.03-0.84-0.27-0.55-0.05c0.77,0.58,1.54,1.17,2.3,1.76
	c3.06,2.38,6.04,4.84,8.94,7.4c23.3,20.54,41.11,46.77,50.15,76.75c4.56,15.12,6.84,29.94,6.15,45.81
	c-0.7,16.02-4.68,30.26-11.59,44.62c-6.76,14.07-15.39,26.82-24.02,39.69s-17.11,25.75-24.14,39.63
	c-8.49,16.75-14.28,33.14-15.05,52.29c-0.38,9.25,0.48,18.21,2.22,27.28c0.21,1.12,0.44,2.24,0.68,3.36
	c0.02,0.1,0.28,0.68,0.11,0.78c-0.16,0.1-0.33,0.19-0.49,0.29c-0.33,0.19-0.66,0.38-0.99,0.57c-0.39,0.22,0.28,0.83,0.4,1.03
	c0.21,0.37,0.43,0.74,0.64,1.11c0.43,0.74,0.86,1.48,1.29,2.23c0.47,0.82,0.91,1.62,1.17,2.55c0.31,1.1,0.63,2.2,0.96,3.29
	c0.67,2.19,1.38,4.35,2.15,6.51c1.53,4.31,3.24,8.54,5.13,12.71c0.94,2.08,1.93,4.14,2.96,6.19c0.51,1.02,1.04,2.04,1.58,3.04
	c0.27,0.5,0.54,1.01,0.81,1.51c0.14,0.25,0.27,0.5,0.41,0.75c0.11,0.21,0.2,0.37,0,0.57c-0.27,0.27-0.54,0.54-0.81,0.81
	c-0.43,0.43,0.14,0.62,0.4,0.88c0.61,0.61,1.21,1.21,1.82,1.82c0.6,0.61,1.21,1.21,1.82,1.82c0.77,0.77,1.25,1.71,1.81,2.61
	c2.45,3.87,5.06,7.61,7.84,11.24c2.78,3.64,5.71,7.13,8.82,10.5c1.55,1.68,3.14,3.32,4.77,4.93c0.81,0.8,1.64,1.6,2.47,2.38
	c0.09,0.09,0.69,0.36,0.56,0.58c-0.09,0.17-0.19,0.33-0.29,0.49c-0.1,0.17-0.19,0.33-0.29,0.5c-0.14,0.25,0.12,0.29,0.28,0.38
	c1.48,0.86,2.97,1.71,4.45,2.57c1.89,1.09,3.43,2.59,5.13,3.91c3.62,2.8,7.36,5.4,11.26,7.81c7.84,4.85,15.98,8.8,24.62,12
	c2.14,0.79,4.3,1.54,6.48,2.22c1.09,0.35,2.18,0.68,3.28,1c0.55,0.16,1.1,0.31,1.65,0.47c0.14,0.04,0.27,0.08,0.41,0.11
	c0.2,0.05,0.02,0.2-0.03,0.31c-0.12,0.25-0.25,0.5-0.37,0.75c-0.99,2.03-1.86,4.1-2.62,6.22c-0.1,0.27-0.19,0.54-0.28,0.8
	c-0.04,0.12,0.02,0.36-0.2,0.29c-0.14-0.04-0.27-0.08-0.41-0.12c-0.55-0.16-1.1-0.32-1.64-0.48c-1.1-0.32-2.19-0.66-3.28-1.01
	c-17.89-5.77-33.37-14.06-47.89-26.05c-27.78-22.94-47.85-57.49-55.05-92.58c-8.11-39.56,1.99-69.21,21.55-102.29
	c9.12-15.42,19.73-29.84,29.16-45.05c9.61-15.5,17.48-30.72,20.3-49.27c5.36-35.28-8.05-73.21-28.56-100.74
	c-10.91-14.65-23.56-26.62-38.33-37.26c-14.53-10.46-30.25-19.06-44.57-29.88c-14.89-11.25-25.86-23.72-33.37-41.11
	C80.65,452,77.77,433.75,79.08,416c2.67-36.04,22.52-69.34,51.73-90.02c14.57-10.31,31.37-17.56,48.94-20.85
	c8.87-1.66,17.66-2.3,26.68-1.96c8.57,0.32,16.87-0.16,25.29-2.06c36.62-8.28,64.23-38.38,69.32-75.58
	c0.56-4.07,0.72-8.16,1.22-12.23c0.52-4.23,1.25-8.41,2.2-12.57c1.99-8.67,4.83-16.89,8.63-24.94
	c7.78-16.48,19.14-31.01,33.24-42.54c27.35-22.36,63.02-31.84,97.87-25.99c17.97,3.02,35.04,10,49.97,20.45
	c7.3,5.11,13.85,10.84,19.88,17.39c2.89,3.14,5.6,6.41,8.15,9.84c1.25,1.67,2.45,3.38,3.61,5.11c1.76,2.64,3.05,5.52,4.58,8.27
	c10.44,18.82,21.52,36.83,35.81,53.17c10.23,11.7,21.13,21.43,35.18,28.6c6.27,3.2,12.7,5.61,19.51,7.38
	c3.4,0.89,6.83,1.59,10.31,2.16c0.71,0.11,0.68,0.7,0.89,1.17c0.24,0.52,0.48,1.05,0.72,1.57c0.48,1.05,0.96,2.09,1.43,3.14
	c0.24,0.52,0.47,1.05,0.69,1.58c0.11,0.27,0.22,0.53,0.33,0.8c0.09,0.23-0.21,0.12-0.33,0.17c-0.12,0.05-0.25,0.1-0.37,0.16
	c-0.99,0.41-1.98,0.84-2.97,1.27c-16.63,7.31-31.17,16.68-44.69,28.79c-27.09,24.27-45.61,56.63-52.81,92.29
	c-0.21,1.06-0.42,2.11-0.61,3.17c-0.05,0.26-0.1,0.53-0.14,0.79c-0.04,0.23-0.23,0-0.35-0.02c-0.14-0.03-0.28-0.05-0.42-0.08
	c-0.28-0.05-0.57-0.1-0.85-0.15c-1.13-0.2-2.26-0.4-3.4-0.6c-1.13-0.2-2.26-0.4-3.4-0.6c-0.19-0.03-0.48,0.04-0.42-0.27
	c0.02-0.13,0.05-0.27,0.07-0.4c0.05-0.27,0.1-0.54,0.15-0.81c0.2-1.08,0.41-2.16,0.63-3.24c0.89-4.35,1.94-8.66,3.15-12.94
	c2.48-8.75,5.59-17.18,9.38-25.45c7.82-17.09,17.72-32.03,30.39-45.91c12.46-13.64,26.22-24.71,42.21-33.96
	c1.91-1.1,3.83-2.17,5.78-3.2c0.48-0.26,0.97-0.51,1.46-0.76c0.07-0.04,0.23-0.13,0.1-0.16c-0.14-0.04-0.28-0.07-0.42-0.11
	c-0.28-0.08-0.55-0.15-0.83-0.23c-1.11-0.31-2.21-0.64-3.3-0.99c-4.4-1.39-8.66-3.05-12.84-5.01c-8.44-3.96-16.02-8.88-23.21-14.78
	c-14.74-12.11-25.97-26.4-36.45-42.04c-1.3-1.93-2.57-3.88-3.83-5.84c-0.63-0.98-1.25-1.96-1.87-2.95
	c-0.31-0.49-0.62-0.99-0.92-1.48c-0.23-0.38-1.34,0.1-1.58,0.17c-0.56,0.15-1.13,0.29-1.69,0.44c-0.28,0.07-0.56,0.15-0.85,0.22
	c-0.13,0.03-0.32,0.3-0.38,0.05c-0.04-0.13-0.07-0.27-0.11-0.4c-0.29-1.08-0.59-2.15-0.9-3.22c-0.64-2.14-1.33-4.27-2.1-6.37
	c-2.49-6.86-7.64-17.95-12.12-23.87c-23.13-30.54-60.07-47.35-98.29-44.73c-37.83,2.59-71.8,23.84-90.69,56.71
	c-4.75,8.26-8.32,16.78-10.89,25.95c-2.53,9.04-3.26,15.54-4.1,24.83c-1.31,14.32-5.23,26.94-12.27,39.48
	c-9.93,17.68-25.05,31.88-43.31,40.69c-8.86,4.28-17.87,7.09-27.59,8.62c-12.66,2-14.12,0.83-26.76,0.98
	c-35.24,0.43-68.77,17.86-89.91,45.85c-21.3,28.19-28.93,64.75-17.67,98.87c5.81,17.62,15.08,30.59,29.39,42.25
	C135.94,510.09,151.2,518.48,165.57,528.3z"/>
<path class="st17" d="M370.31,701.19c-50.14-28.95-82.97-80.56-87.92-138.24c-2.44-28.42,2.01-57.01,12.99-83.34
	c5.98-14.35,13.53-27.37,22.99-39.7c3.99-5.2,8.24-10.14,12.78-14.86c2.27-2.36,4.59-4.65,6.99-6.88c1.2-1.11,2.41-2.21,3.63-3.29
	c0.61-0.54,1.23-1.08,1.85-1.61c0.31-0.27,0.62-0.53,0.93-0.79c0.16-0.14,0.61-0.86,0.86-0.54c1.07,1.41,2.14,2.83,3.21,4.24
	c0.54,0.71,1.07,1.41,1.61,2.12c0.13,0.18,0.27,0.35,0.4,0.53c0.18,0.24-0.06,0.33-0.21,0.46c-0.34,0.29-0.68,0.57-1.01,0.86
	c-2.7,2.31-5.31,4.7-7.85,7.18c-5.1,4.97-9.84,10.21-14.27,15.78s-8.39,11.43-12.17,17.45c-3.8,6.04-6.88,12.39-9.8,18.87
	c-11.69,25.89-16.41,54.84-13.92,83.08c2.5,28.44,12.21,55.78,28.2,79.43c8.16,12.07,17.49,22.65,28.45,32.26
	c5.18,4.54,10.58,8.72,16.27,12.59c2.76,1.88,5.56,3.66,8.43,5.37c0.35,0.21,0.71,0.42,1.06,0.63c0.18,0.1,0.35,0.21,0.53,0.31
	c0.09,0.05,0.18,0.1,0.27,0.15c0.08,0.05,0.26,0.04,0.18,0.19c-0.5,0.86-0.99,1.72-1.49,2.58
	C372.29,697.76,371.3,699.47,370.31,701.19z"/>
<path class="st17" d="M808.31,340.25c-22.15-28.81-54.75-47.63-90.78-52.4c-18.53-2.45-35.83-1.31-53.87,3.58
	c-4.17,1.13-8.26,2.44-12.3,3.96c-1.98,0.74-3.93,1.53-5.88,2.36c-0.96,0.41-1.91,0.83-2.86,1.26c-0.47,0.21-0.94,0.43-1.41,0.65
	c-0.23,0.11-0.47,0.22-0.7,0.33c-0.16,0.08,0,0.77,0,0.87c0,4.64,0,9.29,0,13.93c0,1.16,0,2.32,0,3.48c0,0.29,0,0.58,0,0.87
	c0,0.15,0,0.29,0,0.44c0,0.12,0.14,0.39-0.08,0.33c-0.54-0.16-1.09-0.29-1.65-0.39c-0.54-0.1-1.08-0.17-1.63-0.2
	c-0.27-0.02-0.53-0.03-0.8-0.04c-0.12,0-0.34,0.17-0.34-0.06c0-0.15,0-0.29,0-0.44c0-1.16,0-2.32,0-3.48c0-3.88,0-7.75,0-11.63
	c0-1.94,0-3.88,0-5.81c0-0.35-0.05-0.65,0.34-0.85c0.21-0.11,0.43-0.21,0.64-0.32c0.43-0.21,0.86-0.42,1.29-0.62
	c3.51-1.68,7.07-3.21,10.7-4.59c7.58-2.89,15.28-5.1,23.24-6.66c17.13-3.36,33.52-3.59,50.73-0.7c35.83,6.01,67.91,25.49,89.77,54.5
	c1.43,1.9,2.81,3.83,4.15,5.8c0.44,0.65-0.32,0.33-0.77,0.33c-0.6,0-1.2,0-1.8,0c-1.2,0-2.4,0-3.6,0c-2.4,0-4.8,0-7.2,0
	c-9.6,0-19.2,0-28.8,0c-19.2,0-38.41,0-57.61,0c-35.85,0-71.7,0-107.55,0c-0.28,0-0.56,0-0.84,0c-0.43,0-0.03-0.43,0.03-0.65
	c0.14-0.53,0.25-1.06,0.33-1.6c0.08-0.52,0.13-1.04,0.16-1.57c0.01-0.14-0.17-0.69,0.11-0.69c0.28,0,0.56,0,0.84,0
	c2.25,0,4.49,0,6.74,0c4.49,0,8.98,0,13.47,0c1.12,0,2.25,0,3.37,0c0.56,0,1.12,0,1.68,0c0.25,0,0.58,0.12,0.58-0.27
	c0-0.28,0-0.56,0-0.84c0-1.12,0-2.25,0-3.37c0-0.16-0.22-0.75,0.09-0.75c0.28,0,0.56,0,0.84,0c0.56,0,1.12,0,1.68,0s1.12,0,1.68,0
	c0.43,0,0.2,0.4,0.2,0.65c0,0.28,0,0.56,0,0.84c0,1.12,0,2.25,0,3.37c0,0.13-0.19,0.37,0.05,0.37c0.14,0,0.28,0,0.42,0
	c0.28,0,0.56,0,0.84,0c0.56,0,1.12,0,1.68,0c1.12,0,2.25,0,3.37,0c17.96,0,35.93,0,53.89,0
	C736.61,340.25,772.46,340.25,808.31,340.25z"/>
<line class="st4" x1="780.36" y1="733.09" x2="780.36" y2="760.09"/>
<path class="st17" d="M248.35,772.98c-7.95-4.59-15.9-9.18-23.84-13.76c-3.97-2.29-7.95-4.59-11.92-6.88
	c-1.05-0.61-2.11-1.22-3.17-1.83c-0.26-0.15-0.53-0.3-0.79-0.46c-0.13-0.08-0.26-0.15-0.39-0.23c-0.09-0.05-0.36,0.01-0.25-0.15
	c0.01-0.02,0.03-0.04,0.04-0.05c0.05-0.08,0.1-0.15,0.15-0.22c0.1-0.15,0.2-0.3,0.3-0.45c0.2-0.3,0.4-0.6,0.6-0.9
	c0.4-0.6,0.8-1.2,1.2-1.79c0.8-1.2,1.6-2.4,2.39-3.6c0.1-0.15,0.2-0.29,0.29-0.44c0.01-0.01,0.01-0.02,0.02-0.03
	c0.06-0.1,0.11,0.05,0.16,0.08c0.13,0.08,0.26,0.15,0.39,0.22c0.52,0.3,1.04,0.6,1.55,0.9c1.04,0.6,2.07,1.2,3.11,1.79
	c2.07,1.2,4.15,2.39,6.22,3.59c3.97,2.29,7.95,4.59,11.92,6.88s7.95,4.59,11.92,6.88c1.12,0.64,2.24,1.29,3.35,1.94
	c0.14,0.08,0.28,0.16,0.42,0.24c0.11,0.06,0.46-0.03,0.33,0.2c-0.01,0.01-0.01,0.02-0.02,0.03c-0.01,0.02-0.02,0.04-0.04,0.06
	c-0.05,0.08-0.1,0.17-0.14,0.25c-0.1,0.17-0.19,0.34-0.29,0.51c-0.19,0.34-0.38,0.68-0.56,1.02c-0.36,0.68-0.72,1.36-1.06,2.05
	C249.57,770.19,248.94,771.57,248.35,772.98z"/>
<path class="st17" d="M381.7,760.52c0.56,0.96,1.11,1.92,1.67,2.89c0.14,0.24,0.28,0.48,0.42,0.72c0.06,0.11,0.29,0.22,0.09,0.33
	c-0.12,0.07-0.24,0.14-0.36,0.21c-0.48,0.28-0.96,0.55-1.44,0.83c-1.93,1.11-3.85,2.22-5.77,3.33c-0.2,0.12-0.16-0.16-0.21-0.27
	c-0.06-0.12-0.12-0.25-0.19-0.37c-0.13-0.25-0.25-0.49-0.38-0.74c-0.26-0.49-0.52-0.98-0.79-1.47c-0.14-0.25-0.28-0.5-0.42-0.75
	c-0.06-0.11-0.37-0.23-0.15-0.35c0.12-0.07,0.24-0.14,0.36-0.21c0.47-0.27,0.95-0.55,1.42-0.82
	C377.85,762.74,379.77,761.63,381.7,760.52z"/>
<path class="st17" d="M415.53,740.99c0.76,0.74,1.51,1.49,2.26,2.24c0.28,0.28,0.56,0.57,0.83,0.85c0.07,0.07,0.34,0.12,0.18,0.22
	c-0.16,0.09-0.32,0.19-0.49,0.28c-0.33,0.19-0.65,0.38-0.97,0.56c-1.84,1.06-3.68,2.12-5.52,3.18c-0.13,0.07-0.51,0.48-0.65,0.24
	c-0.13-0.23-0.26-0.46-0.4-0.69c-0.27-0.46-0.53-0.92-0.8-1.38s-0.53-0.92-0.8-1.38c-0.4-0.69,0.43-0.71,0.83-0.94
	C411.85,743.11,413.69,742.05,415.53,740.99z"/>
<path class="st17" d="M366.44,698.89c0.81,0.49,1.62,0.98,2.43,1.46c0.47,0.28,0.95,0.55,1.42,0.83c0.17,0.1-0.08,0.17-0.13,0.26
	c-0.05,0.09-0.1,0.17-0.15,0.26c-0.1,0.17-0.2,0.34-0.3,0.52c-0.47,0.82-0.95,1.64-1.42,2.46c-0.24,0.41-0.47,0.82-0.71,1.23
	c-0.12,0.21-0.24,0.41-0.35,0.62c-0.06,0.1-0.12,0.21-0.18,0.31c-0.06,0.09,0,0.38-0.19,0.27c-0.82-0.47-1.64-0.95-2.46-1.42
	c-0.41-0.24-0.82-0.47-1.23-0.71c-0.44-0.25,0.29-0.92,0.42-1.15C364.54,702.17,365.49,700.53,366.44,698.89z"/>
<line class="st4" x1="710.01" y1="647.26" x2="710.01" y2="674.26"/>
<path class="st17" d="M348.38,739.16c-0.73-0.42-1.46-0.83-2.21-1.22c-0.37-0.2-0.75-0.39-1.12-0.58c-0.19-0.09-0.38-0.19-0.56-0.28
	c-0.32-0.16,0.1-0.35,0.2-0.51c0.84-1.46,1.68-2.91,2.52-4.37c0.08-0.14,0.17,0.01,0.25,0.06c0.09,0.05,0.18,0.1,0.27,0.16
	c0.18,0.11,0.36,0.21,0.54,0.32c0.37,0.21,0.73,0.42,1.09,0.63s0.73,0.42,1.09,0.63c0.18,0.1,0.36,0.21,0.55,0.31
	c0.27,0.16-0.01,0.33-0.1,0.49C350.06,736.25,349.22,737.71,348.38,739.16z"/>
<path class="st4" d="M640.42,567.48c19.79,8.15,41.06,12.11,62.46,11.65"/>
<path class="st4" d="M640.42,280.35c19.79-8.15,41.06-12.11,62.46-11.65"/>
<path class="st4" d="M509.95,649.86c45.59-22.81,70.53-73.08,61.1-123.18"/>
<polyline class="st4" points="553.37,530 568.33,519.32 569.96,521.61 568.17,515.98 569.8,518.27 584.76,507.59 "/>
<path class="st17" d="M544.53,336.87c-0.68,1.2-1.34,2.42-1.99,3.63c-0.07,0.13-0.1,0.36-0.31,0.24c-0.15-0.08-0.3-0.17-0.45-0.25
	c-0.3-0.17-0.6-0.34-0.9-0.51c-0.6-0.34-1.2-0.68-1.81-1.01c-2.41-1.35-4.81-2.7-7.22-4.06c-0.13-0.08,0.05-0.15,0.09-0.21
	c0.04-0.08,0.08-0.15,0.13-0.23c0.09-0.15,0.17-0.3,0.25-0.45c0.17-0.3,0.34-0.6,0.51-0.9c0.34-0.6,0.68-1.2,1.01-1.8
	c0.07-0.13,0.08-0.4,0.3-0.27c0.15,0.08,0.3,0.17,0.45,0.25c0.3,0.17,0.6,0.34,0.9,0.51c0.6,0.34,1.2,0.68,1.8,1.01
	C539.72,334.16,542.12,335.51,544.53,336.87z"/>
<path class="st17" d="M504.37,319.47c-2.45-1.38-4.9-2.75-7.35-4.13c-1.23-0.69-2.45-1.38-3.68-2.06c-0.12-0.07-0.54-0.08-0.33-0.25
	c0.14-0.11,0.28-0.22,0.42-0.33c0.28-0.22,0.55-0.44,0.83-0.66c0.55-0.44,1.1-0.89,1.64-1.34c0.11-0.09,0.62-0.79,0.85-0.66
	c0.3,0.17,0.6,0.34,0.91,0.51c0.6,0.34,1.21,0.68,1.81,1.02c1.22,0.69,2.45,1.38,3.68,2.06c0.61,0.34,1.22,0.69,1.84,1.03
	c0.31,0.17,0.61,0.34,0.92,0.52c0.27,0.15,0.78,0.18,0.53,0.62C505.74,317.02,505.06,318.24,504.37,319.47z"/>
<path class="st17" d="M364.31,408.74c-3.62,2.46-7.13,5.06-10.55,7.79c-0.85,0.68-1.7,1.38-2.54,2.08
	c-0.18,0.15-0.35,0.54-0.59,0.22c-0.16-0.22-0.33-0.44-0.5-0.65c-0.33-0.44-0.66-0.87-0.99-1.31c-0.65-0.86-1.31-1.72-1.96-2.59
	c-0.33-0.43-0.65-0.86-0.98-1.29c-0.16-0.21-0.33-0.43-0.49-0.65c-0.16-0.21-0.57-0.39-0.23-0.67c3.36-2.8,6.82-5.47,10.38-8.02
	c1.06-0.76,2.13-1.5,3.21-2.24c0.42-0.29,0.67,0.61,0.82,0.83c0.24,0.36,0.48,0.71,0.73,1.07
	C361.85,405.13,363.08,406.94,364.31,408.74z"/>
<path class="st17" d="M296.12,999.22c-5.72-0.59-11.37-1.48-16.99-2.69c-2.8-0.61-5.59-1.29-8.36-2.05c-0.2-0.05-0.93-0.05-0.8-0.42
	c0.12-0.34,0.24-0.68,0.36-1.02c0.24-0.68,0.5-1.35,0.77-2.02c0.53-1.32,1.1-2.63,1.72-3.91c0.15-0.32,0.31-0.63,0.46-0.94
	c0.22-0.45,0.55-0.18,0.87-0.09c0.7,0.19,1.39,0.37,2.09,0.54c1.4,0.35,2.8,0.68,4.21,0.99c2.8,0.62,5.62,1.15,8.45,1.6
	c1.42,0.23,2.84,0.43,4.27,0.62c0.71,0.09,1.43,0.18,2.14,0.26c0.36,0.04,0.71,0.08,1.07,0.12c0.47,0.05,0.68-0.12,0.54,0.48
	C296.26,993.52,296,996.32,296.12,999.22z"/>
<g id="XMLID_2_">
	<path class="st19" d="M411.89,445.36c2.18,1.21,4.35,2.44,6.73,3.77c8.41-4.75,8.41-4.75,15.91,6.85
		c-0.42-3.37-0.85-5.38-0.88-7.38c-0.03-2.3,0.3-4.59,0.49-6.98c5.77-1.84,8.76,0.29,12.8,10.26c4.35-6.83,15.11-2.77,17.63-12.76
		c0.48-1.88,4.57-2.86,7.04-4.28c1.65,3.55,2.98,6.44,4.49,9.73c-1.52,0.78-3.05,1.56-5.09,2.6c2.47,1.17,4.29,2.02,7.93,3.74
		c-3.97,1.11-6.04,1.7-8.93,2.51c1.06,2.08,1.99,3.97,3.22,6.45c-2.04,0.58-3.96,1.13-6.33,1.81c1.89,3.58,4.51,7.8-4.81,6.99
		c0.59,0.64,1.2,1.29,1.79,1.92c6.13,0.38,12.27,0.75,18.56,1.13c1.11-1.23,2.38-2.92,3.94-4.28c1.81-1.59,3.87-2.89,5.82-4.32
		c1.49,2.08,3.05,4.1,4.48,6.23c2.28,3.37,4.51,6.79,6.73,10.2c0.38,0.58,1.06,1.58,0.87,1.81c-4.61,5.79,2.01,10.13,1.91,15.3
		c-1.62,0.45-3.25,0.89-4.87,1.34c0.06,0.4,0.12,0.81,0.19,1.21c1.2-0.1,2.41-0.2,5.41-0.45c-1.95,2.18-3.24,3.25-4.02,4.61
		c-1.01,1.73-2.82,4.77-2.23,5.42c3.8,4.26-0.23,6.99-2.18,8.92c-1.98,1.96-5.68,2.18-10.12,3.66c-0.95,2.93,2.24,7.41,8.14,9.07
		c2.17,0.62,4.65,2.12,5.82,3.96c2.73,4.33,4.75,9.1,12.62,7.2c-2.83,3.99-4.75,6.69-7.12,10.03c-1.45-1.89-2.74-3.6-4.29-5.65
		c-1.71,1.01-3.44,2.04-5.91,3.5c-0.75-2.59-1.42-4.91-2.49-8.66c-2.04,2.33-3.5,4.02-3.84,4.41c-3.53,0.88-5.71,1.43-7.91,1.99
		c1.69,2.57,2.85,6.46,5.2,7.46c4.7,1.98,5.19,3.05,0.59,5.53c2.63,0.38,5.26,0.75,8.93,1.27c-2.69,2.99-4.65,5.19-6.34,7.1
		c-0.74-2.34-1.39-4.39-2.02-6.45c-2.05,1.58-4.22,3.04-6.11,4.78c-1.2,1.08-1.88,3.53-3.02,3.67c-1.52,0.22-3.83-0.77-4.78-2.02
		c-1.69-2.2-2.83-4.9-3.79-7.54c-0.92-2.59-1.32-5.35-1.95-8.02c-0.82,0.16-1.65,0.33-2.46,0.51c1.66,6.27,3.34,12.54,5.25,19.67
		c-2.88-1.76-4.52-2.79-6.17-3.8c-0.21,1.69-0.45,3.38-0.68,5.06c-0.46,0.2-0.94,0.39-1.42,0.58c-1-3.15-1.99-6.29-2.92-9.16
		c-3.84,2.89-7.82,5.88-11.79,8.86c0.91-1.56,1.81-3.12,2.7-4.68c-3.14-2.44-6.27-4.9-9.41-7.36c-0.77,1.01-1.53,2.04-2.28,3.06
		c-4.19,3.48-8.35,7.01-12.63,10.38c-0.27,0.2-1.57-0.88-2.4-1.37c-0.48,0.45-0.95,0.91-1.42,1.36c1.94,2.1,3.89,4.18,6.29,6.76
		c-1.39,0.29-3.35,0.71-6.36,1.34c1.65,0.85,2.54,1.33,3.45,1.81c-0.12,0.42-0.23,0.84-0.33,1.26c-2.07-0.59-4.13-1.19-6.39-1.84
		c3.53-5.85,3.25-6.3-2.2-8.51c-2.4-0.97-4.45-2.74-6.42-4c-1.17,5.69-2.62,12.66-3.9,18.95c-5.29-1.5-9.8-2.79-14.05-4
		c-1.13,4.07-1.83,6.65-2.54,9.21c-1-0.23-2.01-0.46-3.01-0.69c2.25-11.62,4.52-23.25,6.88-35.33c-2.79,0-4.61,0-5.33,0
		c-0.88,3.45-0.77,7.46-2.69,9.13c-1.39,1.23-5.46-0.62-8.42-1.1c2.51-8.79,2.51-8.79-2.41-17.76c-0.65,1.63-0.82,3.47-1.6,3.77
		c-2.46,0.97-5.12,1.34-7.7,1.96c-0.41-1.84-1.75-4.54-1.03-5.3c1.67-1.76,4.3-3.54,6.62-3.63c6.16-0.23,12.34,0.43,18.63-0.06
		c-1.69-0.2-3.4-0.4-6.46-0.75c6.08-3.38,11.11-6.18,16.14-8.97c-0.42-0.77-0.85-1.53-1.29-2.3c-1.82,1.01-3.64,2.02-5.04,2.8
		c-6.43-2.27-11.83-9.49-19.15-1.73c-0.93,0.98-4.62,0.82-5.72-0.2c-1.45-1.34-1.89-4.05-2.15-6.24c-0.17-1.46,0.75-3.05,1.82-6.76
		c-5.45,1.69-9.29,2.88-13.48,4.16c-1.52-1.81-3.63-4.32-5.51-6.56c4.35-3.44,8.55-7.1,13.12-10.22c1.42-0.97,3.83-0.48,6.16-2.24
		c-3.22-0.91-6.45-1.82-11.63-3.28c3.35-0.98,4.7-1.37,5.72-1.68c2.09-10.88-8.7-8.34-13.41-12.75c3.51-4.21,6.87-8.21,10.81-12.93
		c-2.24-0.23-3.78-0.4-5.88-0.62c1.6-2.05,3-3.83,3.83-4.87c6.65,1.56,12.47,2.94,18.22,4.29c3.37-3.6-2.43-16.58,10.56-8.61
		c1.35-5.25,2.52-9.84,3.95-15.46c0.58-0.32,2.34-1.3,4.44-2.47c-1.97-2.24-3.61-4.12-6.65-7.57c4.37,1.34,6.49,2,8.9,2.73
		c0.3-2.44,0.54-4.41,0.84-6.86c5.04,5.95,5.04,5.95,8.87,1.59c1.03,1.69,1.96,3.25,2.89,4.83c0.3,3.05,0.61,6.08,1.01,10.09
		c-2.59-1.13-4.35-1.89-6.05-2.63c0.72-2.37,1.26-4.1,2.38-7.79c-3.34,2.64-5.03,3.97-5.66,4.48c1.97,8.89,3.71,16.79,5.48,24.74
		c8.64-1.88,13.48-6.23,13.37-11.29c-3.22-2.04-5.65-3.57-8.06-5.1c0.42-0.65,0.82-1.3,1.23-1.95c1.91,0.61,3.81,1.21,4.77,1.52
		C417.65,453.6,414.77,449.5,411.89,445.36c0-0.01-0.02-0.01-0.02-0.01"/>
	<path class="st19" d="M438.66,536.35c0.91-0.9,1.82-1.79,2.72-2.69c1.01,0.91,1.97,1.89,3.05,2.73c0.79,0.62,1.73,1.04,2.61,1.55
		c0.39-0.8,0.77-1.59,1.16-2.39c-4.8-2.43-9.6-4.84-14.38-7.27c-0.72,0.3-1.44,0.62-2.17,0.93c0.85,4.55,1.69,9.09,2.53,13.64
		c6.55-3.06,4.41,5.16,7.95,6.2c2.36-1.27,4.71-2.53,9.29-4.99C446.52,541.1,442.59,538.73,438.66,536.35z"/>
	<path class="st19" d="M398.92,528.22c-5.22-11.82,6.17-8.93,10.97-14.78c-1.88-1.14-4.02-3.56-5.75-3.28
		c-4.64,0.69-9.1,2.54-13.61,3.99c-0.29,0.1-0.67,1-0.55,1.14c6.86,8.31-4.29,2.95-4.51,6.31
		C389.41,523.54,393.5,525.55,398.92,528.22z"/>
	<path class="st19" d="M487.69,511.47c4.51-4.32,8.33-6.46,9.67-9.64c1.59-3.73,1.04-8.37,1.42-12.62c-0.46,0.06-0.93,0.1-1.39,0.16
		c-1.03,1.96-2.05,3.92-3.06,5.88c-1.63-0.98-3.25-1.96-6.63-4C487.69,498.11,487.69,504,487.69,511.47z"/>
	<path class="st19" d="M470.59,543.93c-6.3,1.73-11.63,3.19-18.06,4.96C461.68,555.29,465.97,550.42,470.59,543.93z"/>
</g>
<g id="XMLID_1_">
	<path class="st19" d="M503.56,517.7c1.38,0.77,2.76,1.55,4.27,2.39c5.33-3.02,5.33-3.02,10.09,4.34c-0.27-2.13-0.54-3.41-0.56-4.68
		c-0.02-1.46,0.19-2.91,0.31-4.42c3.66-1.16,5.55,0.18,8.12,6.5c2.76-4.33,9.58-1.76,11.18-8.09c0.3-1.19,2.9-1.81,4.46-2.71
		c1.04,2.25,1.89,4.08,2.85,6.16c-0.96,0.5-1.93,0.99-3.22,1.65c1.57,0.74,2.72,1.28,5.03,2.37c-2.52,0.71-3.83,1.08-5.66,1.6
		c0.67,1.32,1.26,2.52,2.04,4.08c-1.29,0.37-2.51,0.71-4.01,1.15c1.2,2.27,2.86,4.95-3.05,4.43c0.38,0.4,0.76,0.81,1.13,1.22
		c3.88,0.24,7.78,0.47,11.76,0.71c0.71-0.78,1.51-1.85,2.5-2.71c1.15-1.01,2.46-1.83,3.69-2.74c0.94,1.32,1.93,2.6,2.84,3.95
		c1.45,2.13,2.86,4.3,4.27,6.47c0.24,0.37,0.67,1,0.55,1.15c-2.92,3.67,1.27,6.42,1.21,9.7c-1.03,0.28-2.06,0.57-3.09,0.85
		c0.04,0.26,0.07,0.51,0.12,0.77c0.76-0.06,1.53-0.13,3.43-0.29c-1.24,1.38-2.05,2.06-2.55,2.92c-0.64,1.1-1.79,3.02-1.41,3.44
		c2.41,2.7-0.15,4.43-1.38,5.65c-1.25,1.24-3.6,1.38-6.41,2.32c-0.61,1.86,1.42,4.7,5.16,5.75c1.37,0.39,2.95,1.35,3.69,2.51
		c1.73,2.75,3.01,5.77,8,4.56c-1.8,2.53-3.01,4.24-4.52,6.36c-0.92-1.2-1.74-2.28-2.72-3.58c-1.08,0.64-2.18,1.29-3.75,2.22
		c-0.48-1.64-0.9-3.12-1.58-5.49c-1.29,1.47-2.22,2.55-2.44,2.79c-2.24,0.56-3.62,0.91-5.01,1.26c1.07,1.63,1.81,4.1,3.3,4.73
		c2.98,1.26,3.29,1.93,0.38,3.51c1.67,0.24,3.33,0.48,5.66,0.8c-1.71,1.9-2.95,3.29-4.02,4.5c-0.47-1.48-0.88-2.79-1.28-4.09
		c-1.3,1-2.67,1.92-3.88,3.03c-0.76,0.69-1.19,2.23-1.91,2.33c-0.96,0.14-2.43-0.49-3.03-1.28c-1.07-1.39-1.8-3.11-2.4-4.78
		c-0.59-1.64-0.83-3.39-1.24-5.08c-0.52,0.1-1.04,0.21-1.56,0.32c1.05,3.98,2.12,7.95,3.33,12.47c-1.82-1.12-2.87-1.77-3.91-2.41
		c-0.14,1.07-0.28,2.14-0.43,3.21c-0.29,0.13-0.6,0.25-0.9,0.37c-0.63-2-1.26-3.98-1.85-5.81c-2.44,1.83-4.96,3.73-7.48,5.62
		c0.58-0.99,1.15-1.98,1.71-2.97c-1.99-1.55-3.98-3.11-5.96-4.66c-0.49,0.64-0.97,1.29-1.45,1.94c-2.66,2.21-5.29,4.44-8.01,6.58
		c-0.17,0.13-1-0.56-1.52-0.87c-0.3,0.29-0.6,0.58-0.9,0.86c1.23,1.33,2.46,2.65,3.98,4.29c-0.88,0.18-2.12,0.45-4.03,0.85
		c1.04,0.54,1.61,0.84,2.19,1.15c-0.07,0.27-0.15,0.53-0.21,0.8c-1.31-0.38-2.62-0.75-4.05-1.16c2.24-3.71,2.06-3.99-1.39-5.4
		c-1.52-0.61-2.82-1.74-4.07-2.54c-0.74,3.61-1.66,8.03-2.47,12.01c-3.35-0.95-6.21-1.77-8.91-2.54c-0.71,2.58-1.16,4.21-1.61,5.84
		c-0.63-0.15-1.27-0.29-1.91-0.44c1.43-7.37,2.87-14.74,4.36-22.4c-1.77,0-2.92,0-3.38,0c-0.56,2.19-0.49,4.73-1.7,5.79
		c-0.88,0.78-3.46-0.39-5.34-0.7c1.59-5.57,1.59-5.57-1.53-11.26c-0.41,1.04-0.52,2.2-1.02,2.39c-1.56,0.61-3.24,0.85-4.88,1.25
		c-0.26-1.16-1.11-2.88-0.65-3.36c1.06-1.12,2.73-2.24,4.2-2.3c3.9-0.15,7.82,0.27,11.81-0.04c-1.07-0.13-2.15-0.26-4.09-0.48
		c3.86-2.14,7.04-3.92,10.23-5.69c-0.27-0.48-0.54-0.97-0.82-1.46c-1.15,0.64-2.31,1.28-3.2,1.78c-4.08-1.44-7.5-6.02-12.14-1.1
		c-0.59,0.62-2.93,0.52-3.63-0.13c-0.92-0.85-1.2-2.56-1.36-3.96c-0.11-0.93,0.48-1.93,1.15-4.29c-3.45,1.07-5.89,1.82-8.55,2.64
		c-0.96-1.15-2.3-2.74-3.49-4.16c2.76-2.18,5.42-4.5,8.32-6.48c0.9-0.61,2.43-0.3,3.9-1.42c-2.04-0.58-4.09-1.15-7.38-2.08
		c2.12-0.62,2.98-0.87,3.63-1.06c1.33-6.9-5.52-5.29-8.5-8.08c2.23-2.66,4.35-5.2,6.85-8.2c-1.42-0.15-2.4-0.26-3.73-0.39
		c1.02-1.3,1.91-2.43,2.43-3.08c4.22,0.99,7.91,1.86,11.55,2.72c2.13-2.28-1.54-10.5,6.7-5.46c0.85-3.32,1.59-6.24,2.5-9.8
		c0.37-0.2,1.48-0.82,2.81-1.57c-1.25-1.42-2.29-2.61-4.21-4.8c2.77,0.85,4.11,1.26,5.64,1.73c0.19-1.55,0.34-2.79,0.53-4.35
		c3.2,3.78,3.2,3.78,5.62,1.01c0.65,1.07,1.25,2.06,1.83,3.06c0.19,1.93,0.39,3.86,0.64,6.39c-1.64-0.71-2.76-1.2-3.84-1.67
		c0.46-1.5,0.8-2.6,1.51-4.94c-2.12,1.68-3.19,2.52-3.59,2.84c1.25,5.63,2.35,10.64,3.47,15.68c5.48-1.19,8.55-3.95,8.47-7.15
		c-2.04-1.29-3.58-2.26-5.11-3.23c0.27-0.41,0.52-0.82,0.78-1.24c1.21,0.38,2.42,0.77,3.02,0.96
		C507.2,522.92,505.38,520.32,503.56,517.7c0-0.01-0.01-0.01-0.01-0.01"/>
	<path class="st19" d="M520.52,575.38c0.58-0.57,1.15-1.14,1.72-1.7c0.64,0.58,1.25,1.2,1.93,1.73c0.5,0.39,1.1,0.66,1.66,0.98
		c0.25-0.5,0.49-1.01,0.73-1.51c-3.04-1.54-6.08-3.07-9.12-4.61c-0.46,0.19-0.92,0.39-1.37,0.59c0.54,2.89,1.07,5.76,1.6,8.65
		c4.15-1.94,2.79,3.27,5.04,3.93c1.49-0.81,2.99-1.6,5.89-3.16C525.5,578.39,523.01,576.89,520.52,575.38z"/>
	<path class="st19" d="M495.33,570.23c-3.31-7.49,3.91-5.66,6.95-9.37c-1.19-0.72-2.55-2.25-3.65-2.08
		c-2.94,0.44-5.77,1.61-8.63,2.53c-0.18,0.06-0.42,0.63-0.35,0.72c4.35,5.27-2.72,1.87-2.86,4
		C489.3,567.26,491.89,568.53,495.33,570.23z"/>
	<path class="st19" d="M551.6,559.61c2.86-2.74,5.28-4.09,6.13-6.11c1.01-2.36,0.66-5.3,0.9-8c-0.29,0.04-0.59,0.06-0.88,0.1
		c-0.65,1.24-1.3,2.48-1.94,3.73c-1.04-0.62-2.06-1.25-4.21-2.54C551.6,551.14,551.6,554.87,551.6,559.61z"/>
	<path class="st19" d="M540.77,580.19c-3.99,1.1-7.38,2.02-11.45,3.14C535.11,587.39,537.84,584.3,540.77,580.19z"/>
</g>
<g id="XMLID_3_">
	<path class="st19" d="M401.04,558.5c1.33,0.74,2.66,1.49,4.11,2.3c5.14-2.91,5.14-2.91,9.72,4.18c-0.26-2.06-0.52-3.28-0.54-4.51
		c-0.02-1.4,0.18-2.81,0.3-4.26c3.52-1.12,5.35,0.18,7.82,6.27c2.66-4.18,9.23-1.7,10.77-7.79c0.29-1.15,2.79-1.75,4.3-2.61
		c1.01,2.17,1.82,3.94,2.74,5.94c-0.93,0.48-1.86,0.95-3.11,1.59c1.51,0.71,2.62,1.24,4.85,2.29c-2.43,0.68-3.69,1.04-5.46,1.54
		c0.65,1.27,1.22,2.43,1.97,3.94c-1.25,0.35-2.42,0.69-3.87,1.1c1.16,2.19,2.75,4.77-2.94,4.27c0.36,0.39,0.73,0.79,1.09,1.17
		c3.74,0.23,7.5,0.46,11.34,0.69c0.68-0.75,1.46-1.78,2.41-2.61c1.1-0.97,2.37-1.77,3.56-2.64c0.91,1.27,1.86,2.51,2.74,3.8
		c1.39,2.06,2.75,4.15,4.11,6.23c0.23,0.35,0.65,0.96,0.53,1.1c-2.81,3.54,1.23,6.19,1.17,9.35c-0.99,0.28-1.99,0.55-2.97,0.82
		c0.04,0.25,0.07,0.5,0.11,0.74c0.73-0.06,1.47-0.12,3.3-0.27c-1.19,1.33-1.98,1.99-2.45,2.82c-0.62,1.06-1.72,2.91-1.36,3.31
		c2.32,2.6-0.14,4.27-1.33,5.45c-1.21,1.2-3.47,1.33-6.18,2.23c-0.58,1.79,1.37,4.53,4.97,5.54c1.32,0.38,2.84,1.3,3.56,2.42
		c1.67,2.65,2.9,5.56,7.71,4.4c-1.73,2.44-2.9,4.09-4.35,6.13c-0.88-1.16-1.68-2.2-2.62-3.45c-1.04,0.62-2.1,1.25-3.61,2.14
		c-0.46-1.58-0.87-3-1.52-5.29c-1.25,1.42-2.14,2.45-2.35,2.69c-2.15,0.54-3.49,0.88-4.83,1.22c1.03,1.57,1.74,3.95,3.18,4.55
		c2.87,1.21,3.17,1.86,0.36,3.38c1.61,0.23,3.21,0.46,5.46,0.78c-1.64,1.83-2.84,3.17-3.88,4.34c-0.45-1.43-0.85-2.69-1.24-3.94
		c-1.25,0.96-2.58,1.85-3.73,2.92c-0.73,0.66-1.15,2.15-1.85,2.24c-0.93,0.13-2.34-0.47-2.92-1.23c-1.03-1.34-1.73-2.99-2.31-4.61
		c-0.56-1.58-0.8-3.27-1.19-4.9c-0.5,0.1-1.01,0.2-1.5,0.31c1.02,3.83,2.04,7.66,3.21,12.02c-1.76-1.08-2.76-1.7-3.77-2.32
		c-0.13,1.03-0.27,2.06-0.41,3.09c-0.28,0.12-0.57,0.24-0.86,0.35c-0.61-1.92-1.22-3.84-1.78-5.6c-2.35,1.77-4.78,3.59-7.2,5.41
		c0.56-0.95,1.1-1.91,1.65-2.86c-1.92-1.49-3.83-2.99-5.75-4.49c-0.47,0.62-0.94,1.24-1.39,1.87c-2.56,2.13-5.1,4.28-7.72,6.34
		c-0.17,0.12-0.96-0.54-1.47-0.84c-0.29,0.27-0.58,0.56-0.86,0.83c1.18,1.28,2.37,2.55,3.84,4.13c-0.85,0.18-2.05,0.43-3.88,0.82
		c1.01,0.52,1.55,0.81,2.11,1.1c-0.07,0.26-0.14,0.51-0.2,0.77c-1.26-0.36-2.53-0.72-3.9-1.12c2.15-3.57,1.99-3.85-1.34-5.2
		c-1.47-0.59-2.72-1.68-3.92-2.45c-0.71,3.48-1.6,7.73-2.38,11.57c-3.23-0.92-5.98-1.7-8.58-2.45c-0.69,2.49-1.12,4.06-1.55,5.62
		c-0.61-0.14-1.23-0.28-1.84-0.42c1.38-7.1,2.76-14.21,4.2-21.59c-1.7,0-2.82,0-3.26,0c-0.54,2.11-0.47,4.56-1.64,5.58
		c-0.85,0.75-3.34-0.38-5.15-0.67c1.54-5.37,1.54-5.37-1.47-10.85c-0.4,1-0.5,2.12-0.98,2.3c-1.5,0.59-3.12,0.82-4.71,1.2
		c-0.25-1.12-1.07-2.77-0.63-3.24c1.02-1.08,2.63-2.16,4.04-2.22c3.76-0.14,7.54,0.27,11.38-0.04c-1.03-0.12-2.07-0.25-3.95-0.46
		c3.72-2.07,6.79-3.78,9.86-5.48c-0.26-0.47-0.52-0.94-0.79-1.4c-1.11,0.62-2.22,1.23-3.08,1.71c-3.93-1.39-7.23-5.8-11.7-1.06
		c-0.57,0.6-2.83,0.5-3.5-0.12c-0.88-0.82-1.16-2.47-1.32-3.81c-0.11-0.89,0.46-1.86,1.11-4.13c-3.33,1.03-5.68,1.76-8.24,2.54
		c-0.93-1.1-2.21-2.64-3.36-4.01c2.66-2.1,5.23-4.33,8.02-6.24c0.87-0.59,2.34-0.29,3.76-1.37c-1.97-0.56-3.94-1.11-7.11-2
		c2.05-0.6,2.87-0.84,3.5-1.02c1.28-6.65-5.32-5.09-8.19-7.79c2.15-2.57,4.19-5.01,6.6-7.9c-1.37-0.14-2.31-0.25-3.59-0.38
		c0.98-1.25,1.84-2.34,2.34-2.97c4.06,0.95,7.62,1.79,11.13,2.62c2.06-2.2-1.48-10.13,6.45-5.26c0.82-3.21,1.54-6.01,2.41-9.45
		c0.35-0.19,1.43-0.79,2.71-1.51c-1.2-1.37-2.21-2.52-4.06-4.63c2.67,0.82,3.96,1.22,5.44,1.67c0.19-1.49,0.33-2.69,0.51-4.19
		c3.08,3.64,3.08,3.64,5.42,0.97C399.9,556.59,400.47,557.55,401.04,558.5c0.18,1.87,0.36,3.72,0.61,6.17
		c-1.58-0.69-2.66-1.16-3.7-1.61c0.44-1.45,0.77-2.51,1.46-4.76c-2.04,1.62-3.07,2.43-3.46,2.74c1.2,5.43,2.27,10.26,3.35,15.12
		c5.28-1.15,8.24-3.81,8.17-6.89c-1.97-1.25-3.45-2.18-4.93-3.12c0.26-0.4,0.5-0.79,0.75-1.19c1.17,0.37,2.33,0.74,2.91,0.93
		C404.56,563.53,402.8,561.02,401.04,558.5C401.04,558.49,401.04,558.49,401.04,558.5"/>
	<path class="st19" d="M417.39,614.08c0.56-0.55,1.11-1.1,1.66-1.64c0.62,0.56,1.2,1.16,1.86,1.67c0.49,0.38,1.06,0.64,1.6,0.95
		c0.24-0.49,0.47-0.97,0.71-1.46c-2.93-1.48-5.86-2.96-8.78-4.44c-0.44,0.18-0.88,0.38-1.32,0.56c0.52,2.78,1.03,5.55,1.54,8.33
		c4-1.87,2.69,3.15,4.85,3.79c1.44-0.78,2.88-1.54,5.68-3.05C422.2,616.98,419.79,615.53,417.39,614.08z"/>
	<path class="st19" d="M393.12,609.12c-3.19-7.22,3.77-5.46,6.7-9.03c-1.15-0.7-2.45-2.17-3.51-2c-2.83,0.42-5.56,1.55-8.32,2.44
		c-0.18,0.06-0.41,0.61-0.34,0.7c4.19,5.08-2.62,1.8-2.75,3.86C387.31,606.26,389.81,607.48,393.12,609.12z"/>
	<path class="st19" d="M447.35,598.89c2.75-2.64,5.09-3.95,5.91-5.89c0.97-2.28,0.63-5.11,0.87-7.71c-0.28,0.04-0.57,0.06-0.85,0.1
		c-0.63,1.2-1.25,2.39-1.87,3.59c-1-0.6-1.99-1.2-4.05-2.45C447.35,590.72,447.35,594.32,447.35,598.89z"/>
	<path class="st19" d="M436.9,618.71c-3.85,1.06-7.11,1.95-11.04,3.03C431.46,625.65,434.08,622.68,436.9,618.71z"/>
</g>
<g id="XMLID_4_">
	<path class="st19" d="M300.32,750.71c1.33,0.74,2.66,1.49,4.11,2.3c5.14-2.91,5.14-2.91,9.72,4.18c-0.25-2.06-0.52-3.28-0.54-4.51
		c-0.02-1.4,0.18-2.81,0.3-4.26c3.52-1.12,5.35,0.18,7.82,6.27c2.66-4.18,9.23-1.7,10.77-7.79c0.29-1.15,2.79-1.75,4.3-2.61
		c1.01,2.17,1.82,3.94,2.75,5.94c-0.93,0.48-1.86,0.95-3.11,1.59c1.51,0.71,2.62,1.24,4.85,2.29c-2.43,0.68-3.69,1.04-5.46,1.54
		c0.65,1.27,1.22,2.43,1.97,3.94c-1.25,0.35-2.42,0.69-3.87,1.1c1.16,2.19,2.75,4.77-2.94,4.27c0.36,0.39,0.73,0.79,1.09,1.17
		c3.74,0.23,7.5,0.46,11.34,0.69c0.68-0.75,1.46-1.78,2.41-2.61c1.1-0.97,2.37-1.77,3.56-2.64c0.91,1.27,1.86,2.51,2.74,3.8
		c1.39,2.06,2.75,4.15,4.11,6.23c0.23,0.35,0.64,0.96,0.53,1.1c-2.82,3.54,1.23,6.19,1.17,9.35c-0.99,0.28-1.99,0.55-2.98,0.82
		c0.04,0.25,0.07,0.5,0.12,0.74c0.73-0.06,1.47-0.12,3.3-0.27c-1.19,1.33-1.98,1.99-2.45,2.82c-0.62,1.06-1.72,2.91-1.36,3.31
		c2.32,2.6-0.14,4.27-1.33,5.45c-1.21,1.2-3.47,1.33-6.18,2.23c-0.58,1.79,1.37,4.53,4.97,5.54c1.32,0.38,2.84,1.3,3.56,2.42
		c1.67,2.65,2.9,5.56,7.71,4.4c-1.73,2.44-2.9,4.09-4.35,6.13c-0.88-1.16-1.68-2.2-2.62-3.45c-1.04,0.62-2.1,1.25-3.61,2.14
		c-0.46-1.58-0.87-3-1.52-5.29c-1.25,1.42-2.14,2.45-2.35,2.69c-2.15,0.54-3.49,0.88-4.83,1.22c1.03,1.57,1.74,3.95,3.18,4.55
		c2.87,1.21,3.17,1.86,0.36,3.38c1.61,0.23,3.21,0.46,5.46,0.78c-1.64,1.83-2.84,3.17-3.88,4.33c-0.45-1.43-0.85-2.68-1.24-3.94
		c-1.25,0.96-2.58,1.85-3.73,2.92c-0.73,0.66-1.15,2.15-1.85,2.24c-0.93,0.13-2.34-0.47-2.92-1.23c-1.03-1.34-1.73-2.99-2.31-4.61
		c-0.56-1.58-0.8-3.27-1.19-4.9c-0.5,0.1-1.01,0.2-1.5,0.31c1.01,3.83,2.04,7.66,3.2,12.02c-1.76-1.08-2.76-1.7-3.77-2.32
		c-0.13,1.03-0.27,2.07-0.41,3.09c-0.28,0.12-0.57,0.24-0.87,0.35c-0.61-1.93-1.22-3.84-1.78-5.6c-2.35,1.77-4.78,3.59-7.2,5.41
		c0.56-0.96,1.1-1.91,1.65-2.86c-1.92-1.49-3.83-2.99-5.75-4.49c-0.47,0.62-0.93,1.24-1.39,1.87c-2.56,2.13-5.1,4.28-7.72,6.34
		c-0.17,0.12-0.96-0.54-1.46-0.84c-0.29,0.27-0.58,0.55-0.87,0.83c1.18,1.28,2.37,2.55,3.84,4.13c-0.85,0.18-2.05,0.43-3.88,0.82
		c1.01,0.52,1.55,0.81,2.11,1.1c-0.07,0.26-0.14,0.51-0.2,0.77c-1.26-0.36-2.53-0.72-3.9-1.12c2.15-3.57,1.99-3.85-1.34-5.2
		c-1.47-0.59-2.72-1.68-3.92-2.45c-0.71,3.48-1.6,7.73-2.38,11.57c-3.23-0.92-5.99-1.71-8.58-2.45c-0.69,2.49-1.12,4.06-1.55,5.62
		c-0.61-0.14-1.23-0.28-1.84-0.42c1.38-7.1,2.76-14.2,4.2-21.58c-1.7,0-2.82,0-3.26,0c-0.54,2.11-0.47,4.55-1.64,5.58
		c-0.85,0.75-3.34-0.38-5.15-0.67c1.54-5.37,1.54-5.37-1.47-10.85c-0.4,1-0.5,2.12-0.98,2.3c-1.5,0.59-3.12,0.82-4.71,1.2
		c-0.25-1.12-1.07-2.77-0.63-3.24c1.02-1.08,2.63-2.16,4.04-2.22c3.76-0.14,7.54,0.27,11.38-0.04c-1.03-0.12-2.07-0.25-3.95-0.46
		c3.72-2.07,6.79-3.78,9.86-5.48c-0.26-0.47-0.52-0.94-0.79-1.4c-1.11,0.62-2.22,1.23-3.08,1.71c-3.93-1.39-7.23-5.8-11.7-1.06
		c-0.57,0.6-2.82,0.5-3.5-0.12c-0.88-0.82-1.16-2.47-1.32-3.81c-0.11-0.89,0.46-1.86,1.11-4.13c-3.33,1.03-5.68,1.76-8.24,2.54
		c-0.93-1.1-2.21-2.64-3.36-4.01c2.66-2.1,5.23-4.33,8.02-6.24c0.86-0.59,2.34-0.29,3.76-1.37c-1.97-0.56-3.94-1.11-7.11-2
		c2.05-0.6,2.87-0.84,3.5-1.02c1.28-6.65-5.31-5.09-8.19-7.79c2.14-2.57,4.19-5.01,6.6-7.9c-1.37-0.14-2.31-0.25-3.59-0.38
		c0.98-1.25,1.84-2.34,2.34-2.97c4.06,0.95,7.62,1.79,11.13,2.62c2.06-2.2-1.48-10.13,6.45-5.26c0.82-3.21,1.54-6.01,2.41-9.45
		c0.35-0.19,1.43-0.79,2.71-1.51c-1.2-1.37-2.21-2.52-4.06-4.63c2.67,0.82,3.96,1.22,5.44,1.67c0.19-1.49,0.33-2.69,0.51-4.19
		c3.08,3.64,3.08,3.64,5.42,0.97C299.17,748.8,299.74,749.76,300.32,750.71c0.18,1.87,0.36,3.72,0.61,6.17
		c-1.58-0.69-2.66-1.16-3.7-1.61c0.44-1.45,0.77-2.51,1.46-4.76c-2.04,1.62-3.07,2.43-3.46,2.74c1.2,5.43,2.27,10.26,3.35,15.12
		c5.28-1.15,8.24-3.81,8.17-6.89c-1.97-1.25-3.45-2.18-4.93-3.12c0.26-0.4,0.5-0.79,0.75-1.19c1.16,0.37,2.33,0.74,2.91,0.93
		C303.83,755.74,302.07,753.23,300.32,750.71C300.32,750.7,300.31,750.7,300.32,750.71"/>
	<path class="st19" d="M316.66,806.29c0.56-0.55,1.11-1.1,1.66-1.64c0.62,0.56,1.2,1.16,1.86,1.67c0.49,0.38,1.06,0.64,1.6,0.95
		c0.24-0.49,0.47-0.97,0.71-1.46c-2.93-1.48-5.86-2.96-8.78-4.44c-0.44,0.18-0.88,0.38-1.32,0.56c0.52,2.78,1.03,5.55,1.54,8.33
		c4-1.87,2.69,3.15,4.86,3.79c1.44-0.78,2.88-1.54,5.68-3.05C321.47,809.19,319.07,807.75,316.66,806.29z"/>
	<path class="st19" d="M292.39,801.33c-3.19-7.22,3.77-5.46,6.7-9.03c-1.15-0.7-2.45-2.17-3.51-2c-2.83,0.42-5.56,1.55-8.32,2.44
		c-0.18,0.06-0.41,0.61-0.34,0.7c4.19,5.08-2.62,1.8-2.75,3.86C286.58,798.47,289.08,799.69,292.39,801.33z"/>
	<path class="st19" d="M346.62,791.1c2.75-2.64,5.09-3.95,5.91-5.89c0.97-2.28,0.63-5.11,0.87-7.71c-0.28,0.04-0.57,0.06-0.85,0.1
		c-0.63,1.2-1.25,2.39-1.87,3.59c-1-0.6-1.99-1.2-4.05-2.45C346.62,782.93,346.62,786.53,346.62,791.1z"/>
	<path class="st19" d="M336.17,810.92c-3.85,1.06-7.11,1.95-11.04,3.03C330.73,817.86,333.35,814.89,336.17,810.92z"/>
</g>
<g id="XMLID_5_">
	<path class="st19" d="M381.18,192.89c0.95,0.53,1.89,1.06,2.93,1.64c3.66-2.07,3.66-2.07,6.92,2.98c-0.18-1.46-0.37-2.34-0.38-3.21
		c-0.01-1,0.13-2,0.21-3.04c2.51-0.8,3.81,0.13,5.57,4.46c1.89-2.97,6.58-1.21,7.67-5.55c0.21-0.82,1.99-1.25,3.06-1.86
		c0.72,1.55,1.29,2.8,1.96,4.23c-0.66,0.34-1.33,0.68-2.21,1.13c1.07,0.51,1.87,0.88,3.45,1.63c-1.73,0.48-2.63,0.74-3.88,1.09
		c0.46,0.91,0.87,1.73,1.4,2.8c-0.89,0.25-1.72,0.49-2.75,0.79c0.82,1.56,1.96,3.4-2.09,3.04c0.26,0.28,0.52,0.56,0.78,0.84
		c2.67,0.16,5.34,0.33,8.07,0.49c0.48-0.53,1.04-1.27,1.72-1.86c0.79-0.69,1.68-1.26,2.53-1.88c0.65,0.91,1.33,1.78,1.95,2.71
		c0.99,1.46,1.96,2.95,2.93,4.44c0.16,0.25,0.46,0.69,0.38,0.79c-2,2.52,0.87,4.41,0.83,6.66c-0.7,0.19-1.42,0.39-2.12,0.58
		c0.02,0.18,0.05,0.35,0.08,0.53c0.52-0.04,1.05-0.09,2.35-0.2c-0.85,0.95-1.41,1.42-1.75,2.01c-0.44,0.75-1.23,2.07-0.97,2.36
		c1.65,1.86-0.1,3.04-0.95,3.88c-0.86,0.86-2.47,0.95-4.4,1.59c-0.42,1.28,0.97,3.22,3.54,3.95c0.94,0.27,2.02,0.92,2.53,1.72
		c1.19,1.89,2.07,3.96,5.49,3.13c-1.23,1.73-2.07,2.91-3.1,4.36c-0.63-0.82-1.19-1.57-1.87-2.46c-0.74,0.44-1.5,0.89-2.57,1.52
		c-0.33-1.12-0.62-2.14-1.08-3.77c-0.89,1.01-1.52,1.75-1.67,1.92c-1.53,0.38-2.48,0.62-3.44,0.87c0.74,1.12,1.24,2.81,2.26,3.24
		c2.04,0.86,2.26,1.33,0.26,2.41c1.14,0.16,2.29,0.33,3.88,0.55c-1.17,1.3-2.02,2.26-2.76,3.09c-0.32-1.02-0.6-1.91-0.88-2.8
		c-0.89,0.69-1.84,1.32-2.66,2.08c-0.52,0.47-0.82,1.53-1.31,1.6c-0.66,0.09-1.67-0.33-2.08-0.88c-0.74-0.96-1.23-2.13-1.65-3.28
		c-0.4-1.12-0.57-2.33-0.85-3.49c-0.36,0.07-0.72,0.14-1.07,0.22c0.72,2.73,1.45,5.46,2.28,8.56c-1.25-0.77-1.97-1.21-2.68-1.65
		c-0.09,0.74-0.19,1.47-0.3,2.2c-0.2,0.09-0.41,0.17-0.62,0.25c-0.43-1.37-0.87-2.73-1.27-3.99c-1.67,1.26-3.4,2.56-5.13,3.85
		c0.4-0.68,0.79-1.36,1.18-2.04c-1.36-1.06-2.73-2.13-4.09-3.2c-0.33,0.44-0.67,0.89-0.99,1.33c-1.82,1.51-3.63,3.05-5.5,4.51
		c-0.12,0.09-0.68-0.38-1.04-0.6c-0.21,0.19-0.41,0.4-0.62,0.59c0.84,0.91,1.69,1.82,2.73,2.94c-0.6,0.12-1.46,0.31-2.77,0.58
		c0.72,0.37,1.11,0.58,1.5,0.79c-0.05,0.18-0.1,0.36-0.14,0.55c-0.9-0.26-1.8-0.51-2.78-0.8c1.54-2.55,1.41-2.74-0.96-3.7
		c-1.04-0.42-1.94-1.2-2.79-1.74c-0.51,2.48-1.14,5.51-1.7,8.24c-2.3-0.65-4.26-1.21-6.11-1.74c-0.49,1.77-0.8,2.89-1.11,4
		c-0.43-0.1-0.87-0.2-1.31-0.3c0.98-5.05,1.97-10.12,2.99-15.37c-1.21,0-2,0-2.32,0c-0.38,1.5-0.33,3.24-1.17,3.97
		c-0.6,0.53-2.38-0.27-3.67-0.48c1.09-3.82,1.09-3.82-1.05-7.73c-0.28,0.71-0.36,1.51-0.7,1.64c-1.07,0.42-2.22,0.58-3.35,0.86
		c-0.18-0.8-0.76-1.97-0.45-2.31c0.73-0.77,1.87-1.54,2.88-1.58c2.68-0.1,5.37,0.19,8.1-0.03c-0.74-0.09-1.48-0.18-2.81-0.33
		c2.65-1.47,4.83-2.69,7.02-3.9c-0.18-0.33-0.37-0.67-0.56-1c-0.79,0.44-1.58,0.88-2.19,1.22c-2.8-0.99-5.15-4.13-8.33-0.75
		c-0.4,0.43-2.01,0.36-2.49-0.09c-0.63-0.59-0.82-1.76-0.94-2.72c-0.08-0.63,0.33-1.33,0.79-2.94c-2.37,0.74-4.04,1.25-5.87,1.81
		c-0.66-0.79-1.58-1.88-2.39-2.85c1.89-1.5,3.72-3.09,5.71-4.44c0.62-0.42,1.67-0.21,2.68-0.97c-1.4-0.4-2.8-0.79-5.06-1.43
		c1.46-0.43,2.04-0.6,2.49-0.73c0.91-4.73-3.79-3.63-5.83-5.55c1.53-1.83,2.99-3.57,4.7-5.63c-0.97-0.1-1.65-0.18-2.56-0.27
		c0.7-0.89,1.31-1.67,1.67-2.12c2.89,0.68,5.43,1.28,7.93,1.87c1.46-1.57-1.06-7.21,4.6-3.75c0.58-2.28,1.09-4.28,1.72-6.73
		c0.25-0.14,1.02-0.57,1.93-1.07c-0.86-0.97-1.57-1.79-2.89-3.29c1.9,0.58,2.82,0.87,3.87,1.19c0.13-1.06,0.23-1.92,0.36-2.99
		c2.19,2.59,2.19,2.59,3.86,0.69C380.36,191.53,380.77,192.21,381.18,192.89c0.12,1.33,0.26,2.65,0.43,4.39
		c-1.12-0.49-1.89-0.82-2.63-1.14c0.31-1.03,0.55-1.79,1.04-3.39c-1.45,1.15-2.19,1.73-2.46,1.95c0.86,3.87,1.62,7.31,2.38,10.76
		c3.76-0.82,5.87-2.71,5.81-4.91c-1.4-0.89-2.46-1.55-3.51-2.22c0.18-0.28,0.36-0.57,0.53-0.85c0.83,0.26,1.66,0.53,2.07,0.66
		C383.69,196.48,382.43,194.69,381.18,192.89L381.18,192.89"/>
	<path class="st19" d="M392.83,232.47c0.4-0.39,0.79-0.78,1.18-1.17c0.44,0.4,0.85,0.82,1.33,1.19c0.35,0.27,0.75,0.45,1.14,0.67
		c0.17-0.35,0.33-0.69,0.5-1.04c-2.09-1.06-4.17-2.11-6.26-3.16c-0.31,0.13-0.63,0.27-0.94,0.4c0.37,1.98,0.74,3.95,1.1,5.94
		c2.85-1.33,1.92,2.24,3.46,2.7c1.02-0.55,2.05-1.1,4.04-2.17C396.25,234.54,394.54,233.51,392.83,232.47z"/>
	<path class="st19" d="M375.54,228.94c-2.27-5.14,2.68-3.88,4.77-6.43c-0.82-0.5-1.75-1.55-2.5-1.43c-2.02,0.3-3.96,1.11-5.92,1.74
		c-0.13,0.04-0.29,0.43-0.24,0.5c2.99,3.62-1.87,1.28-1.96,2.75C371.4,226.9,373.18,227.78,375.54,228.94z"/>
	<path class="st19" d="M414.16,221.65c1.96-1.88,3.62-2.81,4.21-4.19c0.69-1.62,0.45-3.64,0.62-5.49c-0.2,0.03-0.4,0.04-0.6,0.07
		c-0.45,0.85-0.89,1.7-1.33,2.56c-0.71-0.43-1.42-0.86-2.89-1.74C414.16,215.84,414.16,218.4,414.16,221.65z"/>
	<path class="st19" d="M406.72,235.77c-2.74,0.75-5.06,1.39-7.86,2.16C402.84,240.72,404.71,238.6,406.72,235.77z"/>
</g>
<path class="st20" d="M421.17,221.07c0-17-13.78-30.79-30.79-30.79c-17,0-30.79,13.78-30.79,30.79c0,17,13.78,30.79,30.79,30.79
	C407.38,251.86,421.17,238.08,421.17,221.07z"/>
<g id="XMLID_6_">
	<path class="st19" d="M323.56,992.62c0.95,0.53,1.89,1.06,2.93,1.64c3.66-2.07,3.66-2.07,6.92,2.98c-0.18-1.46-0.37-2.34-0.38-3.21
		c-0.01-1,0.13-2,0.21-3.04c2.51-0.8,3.81,0.13,5.57,4.46c1.89-2.97,6.58-1.21,7.67-5.55c0.21-0.82,1.99-1.25,3.06-1.86
		c0.72,1.55,1.29,2.8,1.96,4.23c-0.66,0.34-1.33,0.68-2.21,1.13c1.07,0.51,1.87,0.88,3.45,1.63c-1.73,0.48-2.63,0.74-3.88,1.09
		c0.46,0.91,0.87,1.73,1.4,2.8c-0.89,0.25-1.72,0.49-2.75,0.79c0.82,1.56,1.96,3.4-2.09,3.04c0.26,0.28,0.52,0.56,0.78,0.84
		c2.67,0.16,5.34,0.33,8.07,0.49c0.48-0.53,1.04-1.27,1.72-1.86c0.79-0.69,1.68-1.26,2.53-1.88c0.65,0.91,1.33,1.78,1.95,2.71
		c0.99,1.46,1.96,2.95,2.93,4.44c0.16,0.25,0.46,0.69,0.38,0.79c-2,2.52,0.87,4.41,0.83,6.66c-0.7,0.19-1.42,0.39-2.12,0.58
		c0.02,0.18,0.05,0.35,0.08,0.53c0.52-0.04,1.05-0.09,2.35-0.2c-0.85,0.95-1.41,1.42-1.75,2.01c-0.44,0.75-1.23,2.07-0.97,2.36
		c1.65,1.86-0.1,3.04-0.95,3.88c-0.86,0.86-2.47,0.95-4.4,1.59c-0.42,1.28,0.97,3.22,3.54,3.95c0.94,0.27,2.02,0.92,2.53,1.72
		c1.19,1.89,2.07,3.96,5.49,3.13c-1.23,1.73-2.07,2.91-3.1,4.36c-0.63-0.82-1.19-1.57-1.87-2.46c-0.74,0.44-1.5,0.89-2.57,1.52
		c-0.33-1.12-0.62-2.14-1.08-3.77c-0.89,1.01-1.52,1.75-1.67,1.92c-1.53,0.38-2.48,0.62-3.44,0.87c0.74,1.12,1.24,2.81,2.26,3.24
		c2.04,0.86,2.26,1.33,0.26,2.41c1.14,0.16,2.29,0.33,3.88,0.55c-1.17,1.3-2.02,2.26-2.76,3.09c-0.32-1.02-0.6-1.91-0.88-2.8
		c-0.89,0.69-1.84,1.32-2.66,2.08c-0.52,0.47-0.82,1.53-1.31,1.6c-0.66,0.09-1.67-0.33-2.08-0.88c-0.74-0.96-1.23-2.13-1.65-3.28
		c-0.4-1.12-0.57-2.33-0.85-3.49c-0.36,0.07-0.72,0.14-1.07,0.22c0.72,2.73,1.45,5.46,2.28,8.56c-1.25-0.77-1.97-1.21-2.68-1.65
		c-0.09,0.74-0.19,1.47-0.3,2.2c-0.2,0.09-0.41,0.17-0.62,0.25c-0.43-1.37-0.87-2.73-1.27-3.99c-1.67,1.26-3.4,2.56-5.13,3.85
		c0.4-0.68,0.79-1.36,1.18-2.04c-1.36-1.06-2.73-2.13-4.09-3.2c-0.33,0.44-0.67,0.89-0.99,1.33c-1.82,1.51-3.63,3.05-5.5,4.51
		c-0.12,0.09-0.68-0.38-1.04-0.6c-0.21,0.19-0.41,0.4-0.62,0.59c0.84,0.91,1.69,1.82,2.73,2.94c-0.6,0.12-1.46,0.31-2.77,0.58
		c0.72,0.37,1.11,0.58,1.5,0.79c-0.05,0.18-0.1,0.36-0.14,0.55c-0.9-0.26-1.8-0.51-2.78-0.8c1.54-2.55,1.41-2.74-0.96-3.7
		c-1.04-0.42-1.94-1.2-2.79-1.74c-0.51,2.48-1.14,5.51-1.7,8.24c-2.3-0.65-4.26-1.21-6.11-1.74c-0.49,1.77-0.8,2.89-1.11,4
		c-0.43-0.1-0.87-0.2-1.31-0.3c0.98-5.05,1.97-10.12,2.99-15.37c-1.21,0-2,0-2.32,0c-0.38,1.5-0.33,3.24-1.17,3.97
		c-0.6,0.53-2.38-0.27-3.67-0.48c1.09-3.82,1.09-3.82-1.05-7.73c-0.28,0.71-0.36,1.51-0.7,1.64c-1.07,0.42-2.22,0.58-3.35,0.86
		c-0.18-0.8-0.76-1.97-0.45-2.31c0.73-0.77,1.87-1.54,2.88-1.58c2.68-0.1,5.37,0.19,8.1-0.03c-0.74-0.09-1.48-0.18-2.81-0.33
		c2.65-1.47,4.84-2.69,7.02-3.9c-0.18-0.33-0.37-0.67-0.56-1c-0.79,0.44-1.58,0.88-2.19,1.22c-2.8-0.99-5.15-4.13-8.33-0.75
		c-0.4,0.43-2.01,0.36-2.49-0.09c-0.63-0.58-0.82-1.76-0.94-2.72c-0.08-0.63,0.33-1.33,0.79-2.94c-2.37,0.74-4.04,1.25-5.87,1.81
		c-0.66-0.79-1.58-1.88-2.39-2.85c1.89-1.5,3.72-3.09,5.71-4.44c0.62-0.42,1.67-0.21,2.68-0.97c-1.4-0.4-2.8-0.79-5.06-1.43
		c1.46-0.43,2.04-0.6,2.49-0.73c0.91-4.73-3.79-3.63-5.83-5.55c1.53-1.83,2.99-3.57,4.7-5.63c-0.97-0.1-1.65-0.18-2.56-0.27
		c0.7-0.89,1.31-1.67,1.67-2.12c2.89,0.68,5.43,1.28,7.93,1.87c1.46-1.57-1.06-7.21,4.6-3.75c0.58-2.28,1.09-4.28,1.72-6.73
		c0.25-0.14,1.02-0.57,1.93-1.07c-0.86-0.97-1.57-1.79-2.89-3.29c1.9,0.58,2.82,0.87,3.87,1.19c0.13-1.06,0.23-1.92,0.36-2.99
		c2.19,2.59,2.19,2.59,3.86,0.69C322.74,991.26,323.15,991.94,323.56,992.62c0.12,1.33,0.26,2.65,0.43,4.39
		c-1.12-0.49-1.89-0.82-2.63-1.14c0.31-1.03,0.55-1.79,1.04-3.39c-1.45,1.15-2.19,1.73-2.46,1.95c0.86,3.87,1.62,7.31,2.38,10.76
		c3.76-0.82,5.87-2.71,5.81-4.91c-1.4-0.89-2.46-1.55-3.51-2.22c0.18-0.28,0.36-0.57,0.53-0.85c0.83,0.26,1.66,0.53,2.07,0.66
		C326.06,996.2,324.81,994.42,323.56,992.62C323.56,992.61,323.55,992.61,323.56,992.62"/>
	<path class="st19" d="M335.2,1032.2c0.4-0.39,0.79-0.78,1.18-1.17c0.44,0.4,0.85,0.82,1.33,1.19c0.35,0.27,0.75,0.45,1.14,0.67
		c0.17-0.35,0.33-0.69,0.5-1.04c-2.09-1.06-4.17-2.11-6.26-3.16c-0.31,0.13-0.63,0.27-0.94,0.4c0.37,1.98,0.74,3.95,1.1,5.94
		c2.85-1.33,1.92,2.24,3.46,2.7c1.02-0.55,2.05-1.1,4.04-2.17C338.62,1034.27,336.91,1033.24,335.2,1032.2z"/>
	<path class="st19" d="M317.91,1028.67c-2.27-5.14,2.68-3.88,4.77-6.43c-0.82-0.5-1.75-1.55-2.5-1.43c-2.02,0.3-3.96,1.11-5.92,1.74
		c-0.13,0.04-0.29,0.43-0.24,0.5c2.99,3.62-1.87,1.28-1.96,2.75C313.78,1026.63,315.56,1027.5,317.91,1028.67z"/>
	<path class="st19" d="M356.53,1021.38c1.96-1.88,3.62-2.81,4.21-4.19c0.69-1.62,0.45-3.64,0.62-5.49c-0.2,0.03-0.4,0.04-0.6,0.07
		c-0.45,0.85-0.89,1.7-1.33,2.56c-0.71-0.43-1.42-0.86-2.89-1.74C356.53,1015.56,356.53,1018.13,356.53,1021.38z"/>
	<path class="st19" d="M349.1,1035.5c-2.74,0.75-5.06,1.39-7.86,2.16C345.22,1040.44,347.09,1038.32,349.1,1035.5z"/>
</g>
<path class="st20" d="M362.94,1021.39c0-17-13.78-30.79-30.79-30.79c-17,0-30.79,13.78-30.79,30.79c0,17.01,13.78,30.79,30.79,30.79
	C349.16,1052.17,362.94,1038.39,362.94,1021.39z"/>
<path class="st20" d="M353.71,792.02c0-24.64-19.32-44.61-43.15-44.61s-43.15,19.97-43.15,44.61c0,24.63,19.32,44.61,43.15,44.61
	C334.39,836.63,353.71,816.66,353.71,792.02z"/>
<circle class="st20" cx="431.65" cy="507.59" r="70.99"/>
<path class="st20" d="M558.03,563.72c0-25.72-18.88-46.58-42.17-46.58c-23.29,0-42.17,20.85-42.17,46.58s18.88,46.58,42.17,46.58
	S558.03,589.45,558.03,563.72z"/>
<ellipse transform="matrix(0.7071 -0.7071 0.7071 0.7071 -301.9043 467.2797)" class="st20" cx="413.1" cy="598.07" rx="41.96" ry="41.96"/>
<polyline class="st3" points="21.11,282.88 10.19,305.81 33.78,317.05 "/>
<polyline class="st21" points="894.24,778.73 883.31,801.66 862.7,790.19 "/>
<polyline class="st21" points="308.47,1068.31 305.59,1093.55 280.97,1090.56 "/>
<polyline class="st3" points="455.49,45.41 461.26,20.67 435.82,14.73 "/>
<g class="st22">
	<path class="st23" d="M890.17,769.13l4.95-12.88h1.84l5.27,12.88h-1.94l-1.5-3.9h-5.39l-1.42,3.9H890.17z M893.89,763.84h4.37
		l-1.34-3.57c-0.41-1.08-0.71-1.97-0.91-2.67c-0.16,0.83-0.4,1.65-0.69,2.46L893.89,763.84z"/>
</g>
<g class="st22">
	<path class="st23" d="M16.84,274.12l4.95-12.88h1.84l5.27,12.88h-1.94l-1.5-3.9h-5.39l-1.42,3.9H16.84z M20.56,268.83h4.37
		l-1.34-3.57c-0.41-1.08-0.71-1.97-0.91-2.67c-0.16,0.83-0.4,1.65-0.69,2.46L20.56,268.83z"/>
</g>
<g class="st22">
	<path class="st23" d="M419.18,19.26V6.38h4.83c0.98,0,1.77,0.13,2.37,0.39c0.59,0.26,1.06,0.66,1.4,1.21s0.51,1.11,0.51,1.7
		c0,0.55-0.15,1.07-0.45,1.56s-0.75,0.88-1.35,1.18c0.78,0.23,1.38,0.62,1.8,1.17s0.63,1.2,0.63,1.95c0,0.6-0.13,1.17-0.38,1.68
		c-0.25,0.52-0.57,0.92-0.94,1.2s-0.85,0.49-1.41,0.64s-1.26,0.21-2.08,0.21H419.18z M420.88,11.79h2.79c0.76,0,1.3-0.05,1.63-0.15
		c0.43-0.13,0.76-0.34,0.98-0.64s0.33-0.67,0.33-1.12c0-0.43-0.1-0.8-0.31-1.13c-0.21-0.33-0.5-0.55-0.88-0.67s-1.03-0.18-1.96-0.18
		h-2.58V11.79z M420.88,17.74h3.21c0.55,0,0.94-0.02,1.16-0.06c0.39-0.07,0.72-0.19,0.98-0.35s0.48-0.4,0.65-0.72
		c0.17-0.31,0.25-0.67,0.25-1.08c0-0.48-0.12-0.9-0.37-1.25c-0.25-0.35-0.59-0.6-1.02-0.75s-1.06-0.22-1.89-0.22h-2.98V17.74z"/>
</g>
<g class="st22">
	<path class="st23" d="M264.55,1097.32v-12.88h4.83c0.98,0,1.77,0.13,2.37,0.39c0.59,0.26,1.06,0.66,1.4,1.21s0.51,1.11,0.51,1.7
		c0,0.55-0.15,1.07-0.45,1.56s-0.75,0.88-1.35,1.18c0.78,0.23,1.38,0.62,1.8,1.17s0.63,1.2,0.63,1.95c0,0.6-0.13,1.17-0.38,1.68
		c-0.25,0.52-0.57,0.92-0.94,1.2s-0.85,0.49-1.41,0.64s-1.26,0.21-2.08,0.21H264.55z M266.26,1089.85h2.79
		c0.76,0,1.3-0.05,1.63-0.15c0.43-0.13,0.76-0.34,0.98-0.64s0.33-0.67,0.33-1.12c0-0.43-0.1-0.8-0.31-1.13
		c-0.21-0.33-0.5-0.55-0.88-0.67s-1.03-0.18-1.96-0.18h-2.58V1089.85z M266.26,1095.8h3.21c0.55,0,0.94-0.02,1.16-0.06
		c0.39-0.07,0.72-0.19,0.98-0.35s0.48-0.4,0.65-0.72c0.17-0.31,0.25-0.67,0.25-1.08c0-0.48-0.12-0.9-0.37-1.25
		c-0.25-0.35-0.59-0.6-1.02-0.75s-1.06-0.22-1.89-0.22h-2.98V1095.8z"/>
</g>
<g class="st22">
	<path class="st23" d="M788.71,984.42v-12.88h4.86c0.86,0,1.51,0.04,1.96,0.12c0.63,0.11,1.16,0.31,1.59,0.6
		c0.43,0.3,0.77,0.71,1.03,1.24s0.39,1.12,0.39,1.76c0,1.1-0.35,2.02-1.04,2.78c-0.7,0.76-1.96,1.14-3.78,1.14h-3.3v5.24H788.71z
		 M790.41,977.66h3.33c1.1,0,1.88-0.21,2.35-0.62s0.69-0.99,0.69-1.73c0-0.54-0.14-1-0.41-1.38c-0.27-0.38-0.63-0.64-1.08-0.76
		c-0.29-0.08-0.82-0.11-1.59-0.11h-3.29V977.66z"/>
	<path class="st23" d="M800.47,984.42v-12.88h1.58v12.88H800.47z"/>
	<path class="st23" d="M810.6,983.27c-0.59,0.5-1.15,0.85-1.69,1.05s-1.12,0.31-1.74,0.31c-1.03,0-1.81-0.25-2.37-0.75
		c-0.55-0.5-0.83-1.14-0.83-1.92c0-0.46,0.1-0.88,0.31-1.25c0.21-0.38,0.48-0.68,0.82-0.91s0.72-0.4,1.14-0.52
		c0.31-0.08,0.78-0.16,1.41-0.24c1.28-0.15,2.22-0.33,2.82-0.54c0.01-0.22,0.01-0.35,0.01-0.41c0-0.64-0.15-1.1-0.45-1.36
		c-0.4-0.36-1.01-0.54-1.8-0.54c-0.74,0-1.29,0.13-1.65,0.39s-0.62,0.72-0.79,1.38l-1.55-0.21c0.14-0.66,0.37-1.2,0.69-1.6
		c0.32-0.41,0.79-0.72,1.4-0.94c0.61-0.22,1.31-0.33,2.12-0.33c0.8,0,1.45,0.09,1.94,0.28s0.86,0.42,1.1,0.71
		c0.23,0.29,0.4,0.64,0.49,1.08c0.05,0.27,0.08,0.76,0.08,1.46v2.11c0,1.47,0.03,2.4,0.1,2.79c0.07,0.39,0.2,0.76,0.4,1.12h-1.65
		C810.75,984.09,810.64,983.71,810.6,983.27z M810.47,979.74c-0.57,0.23-1.44,0.43-2.58,0.6c-0.65,0.09-1.11,0.2-1.38,0.32
		s-0.48,0.29-0.62,0.51s-0.22,0.48-0.22,0.75c0,0.42,0.16,0.77,0.48,1.05s0.79,0.42,1.4,0.42c0.61,0,1.15-0.13,1.63-0.4
		s0.82-0.63,1.04-1.09c0.17-0.36,0.26-0.88,0.26-1.58V979.74z"/>
	<path class="st23" d="M814.52,984.42v-9.33h1.42v1.33c0.69-1.03,1.68-1.54,2.97-1.54c0.56,0,1.08,0.1,1.55,0.3
		c0.47,0.2,0.83,0.47,1.06,0.8s0.4,0.72,0.49,1.17c0.06,0.29,0.09,0.81,0.09,1.54v5.74h-1.58v-5.68c0-0.64-0.06-1.13-0.19-1.45
		s-0.34-0.57-0.65-0.77c-0.31-0.19-0.68-0.29-1.1-0.29c-0.67,0-1.25,0.21-1.74,0.64s-0.73,1.24-0.73,2.43v5.1H814.52z"/>
</g>
<g class="st22">
	<path class="st23" d="M788.12,1001.88l1.61-0.14c0.08,0.64,0.25,1.17,0.53,1.59c0.28,0.41,0.71,0.75,1.3,1
		c0.59,0.25,1.25,0.38,1.98,0.38c0.65,0,1.22-0.1,1.72-0.29s0.87-0.46,1.11-0.79s0.37-0.71,0.37-1.1c0-0.4-0.12-0.76-0.35-1.06
		s-0.62-0.56-1.16-0.76c-0.35-0.13-1.11-0.34-2.29-0.63s-2.01-0.55-2.49-0.8c-0.62-0.32-1.07-0.72-1.38-1.2s-0.45-1.01-0.45-1.6
		c0-0.65,0.18-1.26,0.55-1.82s0.91-1,1.62-1.29s1.5-0.44,2.37-0.44c0.96,0,1.8,0.15,2.53,0.46c0.73,0.31,1.29,0.76,1.68,1.36
		s0.6,1.27,0.63,2.03l-1.63,0.12c-0.09-0.81-0.38-1.43-0.89-1.85s-1.25-0.62-2.25-0.62c-1.03,0-1.78,0.19-2.25,0.57
		c-0.47,0.38-0.71,0.83-0.71,1.37c0,0.46,0.17,0.84,0.5,1.14c0.33,0.3,1.18,0.61,2.57,0.92c1.39,0.31,2.34,0.59,2.85,0.82
		c0.75,0.35,1.3,0.78,1.66,1.31s0.54,1.14,0.54,1.83c0,0.69-0.2,1.33-0.59,1.94c-0.39,0.61-0.96,1.08-1.69,1.42
		c-0.74,0.34-1.56,0.5-2.48,0.5c-1.17,0-2.14-0.17-2.93-0.51s-1.41-0.85-1.85-1.53C788.38,1003.52,788.15,1002.74,788.12,1001.88z"
		/>
	<path class="st23" d="M806.6,1002.6l1.55,0.2c-0.17,1.07-0.6,1.91-1.3,2.52c-0.7,0.61-1.56,0.91-2.58,0.91
		c-1.28,0-2.3-0.42-3.08-1.25c-0.78-0.84-1.16-2.03-1.16-3.59c0-1.01,0.17-1.89,0.5-2.65s0.84-1.32,1.53-1.7
		c0.68-0.38,1.43-0.57,2.23-0.57c1.01,0,1.84,0.26,2.49,0.77s1.06,1.24,1.24,2.18l-1.54,0.24c-0.15-0.63-0.41-1.1-0.78-1.42
		s-0.82-0.47-1.35-0.47c-0.8,0-1.44,0.29-1.94,0.86c-0.5,0.57-0.75,1.47-0.75,2.71c0,1.25,0.24,2.17,0.72,2.73s1.11,0.85,1.88,0.85
		c0.62,0,1.14-0.19,1.56-0.57S806.49,1003.39,806.6,1002.6z"/>
	<path class="st23" d="M815.6,1004.87c-0.59,0.5-1.15,0.85-1.69,1.05s-1.12,0.31-1.75,0.31c-1.03,0-1.81-0.25-2.36-0.75
		c-0.55-0.5-0.83-1.14-0.83-1.92c0-0.46,0.1-0.88,0.31-1.25c0.21-0.38,0.48-0.68,0.82-0.91s0.72-0.4,1.14-0.52
		c0.31-0.08,0.78-0.16,1.41-0.24c1.28-0.15,2.22-0.33,2.82-0.54c0.01-0.22,0.01-0.35,0.01-0.41c0-0.64-0.15-1.1-0.45-1.36
		c-0.4-0.36-1-0.54-1.8-0.54c-0.74,0-1.29,0.13-1.65,0.39s-0.62,0.72-0.79,1.38l-1.55-0.21c0.14-0.66,0.37-1.2,0.7-1.6
		c0.32-0.41,0.79-0.72,1.4-0.94c0.61-0.22,1.32-0.33,2.12-0.33c0.8,0,1.44,0.09,1.94,0.28s0.87,0.42,1.1,0.71
		c0.23,0.29,0.4,0.64,0.49,1.08c0.05,0.27,0.08,0.76,0.08,1.46v2.11c0,1.47,0.03,2.4,0.1,2.79c0.07,0.39,0.2,0.76,0.4,1.12h-1.65
		C815.75,1005.69,815.65,1005.31,815.6,1004.87z M815.47,1001.34c-0.57,0.23-1.44,0.43-2.58,0.6c-0.65,0.09-1.11,0.2-1.38,0.32
		s-0.48,0.29-0.62,0.51s-0.22,0.48-0.22,0.75c0,0.42,0.16,0.77,0.48,1.05s0.79,0.42,1.4,0.42c0.61,0,1.15-0.13,1.62-0.4
		s0.82-0.63,1.05-1.09c0.17-0.36,0.25-0.88,0.25-1.58V1001.34z"/>
	<path class="st23" d="M819.48,1006.02v-12.88h1.58v12.88H819.48z"/>
	<path class="st23" d="M829.91,1003.02l1.63,0.2c-0.26,0.96-0.74,1.7-1.43,2.22s-1.59,0.79-2.67,0.79c-1.37,0-2.45-0.42-3.25-1.26
		c-0.8-0.84-1.2-2.02-1.2-3.54c0-1.57,0.4-2.79,1.21-3.66s1.86-1.3,3.15-1.3c1.25,0,2.27,0.42,3.06,1.27s1.19,2.04,1.19,3.59
		c0,0.09,0,0.23-0.01,0.42h-6.96c0.06,1.03,0.35,1.81,0.87,2.36s1.17,0.82,1.95,0.82c0.58,0,1.07-0.15,1.48-0.46
		S829.67,1003.68,829.91,1003.02z M824.71,1000.46h5.21c-0.07-0.79-0.27-1.37-0.6-1.77c-0.5-0.61-1.16-0.91-1.96-0.91
		c-0.73,0-1.34,0.24-1.83,0.73S824.77,999.64,824.71,1000.46z"/>
	<path class="st23" d="M833.97,998.49v-1.8h1.8v1.8H833.97z M833.97,1006.02v-1.8h1.8v1.8H833.97z"/>
	<path class="st23" d="M849.05,1006.02h-1.58v-10.08c-0.38,0.36-0.88,0.73-1.5,1.09s-1.17,0.64-1.67,0.82v-1.53
		c0.88-0.42,1.66-0.92,2.32-1.51s1.13-1.17,1.41-1.72h1.02V1006.02z"/>
	<path class="st23" d="M853.45,994.84v-1.84h1.7v1.45c0,0.79-0.09,1.35-0.27,1.7c-0.25,0.47-0.64,0.83-1.18,1.07l-0.39-0.62
		c0.32-0.13,0.55-0.33,0.71-0.61c0.16-0.28,0.24-0.66,0.26-1.15H853.45z"/>
	<path class="st23" d="M870.2,998.45h-8.51v-1.48h8.51V998.45z M870.2,1002.36h-8.51v-1.48h8.51V1002.36z"/>
	<path class="st23" d="M882.91,1006.02h-1.58v-10.08c-0.38,0.36-0.88,0.73-1.5,1.09s-1.17,0.64-1.67,0.82v-1.53
		c0.88-0.42,1.66-0.92,2.32-1.51s1.13-1.17,1.41-1.72h1.02V1006.02z"/>
	<path class="st23" d="M886.21,1006.24l3.73-13.32h1.27l-3.73,13.32H886.21z"/>
	<path class="st23" d="M897.92,1006.02h-1.58v-10.08c-0.38,0.36-0.88,0.73-1.5,1.09s-1.17,0.64-1.67,0.82v-1.53
		c0.88-0.42,1.66-0.92,2.32-1.51s1.13-1.17,1.41-1.72h1.02V1006.02z"/>
	<path class="st23" d="M910.18,996.29l-1.57,0.12c-0.14-0.62-0.34-1.07-0.6-1.35c-0.43-0.45-0.96-0.68-1.58-0.68
		c-0.5,0-0.95,0.14-1.33,0.42c-0.5,0.36-0.89,0.89-1.18,1.59s-0.44,1.69-0.45,2.98c0.38-0.58,0.85-1.01,1.4-1.29
		s1.13-0.42,1.73-0.42c1.05,0,1.95,0.39,2.69,1.17s1.11,1.78,1.11,3.01c0,0.81-0.17,1.56-0.52,2.25c-0.35,0.7-0.83,1.23-1.44,1.6
		s-1.3,0.55-2.07,0.55c-1.32,0-2.39-0.48-3.23-1.45s-1.25-2.57-1.25-4.79c0-2.49,0.46-4.3,1.38-5.43c0.8-0.98,1.88-1.48,3.24-1.48
		c1.01,0,1.84,0.28,2.49,0.85S910.05,995.29,910.18,996.29z M903.72,1001.85c0,0.54,0.12,1.07,0.35,1.56s0.56,0.88,0.97,1.14
		c0.42,0.26,0.85,0.39,1.31,0.39c0.67,0,1.24-0.27,1.72-0.81s0.72-1.27,0.72-2.2c0-0.89-0.24-1.59-0.71-2.1s-1.07-0.77-1.79-0.77
		c-0.71,0-1.32,0.26-1.82,0.77S903.72,1001.02,903.72,1001.85z"/>
	<path class="st23" d="M912,994.84v-1.84h1.7v1.45c0,0.79-0.09,1.35-0.27,1.7c-0.25,0.47-0.64,0.83-1.18,1.07l-0.39-0.62
		c0.32-0.13,0.55-0.33,0.71-0.61c0.16-0.28,0.24-0.66,0.26-1.15H912z M914.72,994.84v-1.84h1.7v1.45c0,0.79-0.09,1.35-0.27,1.7
		c-0.25,0.47-0.64,0.83-1.18,1.07l-0.39-0.62c0.32-0.13,0.55-0.33,0.71-0.61c0.16-0.28,0.24-0.66,0.26-1.15H914.72z"/>
</g>
</svg>
