<?xml version="1.0" encoding="utf-8"?>
<!-- Generator: Adobe Illustrator 27.0.1, SVG Export Plug-In . SVG Version: 6.00 Build 0)  -->
<svg version="1.1" xmlns="http://www.w3.org/2000/svg" xmlns:xlink="http://www.w3.org/1999/xlink" x="0px" y="0px"
	 viewBox="0 0 1500 635" style="enable-background:new 0 0 1500 635;" xml:space="preserve">
<style type="text/css">
	.st0{fill:#BE8BBD;}
	.st1{fill:#E4BE66;}
	.st2{fill:#5CC2E5;}
	.st3{fill:#D77C57;}
	.st4{fill:#9FDCF5;}
	.st5{fill:#F2CA6D;}
	.st6{fill:#7CD1EE;}
	.st7{fill:#F7A280;}
	.st8{fill:#D1A8CE;}
	.st9{fill:#E588AA;}
	.st10{fill:#C494C3;}
	.st11{fill:#F38961;}
	.st12{fill:#89C54E;}
	.st13{fill:#F4A2C3;}
	.st14{fill:#E5E189;}
	.st15{fill:#99CB5A;}
	.st16{fill:#FFD87F;}
	.st17{fill:#F391B4;}
	.st18{fill:#FCF4A8;}
	.st19{fill:#ADD375;}
	.st20{fill:#F1ED91;}
	.st21{fill:none;stroke:#000000;stroke-width:0.5;stroke-miterlimit:10;}
</style>
<g id="Layer_1">
</g>
<g id="Layer_2">
	<g id="XMLID_3_">
		<g>
			<polygon class="st0" points="1500,441.88 1500,472.57 1447.6,503.8 1447.6,534.49 1399.55,563.11 1399.55,532.42 1399.55,501.72 
				1447.6,473.1 			"/>
			<polygon class="st1" points="1500,411.19 1500,441.88 1447.6,473.1 1447.6,442.41 1447.6,411.7 1500,380.48 			"/>
			<polygon class="st0" points="1399.55,440.33 1382.07,450.74 1382.07,420.04 1399.55,409.64 1500,349.8 1500,380.48 1447.6,411.7 
							"/>
			<polygon class="st2" points="1500,319.08 1500,349.8 1399.55,409.64 1399.55,378.92 1447.6,350.3 1447.6,319.61 1500,288.38 			
				"/>
			<polygon class="st3" points="1468.64,276.39 1447.6,288.93 1447.6,319.61 1416.22,338.3 1399.55,348.23 1399.55,317.53 
				1399.55,286.83 1447.6,258.23 1500,227 1500,257.7 			"/>
			<polygon class="st1" points="1500,196.3 1500,227 1447.6,258.23 1447.6,227.52 1447.6,196.83 1447.6,196.82 1500,165.61 			"/>
			<polygon class="st2" points="1500,134.9 1500,165.61 1447.6,196.82 1447.6,196.83 1399.55,225.44 1399.55,194.75 1447.6,166.13 
				1447.6,135.44 1500,104.21 			"/>
			<polygon class="st4" points="1403.21,97.89 1434.6,79.19 1500,104.21 1447.6,135.44 1382.17,110.41 			"/>
			<polygon class="st4" points="1500,288.38 1447.6,319.61 1447.6,288.93 1468.64,276.39 			"/>
			<polygon class="st5" points="1447.6,442.41 1447.6,473.1 1399.55,454.72 1399.55,440.33 1447.6,411.7 			"/>
			<polygon class="st6" points="1447.6,319.61 1447.6,350.3 1416.22,338.3 			"/>
			<polygon class="st5" points="1447.6,227.52 1447.6,258.23 1399.55,239.84 1399.55,225.44 1447.6,196.83 			"/>
			<polygon class="st6" points="1447.6,135.44 1447.6,166.13 1382.17,141.11 1382.17,110.41 			"/>
			<polygon class="st4" points="1447.6,166.13 1399.55,194.75 1334.13,169.74 1350.8,159.81 1382.17,141.11 			"/>
			<polygon class="st7" points="1447.6,258.23 1399.55,286.83 1399.55,256.14 1399.55,239.84 			"/>
			<polygon class="st4" points="1447.6,350.3 1399.55,378.92 1382.07,372.24 1382.07,358.64 1382.07,341.55 1399.55,348.23 
				1416.22,338.3 			"/>
			<polygon class="st8" points="1447.6,473.1 1399.55,501.72 1399.55,471.02 1399.55,454.72 			"/>
			<polygon class="st4" points="1374.63,86.97 1403.21,97.89 1382.17,110.41 1382.17,141.11 1322.22,118.19 1322.22,118.18 			"/>
			<polygon class="st9" points="1399.55,532.42 1399.55,563.11 1281.59,633.38 1281.59,602.66 1281.59,571.96 1334.02,540.75 
				1334.02,571.45 			"/>
			<polygon class="st10" points="1399.55,501.72 1399.55,532.42 1368.17,520.41 			"/>
			<polygon class="st1" points="1399.55,471.02 1399.55,501.72 1368.17,520.41 1334.02,540.75 1281.59,571.96 1281.59,541.26 
				1334.02,510.05 1347.15,502.22 1347.15,471.53 1382.07,450.74 1399.55,440.33 1399.55,454.72 			"/>
			<polygon class="st3" points="1399.55,378.92 1399.55,409.64 1382.07,420.04 1281.59,479.88 1281.59,449.19 1334.02,417.97 
				1382.07,389.34 			"/>
			<polygon class="st11" points="1399.55,317.53 1399.55,348.23 1382.07,341.55 1382.07,327.94 1350.68,315.95 1350.68,315.94 
				1399.55,286.83 			"/>
			<polygon class="st12" points="1399.55,256.14 1399.55,286.83 1350.68,315.94 1347.15,318.05 1347.15,287.35 1334.02,295.17 
				1281.59,326.39 1281.59,295.69 1399.55,225.44 1399.55,239.84 			"/>
			<polygon class="st3" points="1399.55,194.75 1399.55,225.44 1281.59,295.69 1281.59,264.99 1334.02,233.78 			"/>
			<polygon class="st7" points="1221.01,190.57 1240.41,197.99 1268.61,208.76 1288,197.21 1300.38,189.84 1319.38,178.51 
				1322.22,176.84 1334.13,169.74 1399.55,194.75 1334.02,233.78 1281.59,264.99 1156.21,217.06 1208.62,185.83 			"/>
			<polygon class="st7" points="1399.55,378.92 1382.07,389.34 1382.07,372.24 			"/>
			<polygon class="st13" points="1399.55,532.42 1334.02,571.45 1334.02,540.75 1368.17,520.41 			"/>
			<polygon class="st6" points="1382.17,141.11 1350.8,159.81 1322.22,148.89 1300.38,140.54 1300.38,109.84 1322.22,118.19 			"/>
			<polygon class="st14" points="1382.07,420.04 1382.07,450.74 1347.15,471.53 1334.02,479.35 1334.02,497.22 1334.02,510.05 
				1281.59,541.26 1281.59,510.58 1281.59,479.88 			"/>
			<polygon class="st0" points="1334.02,356.56 1382.07,327.94 1382.07,341.55 1382.07,358.64 1382.07,372.24 1382.07,389.34 
				1334.02,417.97 1334.02,387.26 1302.63,405.96 1281.59,418.48 1281.59,387.78 			"/>
			<polygon class="st8" points="1382.07,327.94 1334.02,356.56 1334.02,325.86 1334.02,313.03 1347.15,318.05 1350.68,315.94 
				1350.68,315.95 			"/>
			<polygon class="st0" points="1374.63,56.27 1374.63,86.97 1322.22,118.18 1322.22,87.49 			"/>
			<polygon class="st8" points="1374.63,56.27 1322.22,87.49 1240.41,56.22 1192.36,84.84 1126.93,59.82 1227.39,0 1292.83,25 			
				"/>
			<polygon class="st0" points="1350.8,159.81 1334.13,169.74 1322.22,176.84 1322.22,148.89 			"/>
			<polygon class="st5" points="1347.15,471.53 1347.15,502.22 1334.02,497.22 1334.02,479.35 			"/>
			<polygon class="st15" points="1347.15,287.35 1347.15,318.05 1334.02,313.03 1334.02,295.17 			"/>
			<polygon class="st16" points="1347.15,502.22 1334.02,510.05 1334.02,497.22 			"/>
			<polygon class="st10" points="1334.02,387.26 1334.02,417.97 1302.63,405.96 			"/>
			<polygon class="st1" points="1334.02,325.86 1334.02,356.56 1281.59,387.78 1281.59,357.09 1281.59,326.39 1334.02,295.17 
				1334.02,313.03 			"/>
			<polygon class="st7" points="1334.02,417.97 1281.59,449.19 1156.21,401.24 1187.57,382.54 1281.59,418.48 1302.63,405.96 			"/>
			<polygon class="st10" points="1322.22,148.89 1322.22,176.84 1319.38,178.51 1300.38,171.24 1271.81,160.32 1240.41,148.31 
				1240.41,117.62 1300.38,140.54 			"/>
			<polygon class="st10" points="1322.22,118.18 1322.22,118.19 1300.38,109.84 1271.81,98.92 1240.41,86.93 1240.41,56.22 
				1322.22,87.49 			"/>
			<polygon class="st5" points="1319.38,178.51 1300.38,189.84 1300.38,171.24 			"/>
			<polygon class="st4" points="1300.38,171.24 1300.38,189.84 1288,197.21 1240.41,179.01 1271.81,160.32 			"/>
			<polygon class="st8" points="1300.38,109.84 1300.38,140.54 1240.41,117.62 1271.81,98.92 			"/>
			<polygon class="st6" points="1288,197.21 1268.61,208.76 1240.41,197.99 1240.41,179.01 			"/>
			<polygon class="st17" points="1281.59,602.66 1281.59,633.38 1216.19,608.36 1216.19,577.65 1156.21,554.73 1156.21,533.39 
				1156.21,524.03 1216.19,546.96 1281.59,571.96 			"/>
			<polygon class="st5" points="1281.59,541.26 1281.59,571.96 1216.19,546.96 1216.19,516.26 			"/>
			<polygon class="st18" points="1281.59,510.58 1281.59,541.26 1216.19,516.26 1187.6,505.33 1187.59,505.33 1156.21,493.34 
				1134.38,484.99 1134.38,454.29 1156.21,462.62 1216.19,485.56 1216.19,454.88 1281.59,479.88 			"/>
			<polygon class="st11" points="1281.59,449.19 1281.59,479.88 1216.19,454.88 1216.19,485.56 1156.21,462.62 1156.21,441.28 
				1156.21,431.94 1156.21,401.24 			"/>
			<polygon class="st10" points="1187.57,382.54 1156.21,370.55 1134.38,362.21 1134.38,362.19 1134.38,331.51 1216.19,362.77 
				1281.59,387.78 1281.59,418.48 			"/>
			<polygon class="st5" points="1281.59,357.09 1281.59,387.78 1216.19,362.77 1134.38,331.51 1134.38,300.79 1216.19,332.07 
				1216.19,301.37 1281.59,326.39 			"/>
			<polygon class="st15" points="1281.59,295.69 1281.59,326.39 1216.19,301.37 1216.19,270.66 			"/>
			<polygon class="st11" points="1281.59,264.99 1281.59,295.69 1216.19,270.66 1216.19,301.37 1165.77,282.1 1156.21,278.44 
				1156.21,247.75 1156.21,217.06 			"/>
			<polygon class="st2" points="1240.41,148.31 1271.81,160.32 1240.41,179.01 			"/>
			<polygon class="st0" points="1271.81,98.92 1240.41,117.62 1240.41,86.93 			"/>
			<polygon class="st2" points="1240.41,179.01 1240.41,197.99 1221.01,190.57 			"/>
			<polygon class="st0" points="1240.41,148.31 1240.41,179.01 1221.01,190.57 1208.62,185.83 1208.62,155.14 1192.36,148.92 
				1192.36,148.91 1192.36,146.24 1240.41,117.62 			"/>
			<polygon class="st0" points="1240.41,86.93 1240.41,117.62 1192.36,146.24 1192.36,115.54 1192.36,84.84 1240.41,56.22 			"/>
			<polygon class="st5" points="1216.19,577.65 1216.19,608.36 1068.97,552.06 1068.97,521.39 1134.38,546.38 1156.21,554.73 			"/>
			<polygon class="st13" points="1216.19,516.26 1216.19,546.96 1156.21,524.03 1187.59,505.33 1187.6,505.33 			"/>
			<polygon class="st16" points="1216.19,301.37 1216.19,332.07 1134.38,300.79 1165.77,282.11 1165.77,282.1 			"/>
			<polygon class="st3" points="1208.62,155.14 1208.62,185.83 1156.21,217.06 1156.21,186.36 			"/>
			<polygon class="st7" points="1126.93,76.93 1174.88,95.26 1126.84,123.87 1174.88,142.23 1192.36,148.91 1192.36,148.92 
				1208.62,155.14 1156.21,186.36 1074.4,155.09 1008.98,130.08 1109.45,70.25 			"/>
			<polygon class="st10" points="1192.36,146.24 1192.36,148.91 1174.88,142.23 1174.88,139.55 			"/>
			<polygon class="st10" points="1192.36,115.54 1192.36,146.24 1174.88,139.55 1174.88,125.94 1174.88,95.26 1126.93,76.93 
				1126.93,59.82 1192.36,84.84 			"/>
			<polygon class="st3" points="1187.59,505.33 1156.21,524.03 1156.21,493.34 			"/>
			<polygon class="st9" points="1187.57,382.54 1156.21,401.24 1156.21,370.55 			"/>
			<polygon class="st11" points="1174.88,139.55 1174.88,142.23 1126.84,123.87 1174.88,95.26 1174.88,125.94 			"/>
			<polygon class="st0" points="1165.77,282.1 1165.77,282.11 1134.38,300.79 1134.38,270.11 1156.21,278.44 			"/>
			<polygon class="st16" points="1156.21,533.39 1156.21,554.73 1134.38,546.38 			"/>
			<polygon class="st1" points="1156.21,524.03 1156.21,533.39 1134.38,546.38 1134.38,515.69 			"/>
			<polygon class="st11" points="1156.21,493.34 1156.21,524.03 1134.38,515.69 1068.97,490.69 1061.4,487.79 1008.98,467.75 
				1008.98,437.06 1074.4,462.06 1134.38,484.99 			"/>
			<polygon class="st18" points="1155.4,441.77 1156.21,441.28 1156.21,462.62 1134.38,454.29 			"/>
			<polygon class="st11" points="1156.21,401.24 1156.21,431.94 1137.18,424.67 1074.4,400.66 1008.98,375.65 1008.98,344.95 			"/>
			<polygon class="st17" points="1156.21,370.55 1156.21,401.24 1008.98,344.95 1008.98,314.27 1008.98,283.57 1074.4,308.57 
				1074.4,339.27 1134.38,362.21 			"/>
			<polygon class="st6" points="1156.21,247.75 1156.21,278.44 1134.38,270.11 1074.4,247.2 1008.98,222.15 1008.98,191.47 
				1008.98,160.77 1074.4,185.79 1074.4,216.49 			"/>
			<polygon class="st4" points="1156.21,217.06 1156.21,247.75 1074.4,216.49 1105.8,197.79 			"/>
			<polygon class="st11" points="1156.21,186.36 1156.21,217.06 1105.8,197.79 1074.4,185.79 1008.98,160.77 1008.98,130.08 
				1074.4,155.09 			"/>
			<polygon class="st7" points="1126.84,430.84 1155.4,441.77 1134.38,454.29 1134.38,484.99 1074.4,462.06 			"/>
			<polygon class="st1" points="1137.18,424.67 1137.18,424.68 1126.84,430.84 1074.4,462.06 1074.4,431.38 1074.4,400.67 
				1074.4,400.66 			"/>
			<polygon class="st5" points="1134.38,515.69 1134.38,546.38 1068.97,521.39 1068.97,500.82 1068.97,490.69 			"/>
			<polygon class="st13" points="1134.38,362.19 1134.38,362.21 1074.4,339.27 1105.8,320.58 1134.38,331.51 			"/>
			<polygon class="st10" points="1040.36,264.87 1008.98,252.85 1008.98,222.15 1074.4,247.2 1134.38,270.11 1134.38,300.79 
				1134.38,331.51 1105.8,320.58 1074.4,308.57 1074.4,277.9 			"/>
			<polygon class="st2" points="1105.8,197.79 1074.4,216.49 1074.4,185.79 			"/>
			<polygon class="st9" points="1105.8,320.58 1074.4,339.27 1074.4,308.57 			"/>
			<polygon class="st5" points="1074.4,431.38 1074.4,462.06 1008.98,437.06 1008.98,406.35 1008.98,375.65 1074.4,400.66 
				1074.4,400.67 			"/>
			<polygon class="st13" points="1074.4,277.9 1074.4,308.57 1008.98,283.57 1040.36,264.87 			"/>
			<polygon class="st11" points="1068.97,490.69 1068.97,500.82 1061.4,497.92 1061.4,487.79 			"/>
			<polygon class="st0" points="894.64,509.79 894.64,529.7 860.63,549.98 860.63,569.89 829.45,588.47 829.45,568.55 
				829.45,548.62 			"/>
			<polygon class="st1" points="894.64,425.38 894.64,445.3 860.63,465.56 860.63,445.64 860.63,425.71 894.64,405.45 			"/>
			<polygon class="st0" points="894.64,155.96 894.64,175.88 818.09,221.48 818.09,201.56 860.63,176.22 			"/>
			<polygon class="st8" points="894.64,155.96 860.63,176.22 818.09,201.56 775.63,185.33 779.24,183.17 818.17,159.99 
				779.24,145.12 813.26,124.84 			"/>
			<polygon class="st16" points="831.79,401.36 852.18,389.21 894.64,405.45 860.63,425.71 818.17,409.48 			"/>
			<polygon class="st8" points="894.64,509.79 829.45,548.62 829.45,528.69 829.45,508.78 786.99,492.53 777.4,498.24 
				765.08,493.53 799.09,473.26 852.18,493.57 			"/>
			<polygon class="st5" points="860.63,445.64 860.63,465.56 765.08,429.03 765.08,409.12 818.17,429.4 818.17,409.48 
				860.63,425.71 			"/>
			<polygon class="st16" points="831.79,401.36 818.17,409.48 818.17,429.4 765.08,409.12 799.09,388.86 			"/>
			<polygon class="st9" points="829.45,568.55 829.45,588.47 752.9,634.07 752.9,614.14 752.9,594.2 786.91,573.96 786.91,593.88 
							"/>
			<polygon class="st10" points="829.45,548.62 829.45,568.55 809.07,560.76 			"/>
			<polygon class="st1" points="809.07,560.76 786.91,573.96 752.9,594.2 752.9,574.29 795.42,548.95 795.42,529.05 829.45,508.78 
				829.45,528.69 829.45,548.62 			"/>
			<polygon class="st16" points="777.4,498.24 786.99,492.53 829.45,508.78 795.42,529.05 752.96,512.81 765.08,505.6 
				765.08,505.59 			"/>
			<polygon class="st13" points="829.45,568.55 786.91,593.88 786.91,573.96 809.07,560.76 			"/>
			<polygon class="st10" points="818.17,159.99 779.24,183.17 779.24,165.03 779.24,145.12 			"/>
			<polygon class="st14" points="818.09,284.7 818.09,304.62 786.91,323.19 786.91,343.12 752.9,363.36 752.9,343.46 752.9,323.53 
							"/>
			<polygon class="st10" points="818.09,201.56 818.09,221.48 775.63,205.25 775.63,185.33 			"/>
			<polygon class="st18" points="818.09,284.7 752.9,323.53 710.44,307.29 724.09,299.17 775.63,268.47 			"/>
			<polygon class="st12" points="813.26,60.13 813.26,80.06 779.24,100.31 779.24,80.38 779.24,60.46 813.26,40.2 			"/>
			<polygon class="st19" points="813.26,40.2 779.24,60.46 683.69,23.93 717.71,3.67 			"/>
			<polygon class="st2" points="799.09,224.69 799.09,244.62 765.08,264.87 765.08,244.95 			"/>
			<polygon class="st4" points="799.09,224.69 765.08,244.95 726.16,230.08 760.18,209.82 			"/>
			<polygon class="st16" points="799.09,473.26 765.08,493.53 726.16,478.65 725.45,475.61 756.65,457.04 			"/>
			<polygon class="st5" points="795.42,529.05 795.42,548.95 752.96,532.74 752.96,528.74 752.96,512.81 			"/>
			<polygon class="st16" points="795.42,548.95 752.9,574.29 710.44,558.06 724.09,549.94 752.96,532.74 			"/>
			<polygon class="st15" points="779.24,80.38 779.24,100.31 736.79,84.07 736.79,64.16 683.69,43.86 683.69,23.93 779.24,60.46 			
				"/>
			<polygon class="st10" points="777.4,498.24 765.08,505.59 765.08,493.53 			"/>
			<polygon class="st5" points="765.08,493.53 765.08,505.59 765.08,505.6 752.96,512.81 752.96,528.74 726.16,518.48 
				726.16,478.65 			"/>
			<polygon class="st6" points="765.08,244.95 765.08,264.87 726.16,249.99 726.16,230.08 			"/>
			<polygon class="st2" points="760.18,189.9 760.18,209.82 726.16,230.08 726.16,210.14 			"/>
			<polygon class="st4" points="760.18,189.9 726.16,210.14 683.69,193.92 717.71,173.66 			"/>
			<polygon class="st17" points="752.9,614.14 752.9,634.07 710.44,617.82 710.44,597.89 671.51,583.03 671.51,569.18 671.51,563.1 
				710.44,577.98 752.9,594.2 			"/>
			<polygon class="st5" points="752.9,574.29 752.9,594.2 710.44,577.98 710.44,558.06 			"/>
			<polygon class="st18" points="752.9,343.46 752.9,363.36 657.35,326.84 657.35,306.92 710.44,327.22 710.44,307.29 752.9,323.53 
							"/>
			<polygon class="st1" points="726.16,478.65 726.16,518.48 691.37,539.21 691.37,537.43 672.82,530.33 694.98,517.15 
				694.98,497.22 			"/>
			<polygon class="st2" points="726.16,230.08 726.16,249.99 683.63,275.32 683.63,255.4 			"/>
			<polygon class="st6" points="726.16,210.14 726.16,230.08 683.69,213.84 683.69,193.92 			"/>
			<polygon class="st16" points="725.45,475.61 726.16,478.65 694.98,497.22 652.51,481 686.53,460.74 			"/>
			<polygon class="st4" points="726.16,230.08 683.63,255.4 641.17,239.17 683.69,213.84 			"/>
			<polygon class="st18" points="724.09,299.17 710.44,307.29 710.44,327.22 657.35,306.92 691.37,286.66 			"/>
			<polygon class="st13" points="724.09,549.94 710.44,558.06 710.44,577.98 671.51,563.1 691.37,551.28 705.54,542.84 			"/>
			<polygon class="st5" points="710.44,597.89 710.44,617.82 614.89,581.31 614.89,561.39 614.89,548.04 614.89,541.45 
				657.35,557.69 657.35,577.61 671.51,583.03 			"/>
			<polygon class="st3" points="705.54,425.33 705.54,445.26 671.51,465.52 671.51,445.59 			"/>
			<polygon class="st7" points="705.54,425.33 671.51,445.59 618.43,425.29 575.96,409.06 641.17,370.24 683.63,386.47 
				652.45,405.05 683.63,416.96 			"/>
			<polygon class="st5" points="694.98,497.22 694.98,517.15 652.51,500.91 652.51,481 			"/>
			<polygon class="st1" points="694.98,125.68 694.98,145.6 618.43,191.21 618.43,171.27 618.43,151.35 652.45,131.1 652.45,151.02 
							"/>
			<polygon class="st16" points="694.98,125.68 652.45,151.02 652.45,131.1 630.36,122.65 630.36,122.64 652.51,109.46 			"/>
			<polygon class="st16" points="694.98,517.15 672.82,530.33 648.92,521.2 628.54,533.33 609.99,526.24 652.51,500.91 			"/>
			<polygon class="st1" points="691.37,539.21 691.37,551.28 671.51,563.1 671.51,569.18 657.35,577.61 657.35,557.69 
				691.37,537.43 			"/>
			<polygon class="st16" points="691.37,537.43 657.35,557.69 614.89,541.45 628.54,533.33 648.92,521.2 672.82,530.33 			"/>
			<polygon class="st3" points="683.63,406.38 683.63,416.96 652.45,405.05 683.63,386.47 			"/>
			<polygon class="st6" points="683.63,255.4 683.63,275.32 641.17,259.1 641.17,239.17 			"/>
			<polygon class="st16" points="671.51,569.18 671.51,583.03 657.35,577.61 			"/>
			<polygon class="st11" points="671.51,445.59 671.51,465.52 575.96,428.98 575.96,409.06 618.43,425.29 			"/>
			<polygon class="st16" points="652.45,131.1 618.43,151.35 575.96,135.12 609.99,114.86 630.36,122.65 			"/>
			<polygon class="st5" points="628.54,533.33 614.89,541.45 614.89,548.04 609.99,546.17 609.99,526.24 			"/>
			<polygon class="st5" points="618.43,171.27 618.43,191.21 575.96,174.96 575.96,155.04 575.96,135.12 618.43,151.35 			"/>
			<polygon class="st3" points="472.64,487.27 472.64,509.86 434.05,532.86 434.05,510.26 434.05,487.65 472.64,464.67 			"/>
			<polygon class="st7" points="472.64,464.67 434.05,487.65 389.9,470.78 341.64,499.51 293.49,481.11 341.74,452.37 
				380.32,429.39 			"/>
			<polygon class="st1" points="460.52,321.15 460.52,343.76 421.93,366.73 421.93,344.14 			"/>
			<polygon class="st16" points="460.52,321.15 421.93,344.14 361.72,321.12 400.31,298.15 			"/>
			<polygon class="st9" points="453.8,172.07 453.8,194.66 415.22,217.64 415.22,195.05 			"/>
			<polygon class="st13" points="453.8,172.07 415.22,195.05 355,172.02 393.59,149.05 			"/>
			<polygon class="st11" points="434.05,510.26 434.05,532.86 389.9,515.99 389.9,493.38 389.9,470.78 434.05,487.65 			"/>
			<polygon class="st9" points="428.96,105.38 428.96,127.99 393.59,149.05 355,172.02 355,149.42 			"/>
			<polygon class="st13" points="428.96,105.38 355,149.42 306.83,131 380.8,86.97 			"/>
			<polygon class="st5" points="421.93,344.14 421.93,366.73 313.56,325.31 313.56,302.71 313.56,280.1 361.72,298.51 
				361.72,321.12 			"/>
			<polygon class="st17" points="415.22,195.05 415.22,217.64 306.83,176.21 306.83,153.61 306.83,131 355,149.42 355,172.02 			"/>
			<polygon class="st1" points="400.31,275.54 400.31,298.15 361.72,321.12 361.72,298.51 			"/>
			<polygon class="st16" points="400.31,275.54 361.72,298.51 313.56,280.1 352.15,257.13 			"/>
			<polygon class="st3" points="389.9,470.78 389.9,493.38 341.64,522.11 341.64,499.51 			"/>
			<polygon class="st11" points="341.64,499.51 341.64,522.11 293.49,503.7 293.49,481.11 			"/>
			<polygon class="st0" points="184.63,547.49 184.63,570.09 146.05,593.06 146.05,570.47 			"/>
			<polygon class="st8" points="184.63,547.49 146.05,570.47 85.83,547.44 50.45,568.51 2.3,550.1 76.24,506.05 124.42,524.47 			
				"/>
			<polygon class="st14" points="184.62,186.97 184.62,209.56 149.26,230.63 149.26,253.24 110.67,276.21 110.67,253.62 
				110.67,231.02 			"/>
			<polygon class="st18" points="184.62,186.97 110.67,231.02 62.5,212.62 77.98,203.4 136.47,168.56 			"/>
			<polygon class="st2" points="161.17,34.04 161.17,83.59 80.07,131.89 80.07,107.11 118.86,84.01 118.86,59.24 			"/>
			<polygon class="st4" points="161.17,34.04 118.86,59.24 66.05,39.05 83.01,28.95 108.35,13.85 			"/>
			<polygon class="st12" points="149.26,383.58 149.26,406.18 110.67,429.15 110.67,406.56 			"/>
			<polygon class="st19" points="149.26,383.58 110.67,406.56 2.3,365.13 40.87,342.14 			"/>
			<polygon class="st10" points="146.05,570.47 146.05,593.06 85.83,570.04 85.83,547.44 			"/>
			<polygon class="st6" points="118.86,59.24 118.86,84.01 66.05,63.83 66.05,39.05 			"/>
			<polygon class="st4" points="118.86,84.01 80.07,107.11 27.25,86.92 40.7,78.91 66.05,63.83 			"/>
			<polygon class="st15" points="110.67,406.56 110.67,429.15 73.55,414.98 50.45,406.14 50.45,428.74 2.3,410.32 2.3,387.73 
				2.3,365.13 			"/>
			<polygon class="st20" points="110.67,253.62 110.67,276.21 2.3,234.79 2.3,212.18 62.5,235.21 62.5,212.62 110.67,231.02 			"/>
			<polygon class="st0" points="85.83,570.04 85.83,592.64 50.45,613.72 50.45,591.12 50.45,568.51 85.83,547.44 			"/>
			<polygon class="st4" points="83.01,28.94 83.01,28.95 66.05,39.05 66.05,63.83 0,38.57 42.32,13.38 			"/>
			<polygon class="st6" points="80.07,107.11 80.07,131.89 27.25,111.7 27.25,86.92 			"/>
			<polygon class="st18" points="77.98,203.38 77.98,203.4 62.5,212.62 62.5,235.21 2.3,212.18 40.87,189.21 			"/>
			<polygon class="st12" points="50.45,406.14 73.55,414.98 50.45,428.74 			"/>
			<polygon class="st6" points="66.05,63.83 40.7,78.91 0,63.37 0,38.57 			"/>
			<polygon class="st10" points="50.45,591.12 50.45,613.72 2.3,595.31 2.3,572.7 2.3,550.1 50.45,568.51 			"/>
		</g>
		<g>
			<line class="st21" x1="726.16" y1="478.65" x2="726.16" y2="518.48"/>
			<line class="st21" x1="726.16" y1="478.65" x2="765.08" y2="493.53"/>
			<line class="st21" x1="694.98" y1="497.22" x2="726.16" y2="478.65"/>
			<line class="st21" x1="725.45" y1="475.61" x2="686.53" y2="460.74"/>
			<line class="st21" x1="756.65" y1="457.04" x2="725.45" y2="475.61"/>
			<polyline class="st21" points="1008.98,375.65 1074.4,400.66 1137.18,424.67 1156.21,431.94 			"/>
			<line class="st21" x1="1281.59" y1="326.39" x2="1216.19" y2="301.37"/>
			<line class="st21" x1="618.43" y1="425.29" x2="671.51" y2="445.59"/>
			<line class="st21" x1="671.51" y1="445.59" x2="705.54" y2="425.33"/>
			<polyline class="st21" points="705.54,425.33 683.63,416.96 652.45,405.05 			"/>
			<line class="st21" x1="575.96" y1="409.06" x2="618.43" y2="425.29"/>
			<line class="st21" x1="652.45" y1="405.05" x2="683.63" y2="386.47"/>
			<line class="st21" x1="683.63" y1="386.47" x2="641.17" y2="370.24"/>
			<line class="st21" x1="641.17" y1="370.24" x2="575.96" y2="409.06"/>
			<line class="st21" x1="575.96" y1="428.98" x2="671.51" y2="465.52"/>
			<line class="st21" x1="671.51" y1="465.52" x2="705.54" y2="445.26"/>
			<line class="st21" x1="683.63" y1="406.38" x2="683.63" y2="416.96"/>
			<line class="st21" x1="683.63" y1="406.38" x2="683.63" y2="386.47"/>
			<line class="st21" x1="575.96" y1="428.98" x2="575.96" y2="409.06"/>
			<line class="st21" x1="671.51" y1="465.52" x2="671.51" y2="445.59"/>
			<line class="st21" x1="705.54" y1="445.26" x2="705.54" y2="425.33"/>
			<line class="st21" x1="752.9" y1="323.53" x2="710.44" y2="307.29"/>
			<polyline class="st21" points="710.44,307.29 724.09,299.17 775.63,268.47 			"/>
			<line class="st21" x1="775.63" y1="268.47" x2="818.09" y2="284.7"/>
			<line class="st21" x1="818.09" y1="284.7" x2="752.9" y2="323.53"/>
			<line class="st21" x1="752.9" y1="363.36" x2="657.35" y2="326.84"/>
			<line class="st21" x1="786.91" y1="343.12" x2="752.9" y2="363.36"/>
			<line class="st21" x1="818.09" y1="304.62" x2="786.91" y2="323.19"/>
			<line class="st21" x1="710.44" y1="327.22" x2="657.35" y2="306.92"/>
			<line class="st21" x1="657.35" y1="306.92" x2="691.37" y2="286.66"/>
			<line class="st21" x1="691.37" y1="286.66" x2="724.09" y2="299.17"/>
			<line class="st21" x1="786.91" y1="323.19" x2="786.91" y2="343.12"/>
			<line class="st21" x1="752.9" y1="343.46" x2="752.9" y2="363.36"/>
			<line class="st21" x1="657.35" y1="306.92" x2="657.35" y2="326.84"/>
			<line class="st21" x1="710.44" y1="327.22" x2="710.44" y2="307.29"/>
			<line class="st21" x1="752.9" y1="343.46" x2="752.9" y2="323.53"/>
			<line class="st21" x1="818.09" y1="304.62" x2="818.09" y2="284.7"/>
			<line class="st21" x1="752.9" y1="594.2" x2="786.91" y2="573.96"/>
			<line class="st21" x1="724.09" y1="549.94" x2="705.54" y2="542.84"/>
			<polyline class="st21" points="705.54,542.84 691.37,551.28 671.51,563.1 			"/>
			<polyline class="st21" points="671.51,563.1 710.44,577.98 752.9,594.2 			"/>
			<line class="st21" x1="752.9" y1="634.07" x2="829.45" y2="588.47"/>
			<line class="st21" x1="710.44" y1="617.82" x2="752.9" y2="634.07"/>
			<line class="st21" x1="671.51" y1="583.03" x2="710.44" y2="597.89"/>
			<line class="st21" x1="786.91" y1="593.88" x2="829.45" y2="568.55"/>
			<polyline class="st21" points="829.45,568.55 809.07,560.76 809.06,560.75 			"/>
			<line class="st21" x1="710.44" y1="597.89" x2="710.44" y2="617.82"/>
			<line class="st21" x1="752.9" y1="614.14" x2="752.9" y2="634.07"/>
			<line class="st21" x1="829.45" y1="568.55" x2="829.45" y2="588.47"/>
			<line class="st21" x1="786.91" y1="593.88" x2="786.91" y2="573.96"/>
			<line class="st21" x1="752.9" y1="614.14" x2="752.9" y2="594.2"/>
			<polyline class="st21" points="671.51,583.03 671.51,569.18 671.51,563.1 			"/>
			<line class="st21" x1="614.89" y1="581.31" x2="710.44" y2="617.82"/>
			<line class="st21" x1="657.35" y1="577.61" x2="671.51" y2="583.03"/>
			<line class="st21" x1="671.51" y1="569.18" x2="657.35" y2="577.61"/>
			<line class="st21" x1="614.89" y1="541.45" x2="657.35" y2="557.69"/>
			<line class="st21" x1="657.35" y1="557.69" x2="691.37" y2="537.43"/>
			<polyline class="st21" points="691.37,537.43 672.82,530.33 648.92,521.2 			"/>
			<polyline class="st21" points="648.92,521.2 628.54,533.33 614.89,541.45 			"/>
			<line class="st21" x1="657.35" y1="577.61" x2="657.35" y2="557.69"/>
			<polyline class="st21" points="614.89,561.39 614.89,548.04 614.89,541.45 			"/>
			<polyline class="st21" points="691.37,551.28 691.37,539.21 691.37,537.43 			"/>
			<line class="st21" x1="614.89" y1="561.39" x2="614.89" y2="581.31"/>
			<polyline class="st21" points="786.91,573.96 809.07,560.76 829.45,548.62 			"/>
			<polyline class="st21" points="752.96,532.74 724.09,549.94 710.44,558.06 			"/>
			<line class="st21" x1="710.44" y1="558.06" x2="752.9" y2="574.29"/>
			<line class="st21" x1="752.9" y1="574.29" x2="795.42" y2="548.95"/>
			<line class="st21" x1="795.42" y1="548.95" x2="752.96" y2="532.74"/>
			<line class="st21" x1="765.08" y1="505.6" x2="752.96" y2="512.81"/>
			<polyline class="st21" points="786.99,492.53 777.4,498.24 765.08,505.59 			"/>
			<line class="st21" x1="752.96" y1="512.81" x2="795.42" y2="529.05"/>
			<line class="st21" x1="795.42" y1="529.05" x2="829.45" y2="508.78"/>
			<line class="st21" x1="829.45" y1="508.78" x2="786.99" y2="492.53"/>
			<polyline class="st21" points="752.96,532.74 752.96,528.74 752.96,512.81 			"/>
			<line class="st21" x1="795.42" y1="548.95" x2="795.42" y2="529.05"/>
			<line class="st21" x1="829.45" y1="528.69" x2="829.45" y2="508.78"/>
			<line class="st21" x1="829.45" y1="528.69" x2="829.45" y2="548.62"/>
			<line class="st21" x1="752.9" y1="574.29" x2="752.9" y2="594.2"/>
			<line class="st21" x1="710.44" y1="558.06" x2="710.44" y2="577.98"/>
			<line class="st21" x1="609.99" y1="546.17" x2="614.89" y2="548.04"/>
			<line class="st21" x1="691.37" y1="539.21" x2="726.16" y2="518.48"/>
			<line class="st21" x1="652.51" y1="500.91" x2="609.99" y2="526.24"/>
			<line class="st21" x1="609.99" y1="526.24" x2="628.54" y2="533.33"/>
			<line class="st21" x1="672.82" y1="530.33" x2="694.98" y2="517.15"/>
			<line class="st21" x1="694.98" y1="517.15" x2="652.51" y2="500.91"/>
			<line class="st21" x1="686.53" y1="460.74" x2="652.51" y2="481"/>
			<line class="st21" x1="652.51" y1="481" x2="694.98" y2="497.22"/>
			<line class="st21" x1="652.51" y1="500.91" x2="652.51" y2="481"/>
			<line class="st21" x1="694.98" y1="517.15" x2="694.98" y2="497.22"/>
			<line class="st21" x1="609.99" y1="526.24" x2="609.99" y2="546.17"/>
			<line class="st21" x1="852.18" y1="493.57" x2="799.09" y2="473.26"/>
			<line class="st21" x1="799.09" y1="473.26" x2="765.08" y2="493.53"/>
			<polyline class="st21" points="765.08,493.53 777.4,498.24 777.43,498.25 			"/>
			<line class="st21" x1="894.64" y1="509.79" x2="852.18" y2="493.57"/>
			<line class="st21" x1="829.45" y1="548.62" x2="894.64" y2="509.79"/>
			<line class="st21" x1="829.45" y1="588.47" x2="860.63" y2="569.89"/>
			<line class="st21" x1="860.63" y1="549.98" x2="894.64" y2="529.7"/>
			<line class="st21" x1="860.63" y1="549.98" x2="860.63" y2="569.89"/>
			<line class="st21" x1="829.45" y1="568.55" x2="829.45" y2="548.62"/>
			<line class="st21" x1="894.64" y1="529.7" x2="894.64" y2="509.79"/>
			<polyline class="st21" points="765.08,505.6 765.08,505.59 765.08,493.53 			"/>
			<line class="st21" x1="726.16" y1="518.48" x2="752.96" y2="528.74"/>
			<line class="st21" x1="799.09" y1="473.26" x2="756.65" y2="457.04"/>
			<polyline class="st21" points="1300.38,140.54 1322.22,148.89 1350.8,159.81 			"/>
			<line class="st21" x1="1447.6" y1="196.82" x2="1500" y2="165.61"/>
			<line class="st21" x1="1399.55" y1="225.44" x2="1447.6" y2="196.83"/>
			<line class="st21" x1="1500" y1="104.21" x2="1434.6" y2="79.19"/>
			<polyline class="st21" points="1434.6,79.19 1403.21,97.89 1382.17,110.41 			"/>
			<line class="st21" x1="1382.17" y1="110.41" x2="1447.6" y2="135.44"/>
			<line class="st21" x1="1447.6" y1="135.44" x2="1500" y2="104.21"/>
			<line class="st21" x1="1447.6" y1="166.13" x2="1382.17" y2="141.11"/>
			<polyline class="st21" points="1382.17,141.11 1350.8,159.81 1334.13,169.74 			"/>
			<line class="st21" x1="1334.13" y1="169.74" x2="1399.55" y2="194.75"/>
			<line class="st21" x1="1399.55" y1="194.75" x2="1447.6" y2="166.13"/>
			<polyline class="st21" points="1403.22,97.89 1403.21,97.89 1374.63,86.97 			"/>
			<polyline class="st21" points="1300.38,109.84 1322.22,118.19 1382.17,141.11 			"/>
			<line class="st21" x1="1500" y1="134.9" x2="1500" y2="104.21"/>
			<line class="st21" x1="1382.17" y1="141.11" x2="1382.17" y2="110.41"/>
			<line class="st21" x1="1447.6" y1="166.13" x2="1447.6" y2="135.44"/>
			<line class="st21" x1="1300.38" y1="109.84" x2="1300.38" y2="140.54"/>
			<line class="st21" x1="1500" y1="134.9" x2="1500" y2="165.61"/>
			<line class="st21" x1="1399.55" y1="194.75" x2="1399.55" y2="225.44"/>
			<polyline class="st21" points="1074.4,247.2 1134.38,270.11 1156.21,278.44 			"/>
			<line class="st21" x1="1008.98" y1="222.15" x2="1074.4" y2="247.2"/>
			<line class="st21" x1="1008.98" y1="160.77" x2="1074.4" y2="185.79"/>
			<line class="st21" x1="1074.4" y1="216.49" x2="1156.21" y2="247.75"/>
			<line class="st21" x1="1105.8" y1="197.79" x2="1074.4" y2="216.49"/>
			<line class="st21" x1="1074.4" y1="216.49" x2="1074.4" y2="185.79"/>
			<line class="st21" x1="1008.98" y1="191.47" x2="1008.98" y2="160.77"/>
			<line class="st21" x1="1156.21" y1="247.75" x2="1156.21" y2="278.44"/>
			<line class="st21" x1="1008.98" y1="191.47" x2="1008.98" y2="222.15"/>
			<line class="st21" x1="1399.55" y1="409.64" x2="1500" y2="349.8"/>
			<polyline class="st21" points="1500,288.38 1468.64,276.39 1468.63,276.38 			"/>
			<line class="st21" x1="1447.6" y1="319.61" x2="1500" y2="288.38"/>
			<line class="st21" x1="1447.6" y1="350.3" x2="1416.22" y2="338.3"/>
			<line class="st21" x1="1382.07" y1="372.24" x2="1399.55" y2="378.92"/>
			<line class="st21" x1="1399.55" y1="378.92" x2="1447.6" y2="350.3"/>
			<line class="st21" x1="1500" y1="319.08" x2="1500" y2="288.38"/>
			<line class="st21" x1="1447.6" y1="350.3" x2="1447.6" y2="319.61"/>
			<line class="st21" x1="1500" y1="319.08" x2="1500" y2="349.8"/>
			<line class="st21" x1="1399.55" y1="378.92" x2="1399.55" y2="409.64"/>
			<line class="st21" x1="1271.81" y1="160.32" x2="1240.41" y2="179.01"/>
			<line class="st21" x1="1240.41" y1="179.01" x2="1288" y2="197.21"/>
			<polyline class="st21" points="1221,190.58 1221.01,190.57 1240.41,179.01 			"/>
			<line class="st21" x1="1240.41" y1="179.01" x2="1240.41" y2="148.31"/>
			<line class="st21" x1="1240.41" y1="179.01" x2="1240.41" y2="197.99"/>
			<line class="st21" x1="1008.98" y1="283.57" x2="1074.4" y2="308.57"/>
			<polyline class="st21" points="1040.37,264.86 1040.36,264.87 1008.98,283.57 			"/>
			<line class="st21" x1="1008.98" y1="344.95" x2="1156.21" y2="401.24"/>
			<polyline class="st21" points="1156.21,401.24 1187.57,382.54 1187.6,382.53 			"/>
			<polyline class="st21" points="1074.4,339.27 1134.38,362.21 1156.21,370.55 			"/>
			<line class="st21" x1="1105.8" y1="320.58" x2="1074.4" y2="339.27"/>
			<line class="st21" x1="1008.98" y1="314.27" x2="1008.98" y2="344.95"/>
			<line class="st21" x1="1156.21" y1="370.55" x2="1156.21" y2="401.24"/>
			<line class="st21" x1="1074.4" y1="339.27" x2="1074.4" y2="308.57"/>
			<line class="st21" x1="1008.98" y1="314.27" x2="1008.98" y2="283.57"/>
			<line class="st21" x1="1281.59" y1="571.96" x2="1334.02" y2="540.75"/>
			<line class="st21" x1="1187.59" y1="505.33" x2="1156.21" y2="524.03"/>
			<polyline class="st21" points="1156.21,524.03 1216.19,546.96 1281.59,571.96 			"/>
			<line class="st21" x1="1281.59" y1="633.38" x2="1399.55" y2="563.11"/>
			<line class="st21" x1="1216.19" y1="608.36" x2="1281.59" y2="633.38"/>
			<line class="st21" x1="1156.21" y1="554.73" x2="1216.19" y2="577.65"/>
			<line class="st21" x1="1334.02" y1="571.45" x2="1399.55" y2="532.42"/>
			<line class="st21" x1="1399.55" y1="532.42" x2="1368.17" y2="520.41"/>
			<line class="st21" x1="1216.19" y1="577.65" x2="1216.19" y2="608.36"/>
			<line class="st21" x1="1281.59" y1="602.66" x2="1281.59" y2="633.38"/>
			<line class="st21" x1="1399.55" y1="532.42" x2="1399.55" y2="563.11"/>
			<line class="st21" x1="1334.02" y1="571.45" x2="1334.02" y2="540.75"/>
			<line class="st21" x1="1281.59" y1="602.66" x2="1281.59" y2="571.96"/>
			<polyline class="st21" points="1156.21,554.73 1156.21,533.39 1156.21,524.03 			"/>
			<line class="st21" x1="1061.4" y1="497.92" x2="1068.97" y2="500.82"/>
			<line class="st21" x1="1061.4" y1="487.79" x2="1061.4" y2="497.92"/>
			<line class="st21" x1="1068.97" y1="552.06" x2="1216.19" y2="608.36"/>
			<line class="st21" x1="1134.38" y1="546.38" x2="1156.21" y2="554.73"/>
			<line class="st21" x1="1156.21" y1="533.39" x2="1134.38" y2="546.38"/>
			<line class="st21" x1="1068.97" y1="490.69" x2="1134.38" y2="515.69"/>
			<line class="st21" x1="1134.38" y1="546.38" x2="1134.38" y2="515.69"/>
			<polyline class="st21" points="1068.97,521.39 1068.97,500.82 1068.97,490.69 			"/>
			<line class="st21" x1="1068.97" y1="521.39" x2="1068.97" y2="552.06"/>
			<polyline class="st21" points="1399.55,501.72 1447.6,473.1 1500,441.88 			"/>
			<line class="st21" x1="1399.55" y1="563.11" x2="1447.6" y2="534.49"/>
			<line class="st21" x1="1447.6" y1="503.8" x2="1500" y2="472.57"/>
			<line class="st21" x1="1447.6" y1="503.8" x2="1447.6" y2="534.49"/>
			<line class="st21" x1="1399.55" y1="532.42" x2="1399.55" y2="501.72"/>
			<line class="st21" x1="1500" y1="472.57" x2="1500" y2="441.88"/>
			<line class="st21" x1="1399.55" y1="239.84" x2="1447.6" y2="258.23"/>
			<line class="st21" x1="1447.6" y1="258.23" x2="1500" y2="227"/>
			<line class="st21" x1="1300.38" y1="171.24" x2="1319.38" y2="178.51"/>
			<line class="st21" x1="1500" y1="196.3" x2="1500" y2="165.61"/>
			<polyline class="st21" points="1447.6,227.52 1447.6,196.83 1447.6,196.82 			"/>
			<line class="st21" x1="1447.6" y1="227.52" x2="1447.6" y2="258.23"/>
			<line class="st21" x1="1500" y1="196.3" x2="1500" y2="227"/>
			<line class="st21" x1="1300.38" y1="171.24" x2="1300.38" y2="189.84"/>
			<line class="st21" x1="1292.83" y1="25" x2="1374.63" y2="56.27"/>
			<line class="st21" x1="1374.63" y1="56.27" x2="1322.22" y2="87.49"/>
			<line class="st21" x1="1322.22" y1="87.49" x2="1240.41" y2="56.22"/>
			<line class="st21" x1="1227.39" y1="0" x2="1292.83" y2="25"/>
			<line class="st21" x1="1240.41" y1="56.22" x2="1192.36" y2="84.84"/>
			<line class="st21" x1="1192.36" y1="84.84" x2="1126.93" y2="59.82"/>
			<line class="st21" x1="1126.93" y1="59.82" x2="1227.39" y2="0"/>
			<line class="st21" x1="1240.41" y1="117.62" x2="1192.36" y2="146.24"/>
			<line class="st21" x1="1192.36" y1="146.24" x2="1174.88" y2="139.55"/>
			<line class="st21" x1="1374.63" y1="86.97" x2="1322.22" y2="118.18"/>
			<line class="st21" x1="1192.36" y1="115.54" x2="1192.36" y2="146.24"/>
			<line class="st21" x1="1240.41" y1="86.93" x2="1240.41" y2="117.62"/>
			<polyline class="st21" points="1126.93,76.94 1126.93,76.93 1126.93,59.82 			"/>
			<line class="st21" x1="1192.36" y1="115.54" x2="1192.36" y2="84.84"/>
			<line class="st21" x1="1374.63" y1="86.97" x2="1374.63" y2="56.27"/>
			<line class="st21" x1="1322.22" y1="118.18" x2="1322.22" y2="87.49"/>
			<polyline class="st21" points="1300.38,109.84 1271.81,98.92 1240.41,86.93 			"/>
			<line class="st21" x1="1240.41" y1="86.93" x2="1240.41" y2="56.22"/>
			<line class="st21" x1="1399.55" y1="225.44" x2="1281.59" y2="295.69"/>
			<line class="st21" x1="1281.59" y1="295.69" x2="1216.19" y2="270.66"/>
			<polyline class="st21" points="1347.15,287.35 1334.02,295.17 1281.59,326.39 			"/>
			<polyline class="st21" points="1399.55,286.83 1350.68,315.94 1347.15,318.05 			"/>
			<line class="st21" x1="1347.15" y1="318.05" x2="1334.02" y2="313.03"/>
			<line class="st21" x1="1347.15" y1="287.35" x2="1347.15" y2="318.05"/>
			<line class="st21" x1="1399.55" y1="256.14" x2="1399.55" y2="286.83"/>
			<polyline class="st21" points="1399.55,256.14 1399.55,239.84 1399.55,225.44 			"/>
			<line class="st21" x1="1216.19" y1="301.37" x2="1216.19" y2="270.66"/>
			<line class="st21" x1="1281.59" y1="326.39" x2="1281.59" y2="295.69"/>
			<polyline class="st21" points="1134.38,331.51 1105.8,320.58 1074.4,308.57 			"/>
			<polyline class="st21" points="1074.4,277.9 1040.36,264.87 1008.98,252.85 			"/>
			<line class="st21" x1="1134.38" y1="300.79" x2="1134.38" y2="331.51"/>
			<line class="st21" x1="1074.4" y1="277.9" x2="1074.4" y2="308.57"/>
			<line class="st21" x1="428.96" y1="127.99" x2="428.96" y2="105.38"/>
			<line class="st21" x1="1134.38" y1="300.79" x2="1134.38" y2="270.11"/>
			<line class="st21" x1="1008.98" y1="252.85" x2="1008.98" y2="222.15"/>
			<line class="st21" x1="1300.38" y1="140.54" x2="1240.41" y2="117.62"/>
			<line class="st21" x1="306.83" y1="153.61" x2="306.83" y2="131"/>
			<line class="st21" x1="1192.36" y1="148.91" x2="1192.36" y2="146.24"/>
			<line class="st21" x1="1322.22" y1="176.84" x2="1322.22" y2="148.89"/>
			<polyline class="st21" points="1300.38,171.24 1271.81,160.32 1240.41,148.31 			"/>
			<line class="st21" x1="1240.41" y1="148.31" x2="1240.41" y2="117.62"/>
			<line class="st21" x1="1399.55" y1="286.83" x2="1447.6" y2="258.23"/>
			<line class="st21" x1="1382.07" y1="341.55" x2="1399.55" y2="348.23"/>
			<polyline class="st21" points="1399.55,348.23 1416.22,338.3 1447.6,319.61 			"/>
			<polyline class="st21" points="1447.6,288.93 1468.64,276.39 1500,257.7 			"/>
			<line class="st21" x1="1399.55" y1="317.53" x2="1399.55" y2="348.23"/>
			<line class="st21" x1="1447.6" y1="288.93" x2="1447.6" y2="319.61"/>
			<line class="st21" x1="1399.55" y1="317.53" x2="1399.55" y2="286.83"/>
			<line class="st21" x1="1500" y1="257.7" x2="1500" y2="227"/>
			<line class="st21" x1="1216.19" y1="362.77" x2="1134.38" y2="331.51"/>
			<line class="st21" x1="1281.59" y1="387.78" x2="1216.19" y2="362.77"/>
			<line class="st21" x1="1350.68" y1="315.95" x2="1382.07" y2="327.94"/>
			<polyline class="st21" points="1382.07,327.94 1334.02,356.56 1281.59,387.78 			"/>
			<line class="st21" x1="1334.02" y1="417.97" x2="1302.63" y2="405.96"/>
			<line class="st21" x1="1382.07" y1="389.34" x2="1334.02" y2="417.97"/>
			<polyline class="st21" points="1281.59,418.48 1187.57,382.54 1156.21,370.55 			"/>
			<polyline class="st21" points="1334.02,387.26 1302.63,405.96 1281.59,418.48 			"/>
			<polyline class="st21" points="1382.07,358.64 1382.07,372.24 1382.07,389.34 			"/>
			<line class="st21" x1="1334.02" y1="387.26" x2="1334.02" y2="417.97"/>
			<polyline class="st21" points="1382.07,358.64 1382.07,341.55 1382.07,327.94 			"/>
			<line class="st21" x1="1281.59" y1="418.48" x2="1281.59" y2="387.78"/>
			<line class="st21" x1="1134.38" y1="362.19" x2="1134.38" y2="331.51"/>
			<line class="st21" x1="1382.07" y1="389.34" x2="1399.55" y2="378.92"/>
			<line class="st21" x1="1281.59" y1="449.19" x2="1334.02" y2="417.97"/>
			<line class="st21" x1="1156.21" y1="401.24" x2="1281.59" y2="449.19"/>
			<line class="st21" x1="1156.21" y1="462.62" x2="1216.19" y2="485.56"/>
			<polyline class="st21" points="1281.59,479.88 1382.07,420.04 1399.55,409.64 			"/>
			<line class="st21" x1="1216.19" y1="454.88" x2="1281.59" y2="479.88"/>
			<polyline class="st21" points="1156.21,431.94 1156.21,441.28 1156.21,462.62 			"/>
			<line class="st21" x1="1216.19" y1="454.88" x2="1216.19" y2="485.56"/>
			<line class="st21" x1="1156.21" y1="431.94" x2="1156.21" y2="401.24"/>
			<line class="st21" x1="1281.59" y1="479.88" x2="1281.59" y2="449.19"/>
			<line class="st21" x1="1008.98" y1="375.65" x2="1008.98" y2="344.95"/>
			<polyline class="st21" points="1500,380.48 1447.6,411.7 1399.55,440.33 1382.07,450.74 			"/>
			<line class="st21" x1="1500" y1="380.48" x2="1500" y2="349.8"/>
			<line class="st21" x1="1382.07" y1="450.74" x2="1382.07" y2="420.04"/>
			<polyline class="st21" points="1281.59,541.26 1216.19,516.26 1187.6,505.33 1187.59,505.33 1156.21,493.34 1134.38,484.99 			
				"/>
			<line class="st21" x1="1334.02" y1="510.05" x2="1281.59" y2="541.26"/>
			<polyline class="st21" points="1382.07,450.74 1347.15,471.53 1334.02,479.35 			"/>
			<line class="st21" x1="1156.21" y1="462.62" x2="1134.38" y2="454.29"/>
			<polyline class="st21" points="1134.38,454.29 1155.4,441.77 1156.21,441.28 			"/>
			<polyline class="st21" points="1334.02,479.35 1334.02,497.22 1334.02,510.05 			"/>
			<line class="st21" x1="1281.59" y1="510.58" x2="1281.59" y2="541.26"/>
			<line class="st21" x1="1134.38" y1="454.29" x2="1134.38" y2="484.99"/>
			<line class="st21" x1="1281.59" y1="510.58" x2="1281.59" y2="479.88"/>
			<polyline class="st21" points="1074.4,462.06 1126.84,430.84 1137.18,424.68 			"/>
			<line class="st21" x1="1008.98" y1="437.06" x2="1074.4" y2="462.06"/>
			<line class="st21" x1="1074.4" y1="431.38" x2="1074.4" y2="400.67"/>
			<line class="st21" x1="1008.98" y1="406.35" x2="1008.98" y2="375.65"/>
			<line class="st21" x1="1008.98" y1="406.35" x2="1008.98" y2="437.06"/>
			<line class="st21" x1="1074.4" y1="431.38" x2="1074.4" y2="462.06"/>
			<line class="st21" x1="1399.55" y1="454.72" x2="1447.6" y2="473.1"/>
			<line class="st21" x1="1500" y1="411.19" x2="1500" y2="380.48"/>
			<line class="st21" x1="1447.6" y1="442.41" x2="1447.6" y2="411.7"/>
			<line class="st21" x1="1447.6" y1="442.41" x2="1447.6" y2="473.1"/>
			<line class="st21" x1="1500" y1="411.19" x2="1500" y2="441.88"/>
			<polyline class="st21" points="1334.02,540.75 1368.17,520.41 1399.55,501.72 			"/>
			<line class="st21" x1="1334.02" y1="510.05" x2="1347.15" y2="502.22"/>
			<line class="st21" x1="1347.15" y1="502.22" x2="1334.02" y2="497.22"/>
			<line class="st21" x1="1347.15" y1="502.22" x2="1347.15" y2="471.53"/>
			<polyline class="st21" points="1399.55,471.02 1399.55,454.72 1399.55,440.33 1399.55,440.32 			"/>
			<line class="st21" x1="1399.55" y1="471.02" x2="1399.55" y2="501.72"/>
			<line class="st21" x1="1281.59" y1="541.26" x2="1281.59" y2="571.96"/>
			<line class="st21" x1="1216.19" y1="516.26" x2="1216.19" y2="546.96"/>
			<line class="st21" x1="1074.4" y1="462.06" x2="1134.38" y2="484.99"/>
			<polyline class="st21" points="1155.41,441.77 1155.4,441.77 1126.84,430.84 			"/>
			<polyline class="st21" points="1008.98,467.75 1061.4,487.79 1068.97,490.69 			"/>
			<line class="st21" x1="1134.38" y1="515.69" x2="1156.21" y2="524.03"/>
			<line class="st21" x1="1008.98" y1="467.75" x2="1008.98" y2="437.06"/>
			<line class="st21" x1="1156.21" y1="524.03" x2="1156.21" y2="493.34"/>
			<line class="st21" x1="1134.38" y1="300.79" x2="1216.19" y2="332.07"/>
			<polyline class="st21" points="1334.02,325.86 1334.02,313.03 1334.02,295.17 			"/>
			<line class="st21" x1="1216.19" y1="332.07" x2="1216.19" y2="301.37"/>
			<line class="st21" x1="1281.59" y1="357.09" x2="1281.59" y2="326.39"/>
			<line class="st21" x1="1281.59" y1="357.09" x2="1281.59" y2="387.78"/>
			<polyline class="st21" points="1334.02,325.86 1334.02,356.56 1334.02,356.57 			"/>
			<line class="st21" x1="1334.02" y1="233.78" x2="1399.55" y2="194.75"/>
			<polyline class="st21" points="1334.13,169.74 1322.22,176.84 1319.38,178.51 1300.38,189.84 1288,197.21 1268.61,208.76 			"/>
			<line class="st21" x1="1281.59" y1="264.99" x2="1334.02" y2="233.78"/>
			<polyline class="st21" points="1268.61,208.76 1240.41,197.99 1221.01,190.57 1208.62,185.83 			"/>
			<line class="st21" x1="1208.62" y1="185.83" x2="1156.21" y2="217.06"/>
			<line class="st21" x1="1156.21" y1="217.06" x2="1281.59" y2="264.99"/>
			<polyline class="st21" points="1156.21,278.44 1165.77,282.1 1216.19,301.37 			"/>
			<line class="st21" x1="1156.21" y1="247.75" x2="1156.21" y2="217.06"/>
			<line class="st21" x1="1281.59" y1="295.69" x2="1281.59" y2="264.99"/>
			<line class="st21" x1="1074.4" y1="155.09" x2="1156.21" y2="186.36"/>
			<line class="st21" x1="1156.21" y1="186.36" x2="1208.62" y2="155.14"/>
			<polyline class="st21" points="1208.62,155.14 1192.36,148.92 1192.36,148.91 1174.88,142.23 1126.84,123.87 			"/>
			<line class="st21" x1="1008.98" y1="130.08" x2="1074.4" y2="155.09"/>
			<line class="st21" x1="1126.84" y1="123.87" x2="1174.88" y2="95.26"/>
			<polyline class="st21" points="1174.88,95.26 1126.93,76.93 1109.45,70.25 			"/>
			<line class="st21" x1="1109.45" y1="70.25" x2="1008.98" y2="130.08"/>
			<polyline class="st21" points="1074.4,185.79 1105.8,197.79 1156.21,217.06 			"/>
			<polyline class="st21" points="1174.88,125.94 1174.88,139.55 1174.88,142.23 			"/>
			<line class="st21" x1="1174.88" y1="125.94" x2="1174.88" y2="95.26"/>
			<line class="st21" x1="1008.98" y1="160.77" x2="1008.98" y2="130.08"/>
			<line class="st21" x1="1156.21" y1="217.06" x2="1156.21" y2="186.36"/>
			<line class="st21" x1="1208.62" y1="185.83" x2="1208.62" y2="155.14"/>
			<line class="st21" x1="110.67" y1="231.02" x2="62.5" y2="212.62"/>
			<polyline class="st21" points="62.5,212.62 77.98,203.4 136.47,168.56 			"/>
			<line class="st21" x1="136.47" y1="168.56" x2="184.62" y2="186.97"/>
			<line class="st21" x1="184.62" y1="186.97" x2="110.67" y2="231.02"/>
			<line class="st21" x1="110.67" y1="276.21" x2="2.3" y2="234.79"/>
			<line class="st21" x1="149.26" y1="253.24" x2="110.67" y2="276.21"/>
			<line class="st21" x1="184.62" y1="209.56" x2="149.26" y2="230.63"/>
			<line class="st21" x1="62.5" y1="235.21" x2="2.3" y2="212.18"/>
			<line class="st21" x1="2.3" y1="212.18" x2="40.87" y2="189.21"/>
			<line class="st21" x1="40.87" y1="189.21" x2="77.98" y2="203.38"/>
			<line class="st21" x1="149.26" y1="230.63" x2="149.26" y2="253.24"/>
			<line class="st21" x1="110.67" y1="253.62" x2="110.67" y2="276.21"/>
			<line class="st21" x1="2.3" y1="212.18" x2="2.3" y2="234.79"/>
			<line class="st21" x1="62.5" y1="235.21" x2="62.5" y2="212.62"/>
			<line class="st21" x1="110.67" y1="253.62" x2="110.67" y2="231.02"/>
			<line class="st21" x1="184.62" y1="209.56" x2="184.62" y2="186.97"/>
			<line class="st21" x1="313.56" y1="325.31" x2="421.93" y2="366.73"/>
			<line class="st21" x1="421.93" y1="366.73" x2="460.52" y2="343.76"/>
			<line class="st21" x1="361.72" y1="321.12" x2="421.93" y2="344.14"/>
			<line class="st21" x1="421.93" y1="344.14" x2="460.52" y2="321.15"/>
			<line class="st21" x1="460.52" y1="321.15" x2="400.31" y2="298.15"/>
			<line class="st21" x1="400.31" y1="298.15" x2="361.72" y2="321.12"/>
			<line class="st21" x1="313.56" y1="280.1" x2="361.72" y2="298.51"/>
			<line class="st21" x1="361.72" y1="298.51" x2="400.31" y2="275.54"/>
			<line class="st21" x1="400.31" y1="275.54" x2="352.15" y2="257.13"/>
			<line class="st21" x1="352.15" y1="257.13" x2="313.56" y2="280.1"/>
			<line class="st21" x1="361.72" y1="321.12" x2="361.72" y2="298.51"/>
			<line class="st21" x1="313.56" y1="302.71" x2="313.56" y2="280.1"/>
			<line class="st21" x1="400.31" y1="298.15" x2="400.31" y2="275.54"/>
			<line class="st21" x1="313.56" y1="302.71" x2="313.56" y2="325.31"/>
			<line class="st21" x1="460.52" y1="321.15" x2="460.52" y2="343.76"/>
			<line class="st21" x1="421.93" y1="344.14" x2="421.93" y2="366.73"/>
			<line class="st21" x1="124.42" y1="524.47" x2="184.63" y2="547.49"/>
			<line class="st21" x1="184.63" y1="547.49" x2="146.05" y2="570.47"/>
			<line class="st21" x1="146.05" y1="570.47" x2="85.83" y2="547.44"/>
			<line class="st21" x1="76.24" y1="506.05" x2="124.42" y2="524.47"/>
			<line class="st21" x1="85.83" y1="547.44" x2="50.45" y2="568.51"/>
			<line class="st21" x1="50.45" y1="568.51" x2="2.3" y2="550.1"/>
			<line class="st21" x1="2.3" y1="550.1" x2="76.24" y2="506.05"/>
			<line class="st21" x1="85.83" y1="592.64" x2="50.45" y2="613.72"/>
			<line class="st21" x1="50.45" y1="613.72" x2="2.3" y2="595.31"/>
			<line class="st21" x1="184.63" y1="570.09" x2="146.05" y2="593.06"/>
			<line class="st21" x1="2.3" y1="572.7" x2="2.3" y2="595.31"/>
			<line class="st21" x1="50.45" y1="591.12" x2="50.45" y2="613.72"/>
			<line class="st21" x1="85.83" y1="570.04" x2="85.83" y2="592.64"/>
			<line class="st21" x1="2.3" y1="572.7" x2="2.3" y2="550.1"/>
			<line class="st21" x1="50.45" y1="591.12" x2="50.45" y2="568.51"/>
			<line class="st21" x1="184.63" y1="570.09" x2="184.63" y2="547.49"/>
			<line class="st21" x1="146.05" y1="593.06" x2="146.05" y2="570.47"/>
			<line class="st21" x1="146.05" y1="593.06" x2="85.83" y2="570.04"/>
			<line class="st21" x1="85.83" y1="570.04" x2="85.83" y2="547.44"/>
			<line class="st21" x1="341.74" y1="452.37" x2="293.49" y2="481.11"/>
			<line class="st21" x1="293.49" y1="481.11" x2="341.64" y2="499.51"/>
			<line class="st21" x1="341.64" y1="499.51" x2="389.9" y2="470.78"/>
			<line class="st21" x1="380.32" y1="429.39" x2="341.74" y2="452.37"/>
			<line class="st21" x1="389.9" y1="470.78" x2="434.05" y2="487.65"/>
			<line class="st21" x1="434.05" y1="487.65" x2="472.64" y2="464.67"/>
			<line class="st21" x1="472.64" y1="464.67" x2="380.32" y2="429.39"/>
			<line class="st21" x1="389.9" y1="515.99" x2="434.05" y2="532.86"/>
			<line class="st21" x1="434.05" y1="532.86" x2="472.64" y2="509.86"/>
			<line class="st21" x1="293.49" y1="503.7" x2="341.64" y2="522.11"/>
			<line class="st21" x1="472.64" y1="487.27" x2="472.64" y2="509.86"/>
			<line class="st21" x1="434.05" y1="510.26" x2="434.05" y2="532.86"/>
			<line class="st21" x1="389.9" y1="493.38" x2="389.9" y2="515.99"/>
			<line class="st21" x1="472.64" y1="487.27" x2="472.64" y2="464.67"/>
			<line class="st21" x1="434.05" y1="510.26" x2="434.05" y2="487.65"/>
			<line class="st21" x1="293.49" y1="503.7" x2="293.49" y2="481.11"/>
			<line class="st21" x1="341.64" y1="522.11" x2="341.64" y2="499.51"/>
			<line class="st21" x1="341.64" y1="522.11" x2="389.9" y2="493.38"/>
			<line class="st21" x1="389.9" y1="493.38" x2="389.9" y2="470.78"/>
			<line class="st21" x1="40.87" y1="342.14" x2="149.26" y2="383.58"/>
			<line class="st21" x1="149.26" y1="383.58" x2="110.67" y2="406.56"/>
			<line class="st21" x1="110.67" y1="406.56" x2="2.3" y2="365.13"/>
			<line class="st21" x1="2.3" y1="365.13" x2="40.87" y2="342.14"/>
			<line class="st21" x1="149.26" y1="406.18" x2="110.67" y2="429.15"/>
			<polyline class="st21" points="110.67,429.15 73.55,414.98 50.45,406.14 			"/>
			<line class="st21" x1="73.55" y1="414.98" x2="50.45" y2="428.74"/>
			<line class="st21" x1="50.45" y1="428.74" x2="2.3" y2="410.32"/>
			<line class="st21" x1="50.45" y1="406.14" x2="50.45" y2="428.74"/>
			<line class="st21" x1="2.3" y1="387.73" x2="2.3" y2="410.32"/>
			<line class="st21" x1="2.3" y1="387.73" x2="2.3" y2="365.13"/>
			<line class="st21" x1="110.67" y1="429.15" x2="110.67" y2="406.56"/>
			<line class="st21" x1="149.26" y1="406.18" x2="149.26" y2="383.58"/>
			<line class="st21" x1="0" y1="63.37" x2="40.7" y2="78.91"/>
			<line class="st21" x1="27.25" y1="111.7" x2="80.07" y2="131.89"/>
			<line class="st21" x1="80.07" y1="131.89" x2="161.17" y2="83.59"/>
			<line class="st21" x1="161.17" y1="34.04" x2="108.35" y2="13.85"/>
			<polyline class="st21" points="108.35,13.85 83.01,28.95 66.05,39.05 			"/>
			<line class="st21" x1="66.05" y1="39.05" x2="118.86" y2="59.24"/>
			<line class="st21" x1="118.86" y1="59.24" x2="161.17" y2="34.04"/>
			<line class="st21" x1="118.86" y1="84.01" x2="66.05" y2="63.83"/>
			<polyline class="st21" points="66.05,63.83 40.7,78.91 27.25,86.92 			"/>
			<line class="st21" x1="27.25" y1="86.92" x2="80.07" y2="107.11"/>
			<line class="st21" x1="80.07" y1="107.11" x2="118.86" y2="84.01"/>
			<line class="st21" x1="83.01" y1="28.94" x2="42.32" y2="13.38"/>
			<line class="st21" x1="42.32" y1="13.38" x2="0" y2="38.57"/>
			<line class="st21" x1="0" y1="38.57" x2="66.05" y2="63.83"/>
			<line class="st21" x1="66.05" y1="63.83" x2="66.05" y2="39.05"/>
			<line class="st21" x1="118.86" y1="84.01" x2="118.86" y2="59.24"/>
			<line class="st21" x1="27.25" y1="86.92" x2="27.25" y2="111.7"/>
			<line class="st21" x1="0" y1="38.57" x2="0" y2="63.37"/>
			<line class="st21" x1="161.17" y1="34.04" x2="161.17" y2="83.59"/>
			<line class="st21" x1="80.07" y1="107.11" x2="80.07" y2="131.89"/>
			<line class="st21" x1="641.17" y1="259.1" x2="683.63" y2="275.32"/>
			<line class="st21" x1="683.63" y1="275.32" x2="726.16" y2="249.99"/>
			<line class="st21" x1="726.16" y1="249.99" x2="765.08" y2="264.87"/>
			<line class="st21" x1="765.08" y1="264.87" x2="799.09" y2="244.62"/>
			<line class="st21" x1="717.71" y1="173.66" x2="683.69" y2="193.92"/>
			<line class="st21" x1="683.69" y1="193.92" x2="726.16" y2="210.14"/>
			<line class="st21" x1="726.16" y1="210.14" x2="760.18" y2="189.9"/>
			<line class="st21" x1="760.18" y1="189.9" x2="717.71" y2="173.66"/>
			<line class="st21" x1="760.18" y1="209.82" x2="726.16" y2="230.08"/>
			<line class="st21" x1="726.16" y1="230.08" x2="765.08" y2="244.95"/>
			<line class="st21" x1="765.08" y1="244.95" x2="799.09" y2="224.69"/>
			<line class="st21" x1="799.09" y1="224.69" x2="760.18" y2="209.82"/>
			<line class="st21" x1="683.69" y1="213.84" x2="641.17" y2="239.17"/>
			<line class="st21" x1="641.17" y1="239.17" x2="683.63" y2="255.4"/>
			<line class="st21" x1="683.63" y1="255.4" x2="726.16" y2="230.08"/>
			<line class="st21" x1="726.16" y1="230.08" x2="683.69" y2="213.84"/>
			<line class="st21" x1="683.69" y1="213.84" x2="683.69" y2="193.92"/>
			<line class="st21" x1="726.16" y1="230.08" x2="726.16" y2="210.14"/>
			<line class="st21" x1="760.18" y1="209.82" x2="760.18" y2="189.9"/>
			<line class="st21" x1="726.16" y1="230.08" x2="726.16" y2="249.99"/>
			<line class="st21" x1="765.08" y1="244.95" x2="765.08" y2="264.87"/>
			<line class="st21" x1="683.63" y1="255.4" x2="683.63" y2="275.32"/>
			<line class="st21" x1="641.17" y1="239.17" x2="641.17" y2="259.1"/>
			<line class="st21" x1="799.09" y1="224.69" x2="799.09" y2="244.62"/>
			<line class="st21" x1="860.63" y1="176.22" x2="818.09" y2="201.56"/>
			<line class="st21" x1="818.09" y1="201.56" x2="775.63" y2="185.33"/>
			<polyline class="st21" points="775.63,185.33 779.24,183.17 818.17,159.99 			"/>
			<line class="st21" x1="894.64" y1="155.96" x2="860.63" y2="176.22"/>
			<line class="st21" x1="818.17" y1="159.99" x2="779.24" y2="145.12"/>
			<line class="st21" x1="779.24" y1="145.12" x2="813.26" y2="124.84"/>
			<line class="st21" x1="813.26" y1="124.84" x2="894.64" y2="155.96"/>
			<line class="st21" x1="894.64" y1="175.88" x2="818.09" y2="221.48"/>
			<line class="st21" x1="818.09" y1="221.48" x2="775.63" y2="205.25"/>
			<line class="st21" x1="779.24" y1="165.03" x2="779.24" y2="183.17"/>
			<line class="st21" x1="779.24" y1="165.03" x2="779.24" y2="145.12"/>
			<line class="st21" x1="894.64" y1="175.88" x2="894.64" y2="155.96"/>
			<line class="st21" x1="818.09" y1="221.48" x2="818.09" y2="201.56"/>
			<line class="st21" x1="775.63" y1="205.25" x2="775.63" y2="185.33"/>
			<line class="st21" x1="779.24" y1="60.46" x2="683.69" y2="23.93"/>
			<line class="st21" x1="683.69" y1="23.93" x2="717.71" y2="3.67"/>
			<line class="st21" x1="717.71" y1="3.67" x2="813.26" y2="40.2"/>
			<line class="st21" x1="813.26" y1="40.2" x2="779.24" y2="60.46"/>
			<line class="st21" x1="736.79" y1="64.16" x2="683.69" y2="43.86"/>
			<line class="st21" x1="779.24" y1="100.31" x2="736.79" y2="84.07"/>
			<line class="st21" x1="813.26" y1="80.06" x2="779.24" y2="100.31"/>
			<line class="st21" x1="736.79" y1="64.16" x2="736.79" y2="84.07"/>
			<line class="st21" x1="779.24" y1="80.38" x2="779.24" y2="100.31"/>
			<line class="st21" x1="813.26" y1="60.13" x2="813.26" y2="80.06"/>
			<line class="st21" x1="813.26" y1="60.13" x2="813.26" y2="40.2"/>
			<line class="st21" x1="779.24" y1="80.38" x2="779.24" y2="60.46"/>
			<line class="st21" x1="683.69" y1="43.86" x2="683.69" y2="23.93"/>
			<line class="st21" x1="618.43" y1="191.21" x2="694.98" y2="145.6"/>
			<line class="st21" x1="575.96" y1="174.96" x2="618.43" y2="191.21"/>
			<line class="st21" x1="652.45" y1="151.02" x2="694.98" y2="125.68"/>
			<line class="st21" x1="694.98" y1="125.68" x2="652.51" y2="109.46"/>
			<line class="st21" x1="652.51" y1="109.46" x2="630.36" y2="122.64"/>
			<line class="st21" x1="618.43" y1="151.35" x2="652.45" y2="131.1"/>
			<polyline class="st21" points="652.45,131.1 630.36,122.65 609.99,114.86 			"/>
			<line class="st21" x1="609.99" y1="114.86" x2="575.96" y2="135.12"/>
			<line class="st21" x1="575.96" y1="135.12" x2="618.43" y2="151.35"/>
			<line class="st21" x1="652.45" y1="151.02" x2="652.45" y2="131.1"/>
			<line class="st21" x1="618.43" y1="171.27" x2="618.43" y2="151.35"/>
			<line class="st21" x1="575.96" y1="155.04" x2="575.96" y2="135.12"/>
			<line class="st21" x1="575.96" y1="155.04" x2="575.96" y2="174.96"/>
			<line class="st21" x1="618.43" y1="171.27" x2="618.43" y2="191.21"/>
			<line class="st21" x1="694.98" y1="125.68" x2="694.98" y2="145.6"/>
			<line class="st21" x1="765.08" y1="429.03" x2="860.63" y2="465.56"/>
			<line class="st21" x1="860.63" y1="465.56" x2="894.64" y2="445.3"/>
			<polyline class="st21" points="831.81,401.37 831.79,401.36 799.09,388.86 			"/>
			<line class="st21" x1="799.09" y1="388.86" x2="765.08" y2="409.12"/>
			<line class="st21" x1="765.08" y1="409.12" x2="818.17" y2="429.4"/>
			<line class="st21" x1="894.64" y1="405.45" x2="852.18" y2="389.21"/>
			<polyline class="st21" points="852.18,389.21 831.79,401.36 818.17,409.48 			"/>
			<line class="st21" x1="818.17" y1="409.48" x2="860.63" y2="425.71"/>
			<line class="st21" x1="860.63" y1="425.71" x2="894.64" y2="405.45"/>
			<line class="st21" x1="894.64" y1="425.38" x2="894.64" y2="405.45"/>
			<line class="st21" x1="818.17" y1="429.4" x2="818.17" y2="409.48"/>
			<line class="st21" x1="860.63" y1="445.64" x2="860.63" y2="425.71"/>
			<line class="st21" x1="860.63" y1="445.64" x2="860.63" y2="465.56"/>
			<line class="st21" x1="894.64" y1="425.38" x2="894.64" y2="445.3"/>
			<line class="st21" x1="765.08" y1="409.12" x2="765.08" y2="429.03"/>
			<line class="st21" x1="306.83" y1="131" x2="355" y2="149.42"/>
			<line class="st21" x1="355" y1="149.42" x2="428.96" y2="105.38"/>
			<line class="st21" x1="428.96" y1="105.38" x2="380.8" y2="86.97"/>
			<line class="st21" x1="380.8" y1="86.97" x2="306.83" y2="131"/>
			<line class="st21" x1="306.83" y1="176.21" x2="415.22" y2="217.64"/>
			<line class="st21" x1="415.22" y1="217.64" x2="453.8" y2="194.66"/>
			<line class="st21" x1="393.59" y1="149.05" x2="428.96" y2="127.99"/>
			<line class="st21" x1="355" y1="172.02" x2="415.22" y2="195.05"/>
			<line class="st21" x1="415.22" y1="195.05" x2="453.8" y2="172.07"/>
			<line class="st21" x1="453.8" y1="172.07" x2="393.59" y2="149.05"/>
			<line class="st21" x1="393.59" y1="149.05" x2="355" y2="172.02"/>
			<line class="st21" x1="306.83" y1="153.61" x2="306.83" y2="176.21"/>
			<line class="st21" x1="453.8" y1="172.07" x2="453.8" y2="194.66"/>
			<line class="st21" x1="415.22" y1="195.05" x2="415.22" y2="217.64"/>
			<line class="st21" x1="355" y1="172.02" x2="355" y2="149.42"/>
			<line class="st21" x1="1068.97" y1="521.39" x2="1134.38" y2="546.38"/>
			<line class="st21" x1="1134.38" y1="300.79" x2="1165.77" y2="282.11"/>
			<line class="st21" x1="1240.41" y1="117.62" x2="1271.81" y2="98.92"/>
		</g>
	</g>
</g>
</svg>
