<?xml version="1.0" encoding="utf-8"?>
<!-- Generator: Adobe Illustrator 27.0.1, SVG Export Plug-In . SVG Version: 6.00 Build 0)  -->
<svg version="1.1" id="Layer_1" xmlns="http://www.w3.org/2000/svg" xmlns:xlink="http://www.w3.org/1999/xlink" x="0px" y="0px"
	 viewBox="0 0 1920 1080" style="enable-background:new 0 0 1920 1080;" xml:space="preserve">
<style type="text/css">
	.st0{clip-path:url(#SVGID_00000042003636059483400160000007332562470523029392_);}
	.st1{fill:none;stroke:#030201;stroke-width:0.425;stroke-miterlimit:10;}
	.st2{fill:none;stroke:#030201;stroke-width:0.992;stroke-miterlimit:10;}
	.st3{fill:none;stroke:#676467;stroke-width:1.984;stroke-miterlimit:10;stroke-dasharray:1.701,0.028,1.701,1.701,0.028,1.701;}
	.st4{fill:#33332D;}
	.st5{font-family:'Calibri';}
	.st6{font-size:14.0306px;}
	.st7{fill:#70706B;}
	.st8{font-size:32.8933px;}
	.st9{font-size:32.8941px;}
	.st10{letter-spacing:-1;}
	.st11{font-size:24.6706px;}
	.st12{fill:none;stroke:#70706B;stroke-width:0.567;stroke-miterlimit:10;}
	.st13{fill:none;stroke:#70706B;stroke-width:0.425;stroke-miterlimit:10;}
	.st14{fill:#913A94;}
	.st15{fill:none;stroke:#70706B;stroke-width:1.417;stroke-miterlimit:10;}
	.st16{fill:none;stroke:#231F20;stroke-width:0.567;stroke-miterlimit:10;}
	.st17{fill:none;}
	.st18{fill:#58595B;}
	.st19{fill:#231F20;}
	.st20{opacity:0.8;fill:#231F20;}
</style>
<g>
	<defs>
		<rect id="SVGID_1_" x="202.36" y="7.04" width="1515.29" height="1011.06"/>
	</defs>
	<clipPath id="SVGID_00000132065129822760036220000004496038076851031989_">
		<use xlink:href="#SVGID_1_"  style="overflow:visible;"/>
	</clipPath>
	<g style="clip-path:url(#SVGID_00000132065129822760036220000004496038076851031989_);">
		<polygon class="st1" points="403.22,-54.48 1117.78,353.17 1345.65,-83.88 647.27,-482.29 		"/>
		<polygon class="st1" points="358.06,73.02 1051.39,468.55 809.07,894.3 108.73,510.09 		"/>
		<polygon class="st1" points="1227.26,568.88 999.64,992.46 2032.43,1562.02 2275.12,1136.62 		"/>
		<polygon class="st1" points="1293.22,453.25 1524.59,18.2 2618.65,583.62 2342.74,1018.11 		"/>
		
			<rect x="63.46" y="618.03" transform="matrix(0.4955 -0.8686 0.8686 0.4955 -742.8945 755.6664)" class="st1" width="431.27" height="798.7"/>
		<polygon class="st2" points="1117.78,353.17 954.03,259.75 1077.68,42.99 1233.24,131.73 		"/>
		
			<rect x="760.97" y="-14.22" transform="matrix(0.4955 -0.8686 0.8686 0.4955 365.2749 799.9653)" class="st2" width="220.69" height="199.49"/>
		
			<rect x="670.87" y="30.16" transform="matrix(0.4955 -0.8686 0.8686 0.4955 316.0813 668.1832)" class="st2" width="124.77" height="63.65"/>
		
			<rect x="845.82" y="-275.91" transform="matrix(0.4955 -0.8686 0.8686 0.4955 637.9036 740.1899)" class="st2" width="220.67" height="193.71"/>
		<polygon class="st2" points="1007.34,-73.32 1086.7,-28.04 1174.31,-181.62 1094.96,-226.9 		"/>
		
			<rect x="1083.4" y="-102.54" transform="matrix(0.4955 -0.8686 0.8686 0.4955 606.1198 1021.2794)" class="st2" width="197.75" height="182.74"/>
		
			<rect x="405.36" y="-107.49" transform="matrix(0.4955 -0.8686 0.8686 0.4955 295.6924 350.8815)" class="st2" width="89.12" height="56.72"/>
		
			<rect x="605.8" y="-458.21" transform="matrix(0.4956 -0.8686 0.8686 0.4956 701.2357 347.7458)" class="st2" width="88.41" height="56.73"/>
		
			<rect x="655.07" y="-430.09" transform="matrix(0.4955 -0.8686 0.8686 0.4955 701.7228 404.7197)" class="st2" width="88.41" height="56.72"/>
		
			<rect x="719.29" y="-393.46" transform="matrix(0.4955 -0.8686 0.8686 0.4955 702.2744 478.9832)" class="st2" width="88.41" height="56.73"/>
		
			<rect x="785.72" y="-354.67" transform="matrix(0.4954 -0.8686 0.8686 0.4954 702.4601 556.713)" class="st2" width="89.44" height="56.73"/>
		<polygon class="st2" points="926.7,-322.88 877.24,-351.1 832.92,-273.41 882.19,-245.3 		"/>
		<polygon class="st2" points="545.91,-75.67 496.64,-103.78 452.48,-26.37 501.75,1.74 		"/>
		
			<rect x="495.92" y="-266.22" transform="matrix(0.4956 -0.8686 0.8686 0.4956 479.2206 349.4586)" class="st2" width="89.12" height="56.72"/>
		
			<rect x="545.19" y="-238.12" transform="matrix(0.4955 -0.8686 0.8686 0.4955 479.7171 406.4407)" class="st2" width="89.12" height="56.73"/>
		
			<rect x="524.48" y="-39.54" transform="matrix(0.4955 -0.8686 0.8686 0.4955 296.764 488.6186)" class="st2" width="89.12" height="56.72"/>
		
			<rect x="573.74" y="-11.43" transform="matrix(0.4955 -0.8686 0.8686 0.4955 297.2276 545.6053)" class="st2" width="89.12" height="56.72"/>
		
			<rect x="625.3" y="15.35" transform="matrix(0.4955 -0.8686 0.8686 0.4955 297.6648 605.2083)" class="st2" width="89.12" height="61.99"/>
		<polygon class="st2" points="817.26,638.73 920.87,697.83 809.07,894.3 704.7,837.04 		"/>
		<polygon class="st2" points="600.91,532.17 710.43,594.65 603.75,781.65 493.19,721 		"/>
		<polygon class="st2" points="358.06,73.02 776.97,312.79 652.9,530.29 233.4,291.55 		"/>
		<polygon class="st2" points="330.33,407.26 207.39,337.13 233.4,291.56 356.32,361.69 		"/>
		<polygon class="st2" points="176.15,391.9 229.24,422.19 162.33,539.49 108.73,510.09 		"/>
		<polygon class="st2" points="257.7,591.81 162.32,539.49 252.33,381.7 346.81,435.6 		"/>
		<polygon class="st2" points="389.69,664.23 257.7,591.81 367.64,399.09 498.4,473.69 		"/>
		<polygon class="st2" points="493.19,721 389.69,664.23 511.72,450.33 614.23,508.81 		"/>
		<polygon class="st2" points="704.7,837.04 603.75,781.65 710.43,594.65 810.43,651.7 		"/>
		
			<rect x="587.97" y="-396.5" transform="matrix(0.4955 -0.8686 0.8686 0.4955 621.7481 362.6018)" class="st2" width="70.13" height="85.08"/>
		
			<rect x="466.48" y="-184.06" transform="matrix(0.4955 -0.8686 0.8686 0.4955 376.0918 364.5087)" class="st2" width="70.72" height="85.09"/>
		
			<rect x="647.18" y="-80.97" transform="matrix(0.4955 -0.8686 0.8686 0.4955 377.7202 573.468)" class="st2" width="70.73" height="85.08"/>
		
			<rect x="569.15" y="-130.25" transform="matrix(0.4955 -0.8686 0.8686 0.4955 377.0129 483.2249)" class="st2" width="70.72" height="94.59"/>
		
			<rect x="694.77" y="-335.58" transform="matrix(0.4955 -0.8686 0.8686 0.4955 622.7108 486.0968)" class="st2" width="70.13" height="85.08"/>
		
			<rect x="780.48" y="-285.49" transform="matrix(0.4955 -0.8686 0.8686 0.4955 622.4304 585.8074)" class="st2" width="70.13" height="85.08"/>
		
			<rect x="571.52" y="-346.22" transform="matrix(0.4955 -0.8686 0.8686 0.4955 555.4541 377.3611)" class="st2" width="62.13" height="113.44"/>
		
			<rect x="706.51" y="-148.15" transform="matrix(0.4955 -0.8686 0.8686 0.4955 463.6278 587.0398)" class="st2" width="61.34" height="85.09"/>
		<polygon class="st2" points="1095.71,813.69 1230.64,890.66 1265.7,829.2 1343.04,873.31 1442.89,685.72 1227.26,568.88 		"/>
		<polygon class="st2" points="1449.86,378.06 1360.37,327.01 1293.22,453.25 1380.24,500.09 		"/>
		<polygon class="st2" points="1380.24,500.09 1436.31,530.27 1523.31,377.78 1465.61,350.44 1449.86,378.06 		"/>
		<polygon class="st2" points="1382.15,286.05 1475.21,333.61 1465.61,350.44 1449.86,378.06 1360.37,327.01 		"/>
		<polygon class="st2" points="1543.71,342.01 1523.31,377.78 1436.31,530.27 1492.91,560.73 1595.25,371.41 		"/>
		<polygon class="st2" points="1541.93,587.11 1641.53,397.82 1595.25,371.41 1492.91,560.73 		"/>
		<polygon class="st2" points="1759.18,457.97 1641.53,397.82 1541.93,587.11 1657.17,649.13 		"/>
		<polygon class="st2" points="1874.28,523.63 1759.18,457.97 1657.17,649.13 1774.76,712.42 		"/>
		<polygon class="st2" points="1888.12,492.33 1874.28,523.63 1774.76,712.42 1805.53,728.97 1822.02,700.06 1838.53,709.48 
			1934.65,518.86 		"/>
		<polygon class="st2" points="1940.11,509.3 1934.65,518.86 1838.53,709.48 1824.94,739.44 1879.4,768.73 1995.23,540.85 		"/>
		<polygon class="st2" points="2002.16,525.19 1995.23,540.85 1879.4,768.73 1994.81,830.86 2078.04,568.48 		"/>
		<polygon class="st2" points="2231.79,383.69 2131.83,558.93 2145.33,567.01 2495.88,776.94 2618.65,583.61 		"/>
		<polygon class="st2" points="2102.19,642.62 2453.8,843.2 2495.88,776.94 2139.26,563.38 		"/>
		<polygon class="st2" points="2060.69,715.36 2413.45,906.75 2453.8,843.2 2102.19,642.62 		"/>
		<polygon class="st2" points="2226.6,805.38 2194.08,862.41 2375.79,966.06 2413.45,906.75 		"/>
		<polygon class="st2" points="2342.74,1018.11 2205.64,944.33 2238.06,887.49 2375.79,966.06 		"/>
		<polygon class="st2" points="2020.8,748.93 1994.81,830.86 2044.67,857.69 2079.33,796.94 2085.63,785.91 		"/>
		<polygon class="st2" points="2194.08,862.41 2079.33,796.94 2044.67,857.69 2205.64,944.33 2238.06,887.49 		"/>
		<polygon class="st2" points="1382.15,286.05 1475.21,333.61 1511.9,357.3 1540.56,307.06 1526.07,298.8 1553.87,239.54 
			1441.1,175.2 		"/>
		<polygon class="st2" points="1524.59,18.2 1441.1,175.2 1501.56,209.7 1522.24,173.44 1510.35,166.66 1574.19,43.83 		"/>
		<polygon class="st2" points="1694.7,106.12 1574.19,43.83 1510.35,166.66 1522.24,173.44 1623.37,231.14 		"/>
		<polygon class="st2" points="1694.7,106.12 1586.05,307.42 1638.35,337.26 1745.77,132.51 		"/>
		<polygon class="st2" points="1442.89,685.72 1343.04,873.31 1333.01,890.9 1413.53,936.84 1529.91,732.86 		"/>
		<polygon class="st2" points="1615.72,779.36 1504.7,973.96 1419.95,925.61 1529.91,732.86 		"/>
		<polygon class="st2" points="1504.7,973.96 1608.7,1033.29 1721.02,836.4 1615.72,779.36 		"/>
		<polygon class="st2" points="1086.68,830.51 1145.9,864.29 1138.63,877.04 1241.87,935.94 1258.6,906.62 1308.55,935.1 
			1296.89,955.51 1460.89,1050.76 1382.62,1203.66 999.64,992.46 		"/>
		<polygon class="st2" points="1503.97,1026.39 1398,1212.15 1486.71,1261.08 1585.96,1073.16 		"/>
		<polygon class="st2" points="1643.4,1105.94 1585.96,1073.16 1486.71,1261.08 1538.15,1290.41 		"/>
		<polygon class="st2" points="1675.69,1163.16 1587.97,1316.92 2032.43,1562.02 2096.18,1450.3 1806.49,1291.78 1788.75,1325.84 
			1759.46,1309.13 1779.94,1273.26 1735.26,1249.46 1726.54,1264.74 1708.11,1254.22 1715.55,1238.22 1703,1227.68 1726.61,1192.22 
					"/>
		<polygon class="st2" points="1602.29,1044.52 1608.7,1033.29 1721.02,836.4 1911.89,939.82 1851.6,1081.89 1876.39,1096.03 
			1952.84,962.01 2275.12,1136.62 2133.22,1385.37 1998.03,1308.25 2008.4,1290.05 1759.3,1151.11 1764.23,1136.91 1701.99,1101.4 
			1691.57,1069.63 1643.49,1039.04 1631.02,1060.91 		"/>
		<polygon class="st2" points="1745.77,132.51 1653.14,311.34 1698.61,337.28 1795.21,158.06 		"/>
		<polygon class="st2" points="1848.57,185.63 1795.2,158.06 1683.87,363.12 1731.74,390.43 		"/>
		<polygon class="st2" points="1848.57,185.63 1875.22,199.41 1806.8,329.94 1813.69,333.88 1790.49,374.53 1808.09,384.57 
			1786.78,421.93 1731.74,390.43 		"/>
		<polygon class="st2" points="1904.96,214.77 1786.78,421.93 1861.36,469.58 1872,450.94 1903.54,465.29 1916.56,440.26 
			2006.54,267.28 		"/>
		<polygon class="st2" points="1959.21,465.32 2042.93,286.08 2006.54,267.28 1916.56,440.26 		"/>
		<polygon class="st2" points="2042.93,286.08 2086.59,308.64 1999.14,488.09 1959.21,465.32 		"/>
		<polygon class="st2" points="2120.54,326.19 2050.63,512.82 2001.14,484.59 2086.59,308.64 		"/>
		<polygon class="st2" points="2177.62,355.69 2088,538.79 2048.63,516.33 2050.63,512.81 2120.54,326.19 		"/>
		<polygon class="st2" points="2231.79,383.69 2177.62,355.69 2090.01,535.28 2131.83,558.93 		"/>
		<polygon class="st2" points="39.07,632.19 -68.55,820.84 115.97,926.1 142.7,879.25 248.39,942.35 222.87,987.08 379.48,1076.44 
			405,1031.7 498.53,1082.26 472.57,1127.76 625.2,1216.61 732.82,1027.96 		"/>
		<polygon class="st2" points="-174.63,1006.79 150.65,1192.36 182.04,1137.33 135.08,1110.54 188.21,1017.42 168.5,1006.18 
			190.06,968.37 115.97,926.1 -68.55,820.84 		"/>
		<polygon class="st2" points="186.62,1212.88 292.71,1026.93 379.48,1076.44 356.71,1116.36 603.63,1254.42 519.12,1402.57 		"/>
		<polygon class="st3" points="920.87,697.83 646.13,541.11 776.97,312.79 1051.26,469.27 		"/>
		<g>
			<g>
				<defs>
					<line id="SVGID_00000097476895099404840290000001100117287738131896_" x1="654" y1="-483.01" x2="698.51" y2="-457.63"/>
				</defs>
				<clipPath id="SVGID_00000183228089553330980310000012851368652393268156_">
					<use xlink:href="#SVGID_00000097476895099404840290000001100117287738131896_"  style="overflow:visible;"/>
				</clipPath>
			</g>
			<g>
				<defs>
					<line id="SVGID_00000018199967980038404280000001255295024446614177_" x1="690.22" y1="-462.35" x2="734.73" y2="-436.97"/>
				</defs>
				<clipPath id="SVGID_00000131329108995234624120000018348904100697867417_">
					<use xlink:href="#SVGID_00000018199967980038404280000001255295024446614177_"  style="overflow:visible;"/>
				</clipPath>
			</g>
			<g>
				<defs>
					<line id="SVGID_00000016069539480737168230000000175372238838817935_" x1="727.63" y1="-441.01" x2="772.13" y2="-415.63"/>
				</defs>
				<clipPath id="SVGID_00000174603890428208876280000016852007548256329914_">
					<use xlink:href="#SVGID_00000016069539480737168230000000175372238838817935_"  style="overflow:visible;"/>
				</clipPath>
			</g>
			<g>
				<defs>
					<line id="SVGID_00000152232273007562678020000011502663681812369820_" x1="777" y1="-412.85" x2="814.59" y2="-391.4"/>
				</defs>
				<clipPath id="SVGID_00000101077175383433891710000003502141687304239493_">
					<use xlink:href="#SVGID_00000152232273007562678020000011502663681812369820_"  style="overflow:visible;"/>
				</clipPath>
			</g>
			<g>
				<defs>
					<line id="SVGID_00000157302859538246219430000016168868351191344310_" x1="846.5" y1="-373.2" x2="892.16" y2="-347.15"/>
				</defs>
				<clipPath id="SVGID_00000150101043997738597570000006115212574992848286_">
					<use xlink:href="#SVGID_00000157302859538246219430000016168868351191344310_"  style="overflow:visible;"/>
				</clipPath>
			</g>
		</g>
		<text transform="matrix(0.8686 0.4955 -0.4955 0.8686 796.5627 537.9585)" class="st4 st5 st6">120’ x 100’</text>
		<text transform="matrix(-0.4939 0.8695 -0.8695 -0.4939 1193.5961 392.927)" class="st7 st5 st8">t</text>
		<text transform="matrix(-0.4939 0.8695 -0.8695 -0.4939 1201.5887 378.8563)" class="st7 st5 st8">e</text>
		<text transform="matrix(-0.4939 0.8695 -0.8695 -0.4939 1209.6766 364.6178)" class="st7 st5 st8">e</text>
		<text transform="matrix(-0.4939 0.8695 -0.8695 -0.4939 1215.1171 355.0284)" class="st7 st5 st8">r</text>
		<text transform="matrix(-0.4939 0.8695 -0.8695 -0.4939 1220.5632 345.4524)" class="st7 st5 st8">t</text>
		<text transform="matrix(-0.4939 0.8695 -0.8695 -0.4939 1228.0223 332.325)" class="st7 st5 st8">S</text>
		<text transform="matrix(-0.4939 0.8695 -0.8695 -0.4939 1231.6932 325.8585)" class="st7 st5 st8"> </text>
		<text transform="matrix(-0.4939 0.8695 -0.8695 -0.4939 1240.2228 310.8426)" class="st7 st5 st8">h</text>
		<text transform="matrix(-0.4939 0.8695 -0.8695 -0.4939 1247.1029 298.756)" class="st7 st5 st8">c</text>
		<text transform="matrix(-0.4939 0.8695 -0.8695 -0.4939 1252.5366 289.1645)" class="st7 st5 st8">r</text>
		<text transform="matrix(-0.4939 0.8695 -0.8695 -0.4939 1261.0687 274.1439)" class="st7 st5 st8">u</text>
		<text transform="matrix(-0.4939 0.8695 -0.8695 -0.4939 1269.5978 259.1328)" class="st7 st5 st8">h</text>
		<text transform="matrix(-0.4939 0.8695 -0.8695 -0.4939 1278.2538 243.8904)" class="st7 st5 st8">C</text>
		<text transform="matrix(0.8686 0.4955 -0.4955 0.8686 1335.1433 557.065)"><tspan x="0" y="0" class="st7 st5 st9">Leon</tspan><tspan x="64.82" y="0" class="st7 st5 st9">a</tspan><tspan x="80.61" y="0" class="st7 st5 st9">r</tspan><tspan x="91.65" y="0" class="st7 st5 st9">d </tspan><tspan x="116.37" y="0" class="st7 st5 st9">S</tspan><tspan x="131.12" y="0" class="st7 st5 st9">t</tspan><tspan x="142.14" y="0" class="st7 st5 st9">r</tspan><tspan x="153.18" y="0" class="st7 st5 st9">e</tspan><tspan x="169.55" y="0" class="st7 st5 st9">e</tspan><tspan x="185.75" y="0" class="st7 st5 st9">t</tspan></text>
		<text transform="matrix(0.8686 0.4955 -0.4955 0.8686 231.8658 666.6809)"><tspan x="0" y="0" class="st7 st5 st9 st10">W</tspan><tspan x="27.92" y="0" class="st7 st5 st9">orth </tspan><tspan x="92.47" y="0" class="st7 st5 st9">S</tspan><tspan x="107.22" y="0" class="st7 st5 st9">t</tspan><tspan x="118.24" y="0" class="st7 st5 st9">r</tspan><tspan x="129.28" y="0" class="st7 st5 st9">e</tspan><tspan x="145.64" y="0" class="st7 st5 st9">e</tspan><tspan x="161.85" y="0" class="st7 st5 st9">t</tspan></text>
		<text transform="matrix(0.9997 0.025 -0.025 0.9997 833.5084 474.8211)" class="st7 st5 st11">N</text>
		<path class="st7" d="M1241.24,491.2l85.43,48.74L1241.24,491.2z"/>
		<line class="st12" x1="1326.67" y1="539.93" x2="1242.61" y2="491.98"/>
		<polygon class="st7" points="1249.72,489.2 1250.06,490.62 1243.09,492.25 1245.24,499.07 1243.84,499.5 1241.24,491.2 		"/>
		<path class="st7" d="M994.05,350.18l85.43,48.74L994.05,350.18z"/>
		<line class="st12" x1="1079.48" y1="398.91" x2="995.43" y2="350.96"/>
		<polygon class="st7" points="1002.53,348.18 1002.87,349.6 995.9,351.23 998.04,358.05 996.65,358.49 994.05,350.18 		"/>
		<path class="st7" d="M1295.34,224.12l48.74-85.43L1295.34,224.12z"/>
		<line class="st12" x1="1295.34" y1="224.12" x2="1343.3" y2="140.05"/>
		<polygon class="st7" points="1346.07,147.17 1344.66,147.5 1343.03,140.54 1336.2,142.68 1335.76,141.29 1344.08,138.69 		"/>
		<g>
			<path class="st13" d="M863.57,519.81c-6.82,11.96-22.06,16.13-34.02,9.3c-11.97-6.83-16.13-22.06-9.31-34.02
				c6.82-11.96,22.05-16.13,34.02-9.3C866.23,492.61,870.4,507.84,863.57,519.81z"/>
			<line class="st14" x1="841.93" y1="532.38" x2="842.12" y2="482.67"/>
			<line class="st13" x1="841.93" y1="532.38" x2="842.12" y2="482.67"/>
			<line class="st14" x1="842.04" y1="503.1" x2="842.12" y2="482.66"/>
			<line class="st15" x1="842.04" y1="503.1" x2="842.12" y2="482.66"/>
		</g>
		<polygon class="st16" points="1121.9,374.95 360,-59.71 621.42,-517.96 1373.76,-94.83 		"/>
		<polygon class="st16" points="315.32,18.6 62.1,496.89 834.01,923.85 1085.7,458.09 		"/>
		<polygon class="st17" points="-218.61,1014.86 10.45,586.27 796,1034.41 555.29,1456.37 		"/>
		<polygon class="st16" points="1500.22,-22.69 1258.41,452.82 2371.53,1068.41 2649.32,581.48 		"/>
		<polygon class="st16" points="1213.74,531.13 964.17,998.11 2056.24,1621.1 2328.76,1143.39 		"/>
	</g>
</g>
<rect x="740.85" y="387.15" transform="matrix(0.4955 -0.8686 0.8686 0.4955 -10.4496 1019.4499)" class="st18" width="263.15" height="263.15"/>
<g>
	<path class="st19" d="M203.18,1047.02l1.63-0.14c0.08,0.65,0.26,1.19,0.54,1.61c0.28,0.42,0.72,0.76,1.31,1.02
		c0.59,0.26,1.26,0.39,2,0.39c0.66,0,1.24-0.1,1.75-0.29c0.5-0.2,0.88-0.46,1.13-0.81c0.25-0.34,0.37-0.71,0.37-1.12
		c0-0.41-0.12-0.77-0.36-1.07c-0.24-0.3-0.63-0.56-1.18-0.77c-0.35-0.14-1.12-0.35-2.32-0.64c-1.2-0.29-2.04-0.56-2.52-0.81
		c-0.62-0.33-1.09-0.73-1.39-1.22c-0.3-0.48-0.46-1.03-0.46-1.62c0-0.66,0.19-1.28,0.56-1.85c0.37-0.57,0.92-1.01,1.64-1.3
		c0.72-0.3,1.52-0.45,2.4-0.45c0.97,0,1.82,0.16,2.56,0.47c0.74,0.31,1.31,0.77,1.71,1.38c0.4,0.61,0.61,1.29,0.64,2.06l-1.66,0.12
		c-0.09-0.83-0.39-1.45-0.9-1.87c-0.51-0.42-1.27-0.63-2.27-0.63c-1.05,0-1.81,0.19-2.29,0.58c-0.48,0.38-0.72,0.84-0.72,1.38
		c0,0.47,0.17,0.85,0.51,1.16c0.33,0.3,1.2,0.61,2.61,0.93c1.4,0.32,2.37,0.59,2.89,0.83c0.76,0.35,1.32,0.79,1.68,1.33
		c0.36,0.54,0.54,1.16,0.54,1.86c0,0.69-0.2,1.35-0.6,1.96c-0.4,0.61-0.97,1.09-1.72,1.43c-0.74,0.34-1.58,0.51-2.51,0.51
		c-1.18,0-2.17-0.17-2.97-0.52c-0.8-0.35-1.42-0.86-1.88-1.55C203.44,1048.67,203.2,1047.89,203.18,1047.02z"/>
	<path class="st19" d="M216.22,1051.21v-13.05h1.73v13.05H216.22z"/>
	<path class="st19" d="M224.32,1051.21v-11.51h-4.3v-1.54h10.35v1.54h-4.32v11.51H224.32z"/>
	<path class="st19" d="M232.17,1051.21v-13.05h9.44v1.54h-7.71v4h7.22v1.53h-7.22v4.44h8.01v1.54H232.17z"/>
	<path class="st19" d="M249.37,1051.21v-13.05h4.92c0.87,0,1.53,0.04,1.99,0.12c0.64,0.11,1.18,0.31,1.61,0.61
		c0.43,0.3,0.78,0.72,1.05,1.26c0.27,0.54,0.4,1.13,0.4,1.78c0,1.11-0.35,2.05-1.06,2.82c-0.71,0.77-1.98,1.15-3.83,1.15h-3.35v5.31
		H249.37z M251.09,1044.36h3.38c1.12,0,1.91-0.21,2.38-0.62s0.7-1,0.7-1.75c0-0.55-0.14-1.01-0.41-1.4
		c-0.27-0.39-0.64-0.65-1.09-0.77c-0.29-0.08-0.83-0.12-1.61-0.12h-3.34V1044.36z"/>
	<path class="st19" d="M261.46,1051.21v-13.05h1.73v11.51h6.43v1.54H261.46z"/>
	<path class="st19" d="M270.24,1051.21l5.01-13.05h1.86l5.34,13.05h-1.97l-1.52-3.95h-5.46l-1.43,3.95H270.24z M274.01,1045.85h4.43
		l-1.36-3.62c-0.41-1.1-0.72-2-0.93-2.71c-0.17,0.84-0.4,1.67-0.7,2.49L274.01,1045.85z"/>
	<path class="st19" d="M283.82,1051.21v-13.05h1.77l6.86,10.25v-10.25h1.66v13.05h-1.77l-6.86-10.26v10.26H283.82z"/>
	<path class="st20" d="M203.09,1067.13l1.47-0.13c0.07,0.59,0.23,1.07,0.49,1.45c0.25,0.37,0.65,0.68,1.18,0.91s1.14,0.35,1.8,0.35
		c0.59,0,1.12-0.09,1.57-0.26c0.45-0.18,0.79-0.42,1.01-0.73c0.22-0.31,0.33-0.64,0.33-1c0-0.37-0.11-0.69-0.32-0.97
		c-0.21-0.28-0.57-0.51-1.06-0.69c-0.32-0.12-1.01-0.31-2.09-0.57c-1.08-0.26-1.83-0.5-2.27-0.73c-0.56-0.29-0.98-0.66-1.25-1.09
		c-0.28-0.43-0.41-0.92-0.41-1.46c0-0.59,0.17-1.15,0.5-1.66c0.34-0.52,0.83-0.91,1.47-1.18c0.65-0.27,1.37-0.4,2.16-0.4
		c0.87,0,1.64,0.14,2.3,0.42c0.66,0.28,1.18,0.69,1.53,1.24c0.36,0.55,0.55,1.16,0.58,1.85l-1.49,0.11
		c-0.08-0.74-0.35-1.3-0.81-1.68c-0.46-0.38-1.15-0.57-2.05-0.57c-0.94,0-1.63,0.17-2.06,0.52c-0.43,0.35-0.65,0.76-0.65,1.25
		c0,0.42,0.15,0.77,0.46,1.04c0.3,0.27,1.08,0.55,2.34,0.84c1.26,0.28,2.13,0.53,2.6,0.75c0.68,0.32,1.19,0.72,1.51,1.2
		c0.33,0.48,0.49,1.04,0.49,1.67c0,0.62-0.18,1.21-0.54,1.77c-0.36,0.55-0.87,0.98-1.54,1.29c-0.67,0.31-1.43,0.46-2.26,0.46
		c-1.07,0-1.96-0.16-2.67-0.46c-0.72-0.31-1.28-0.78-1.69-1.4C203.33,1068.63,203.11,1067.92,203.09,1067.13z"/>
	<path class="st20" d="M222.95,1066.79l1.55,0.39c-0.33,1.28-0.91,2.25-1.76,2.92c-0.85,0.67-1.88,1.01-3.1,1.01
		c-1.27,0-2.3-0.26-3.09-0.77c-0.79-0.51-1.4-1.26-1.81-2.24c-0.41-0.98-0.62-2.03-0.62-3.15c0-1.22,0.23-2.29,0.7-3.2
		c0.47-0.91,1.13-1.6,1.99-2.07c0.86-0.47,1.81-0.71,2.85-0.71c1.18,0,2.16,0.3,2.97,0.9s1.36,1.44,1.67,2.52l-1.53,0.36
		c-0.27-0.85-0.67-1.48-1.19-1.87c-0.52-0.39-1.17-0.58-1.96-0.58c-0.9,0-1.66,0.22-2.26,0.65c-0.61,0.43-1.03,1.02-1.28,1.75
		c-0.25,0.73-0.37,1.48-0.37,2.25c0,1,0.14,1.87,0.44,2.62c0.29,0.74,0.74,1.3,1.36,1.67c0.61,0.37,1.28,0.55,2,0.55
		c0.87,0,1.61-0.25,2.21-0.75C222.33,1068.52,222.74,1067.78,222.95,1066.79z"/>
	<path class="st20" d="M225.13,1070.91l4.51-11.75h1.67l4.81,11.75h-1.77l-1.37-3.56h-4.91l-1.29,3.56H225.13z M228.52,1066.09h3.98
		l-1.23-3.26c-0.37-0.99-0.65-1.8-0.83-2.44c-0.15,0.76-0.36,1.5-0.63,2.24L228.52,1066.09z"/>
	<path class="st20" d="M237.31,1070.91v-11.75h1.55v10.36h5.79v1.39H237.31z"/>
	<path class="st20" d="M246.53,1070.91v-11.75h8.5v1.39h-6.94v3.6h6.5v1.38h-6.5v4h7.21v1.39H246.53z"/>
	<path class="st20" d="M257.67,1064.04v-1.64h1.64v1.64H257.67z M257.67,1070.91v-1.64h1.64v1.64H257.67z"/>
	<path class="st20" d="M271.42,1070.91h-1.44v-9.19c-0.35,0.33-0.8,0.66-1.37,0.99c-0.56,0.33-1.07,0.58-1.52,0.75v-1.4
		c0.81-0.38,1.51-0.84,2.12-1.38c0.6-0.54,1.03-1.06,1.28-1.57h0.93V1070.91z"/>
	<path class="st20" d="M275.43,1060.71v-1.67h1.55v1.32c0,0.72-0.08,1.23-0.25,1.55c-0.23,0.43-0.59,0.76-1.07,0.98l-0.35-0.57
		c0.29-0.12,0.5-0.3,0.64-0.56c0.14-0.25,0.22-0.6,0.24-1.05H275.43z"/>
	<path class="st20" d="M290.7,1064h-7.76v-1.35h7.76V1064z M290.7,1067.57h-7.76v-1.35h7.76V1067.57z"/>
	<path class="st20" d="M302.29,1070.91h-1.44v-9.19c-0.35,0.33-0.81,0.66-1.37,0.99c-0.56,0.33-1.07,0.58-1.52,0.75v-1.4
		c0.8-0.38,1.51-0.84,2.12-1.38c0.6-0.54,1.03-1.06,1.28-1.57h0.93V1070.91z"/>
	<path class="st20" d="M305.3,1071.11l3.41-12.15h1.15l-3.4,12.15H305.3z"/>
	<path class="st20" d="M310.54,1067.83l1.52-0.13c0.11,0.74,0.37,1.29,0.78,1.66c0.41,0.37,0.9,0.56,1.48,0.56
		c0.69,0,1.28-0.26,1.76-0.79c0.48-0.52,0.72-1.22,0.72-2.08c0-0.82-0.23-1.47-0.69-1.95c-0.46-0.47-1.07-0.71-1.82-0.71
		c-0.46,0-0.88,0.11-1.26,0.32c-0.37,0.21-0.67,0.48-0.88,0.82l-1.36-0.18l1.14-6.03h5.84v1.38h-4.69l-0.63,3.16
		c0.71-0.49,1.45-0.74,2.22-0.74c1.03,0,1.89,0.36,2.6,1.07c0.71,0.71,1.06,1.62,1.06,2.74c0,1.06-0.31,1.98-0.93,2.76
		c-0.75,0.95-1.78,1.43-3.08,1.43c-1.07,0-1.94-0.3-2.62-0.9C311.03,1069.61,310.64,1068.82,310.54,1067.83z"/>
	<path class="st20" d="M319.67,1065.11c0-1.39,0.14-2.51,0.43-3.35c0.29-0.85,0.71-1.5,1.28-1.96c0.56-0.46,1.27-0.69,2.13-0.69
		c0.63,0,1.18,0.13,1.66,0.38c0.48,0.25,0.87,0.62,1.18,1.1c0.31,0.48,0.55,1.06,0.73,1.75c0.17,0.69,0.26,1.61,0.26,2.78
		c0,1.38-0.14,2.49-0.42,3.34c-0.28,0.85-0.71,1.5-1.27,1.96c-0.56,0.46-1.28,0.69-2.14,0.69c-1.13,0-2.02-0.41-2.67-1.22
		C320.06,1068.91,319.67,1067.32,319.67,1065.11z M321.15,1065.11c0,1.93,0.23,3.21,0.68,3.85c0.45,0.64,1.01,0.96,1.67,0.96
		s1.22-0.32,1.67-0.96c0.45-0.64,0.68-1.92,0.68-3.85c0-1.93-0.23-3.22-0.68-3.86c-0.45-0.63-1.02-0.95-1.69-0.95
		c-0.66,0-1.19,0.28-1.59,0.84C321.4,1061.86,321.15,1063.19,321.15,1065.11z"/>
	<path class="st20" d="M328.82,1060.71v-1.67h1.55v1.32c0,0.72-0.08,1.23-0.25,1.55c-0.23,0.43-0.59,0.76-1.08,0.98l-0.35-0.57
		c0.29-0.12,0.5-0.3,0.65-0.56c0.14-0.25,0.22-0.6,0.24-1.05H328.82z M331.3,1060.71v-1.67h1.55v1.32c0,0.72-0.08,1.23-0.25,1.55
		c-0.23,0.43-0.59,0.76-1.07,0.98l-0.35-0.57c0.29-0.12,0.5-0.3,0.64-0.56c0.14-0.25,0.22-0.6,0.24-1.05H331.3z"/>
</g>
</svg>
